<svg xmlns="http://www.w3.org/2000/svg" xmlns:oryx="http://oryx-editor.org" id="_F1AC1F4D-E71A-43E2-8764-0E75534B1183" width="822.8906860351562" height="285.65626525878906" xmlns:xlink="http://www.w3.org/1999/xlink" xmlns:svg="http://www.w3.org/2000/svg"><defs><marker id="_345D9A36-D6C5-44F1-8C9F-9FF7D39DAFE4start" refX="1" refY="5" markerUnits="userSpaceOnUse" markerWidth="17" markerHeight="11" orient="auto" fill="#000000" stroke="#000000"> 	  		<path id="_345D9A36-D6C5-44F1-8C9F-9FF7D39DAFE4conditional" d="M 0 5 L 8 0 L 16 5 L 8 10 L 0 5" fill="white" stroke="#000000" stroke-width="1" display="none"/> 			<path id="_345D9A36-D6C5-44F1-8C9F-9FF7D39DAFE4default" d="M 5 0 L 11 10" fill="white" stroke="#000000" stroke-width="1" display="none"/> 	  	</marker><marker id="_345D9A36-D6C5-44F1-8C9F-9FF7D39DAFE4end" refX="15" refY="6" markerUnits="userSpaceOnUse" markerWidth="15" markerHeight="12" orient="auto" fill="#000000" stroke="#000000"> 	  		<path id="_345D9A36-D6C5-44F1-8C9F-9FF7D39DAFE4frame2" d="M 0 1 L 15 6 L 0 11z" fill="#000000" stroke="#000000" stroke-linejoin="round" stroke-width="2"/> 	  	</marker><marker id="_D75DB57E-43BE-4F7E-9AC5-5AFF6D8468D5start" refX="1" refY="5" markerUnits="userSpaceOnUse" markerWidth="17" markerHeight="11" orient="auto" fill="#000000" stroke="#000000"> 	  		<path id="_D75DB57E-43BE-4F7E-9AC5-5AFF6D8468D5conditional" d="M 0 5 L 8 0 L 16 5 L 8 10 L 0 5" fill="white" stroke="#000000" stroke-width="1" display="none"/> 			<path id="_D75DB57E-43BE-4F7E-9AC5-5AFF6D8468D5default" d="M 5 0 L 11 10" fill="white" stroke="#000000" stroke-width="1" display="none"/> 	  	</marker><marker id="_D75DB57E-43BE-4F7E-9AC5-5AFF6D8468D5end" refX="15" refY="6" markerUnits="userSpaceOnUse" markerWidth="15" markerHeight="12" orient="auto" fill="#000000" stroke="#000000"> 	  		<path id="_D75DB57E-43BE-4F7E-9AC5-5AFF6D8468D5frame2" d="M 0 1 L 15 6 L 0 11z" fill="#000000" stroke="#000000" stroke-linejoin="round" stroke-width="2"/> 	  	</marker><marker id="_7E60E0FE-D90B-4FFA-BC98-BD38E5BA98C7start" refX="1" refY="5" markerUnits="userSpaceOnUse" markerWidth="17" markerHeight="11" orient="auto" fill="#000000" stroke="#000000"> 	  		<path id="_7E60E0FE-D90B-4FFA-BC98-BD38E5BA98C7conditional" d="M 0 5 L 8 0 L 16 5 L 8 10 L 0 5" fill="white" stroke="#000000" stroke-width="1" display="none"/> 			<path id="_7E60E0FE-D90B-4FFA-BC98-BD38E5BA98C7default" d="M 5 0 L 11 10" fill="white" stroke="#000000" stroke-width="1" display="none"/> 	  	</marker><marker id="_7E60E0FE-D90B-4FFA-BC98-BD38E5BA98C7end" refX="15" refY="6" markerUnits="userSpaceOnUse" markerWidth="15" markerHeight="12" orient="auto" fill="#000000" stroke="#000000"> 	  		<path id="_7E60E0FE-D90B-4FFA-BC98-BD38E5BA98C7frame2" d="M 0 1 L 15 6 L 0 11z" fill="#000000" stroke="#000000" stroke-linejoin="round" stroke-width="2"/> 	  	</marker></defs><g stroke="none" font-family="Verdana, sans-serif" font-size-adjust="none" font-style="normal" font-variant="normal" font-weight="normal" line-heigth="normal" font-size="12"><g class="stencils" transform="translate(14.999999046325684, 15.656249046325684)"><g class="me"/><g class="children"><g id="_22FBFA0B-5317-47EA-8DBD-CAB08EC9FF68" bpmn2nodeid="_E6009E0F-F25A-405A-A9A6-7B3700A64E04"><g class="stencils" transform="translate(45, 60)"><g class="me"><g pointer-events="fill" id="_22FBFA0B-5317-47EA-8DBD-CAB08EC9FF68">        <defs id="_22FBFA0B-5317-47EA-8DBD-CAB08EC9FF68__22FBFA0B-5317-47EA-8DBD-CAB08EC9FF68_5"> 		<radialGradient id="_22FBFA0B-5317-47EA-8DBD-CAB08EC9FF68background" cx="10%" cy="10%" r="100%" fx="10%" fy="10%"> 			<stop offset="0%" stop-color="#ffffff" stop-opacity="1" id="_22FBFA0B-5317-47EA-8DBD-CAB08EC9FF68__22FBFA0B-5317-47EA-8DBD-CAB08EC9FF68_6"/> 			<stop id="_22FBFA0B-5317-47EA-8DBD-CAB08EC9FF68fill_el" offset="100%" stop-color="#9acd32" stop-opacity="1"/> 		</radialGradient> 	</defs> 	     <circle id="_22FBFA0B-5317-47EA-8DBD-CAB08EC9FF68bg_frame" cx="15" cy="15" r="15" stroke="#000000" fill="url(#_22FBFA0B-5317-47EA-8DBD-CAB08EC9FF68background) white" stroke-width="1" style="stroke-dasharray: 5.5, 3"/>      <circle id="_22FBFA0B-5317-47EA-8DBD-CAB08EC9FF68frame" cx="15" cy="15" r="15" stroke="#000000" fill="none" stroke-width="1" display="none"/>  	<text font-size="11" id="_22FBFA0B-5317-47EA-8DBD-CAB08EC9FF68text_name" x="15" y="32" oryx:align="top center" stroke="black" stroke-width="0pt" letter-spacing="-0.01px" fill="#000000" text-anchor="middle" transform="rotate(0 15 32)" visibility="inherit" oryx:fontSize="11"><tspan x="15" y="32" dy="11">Start</tspan></text>   </g></g><g class="children" style="overflow:hidden"/><g class="edge"/></g><g class="controls"><g class="dockers"/><g class="magnets" transform="translate(45, 60)"><g pointer-events="all" display="none" transform="translate(7, 7)"><circle cx="8" cy="8" r="4" stroke="none" fill="red" fill-opacity="0.3"/></g></g></g></g><g id="_F394AC77-95F3-42E1-846B-164C09D8DDA2" bpmn2nodeid="_A219CC54-D1BD-44A4-A465-B9C34A02EB9A"><g class="stencils" transform="translate(79, 143)"><g class="me"><g pointer-events="fill" oryx:minimumSize="50 40" id="_F394AC77-95F3-42E1-846B-164C09D8DDA2">   	<defs id="_F394AC77-95F3-42E1-846B-164C09D8DDA2__F394AC77-95F3-42E1-846B-164C09D8DDA2_17"> 		<radialGradient id="_F394AC77-95F3-42E1-846B-164C09D8DDA2background" cx="10%" cy="10%" r="100%" fx="10%" fy="10%"> 			<stop offset="0%" stop-color="#ffffff" stop-opacity="1" id="_F394AC77-95F3-42E1-846B-164C09D8DDA2__F394AC77-95F3-42E1-846B-164C09D8DDA2_18"/> 			<stop id="_F394AC77-95F3-42E1-846B-164C09D8DDA2fill_el" offset="100%" stop-color="#fafad2" stop-opacity="1"/> 		</radialGradient> 		<radialGradient id="_F394AC77-95F3-42E1-846B-164C09D8DDA2borderbackground" cx="10%" cy="10%" r="100%" fx="10%" fy="10%"> 			<stop offset="0%" stop-color="#ffffff" stop-opacity="1" id="_F394AC77-95F3-42E1-846B-164C09D8DDA2__F394AC77-95F3-42E1-846B-164C09D8DDA2_19"/> 			<stop id="_F394AC77-95F3-42E1-846B-164C09D8DDA2fill_border" offset="100%" stop-color="#000000" stop-opacity="1" stroke="#000000"/> 		</radialGradient> 	</defs> 	 	<rect id="_F394AC77-95F3-42E1-846B-164C09D8DDA2text_frame" oryx:anchors="bottom top right left" x="1" y="1" width="137" height="97" rx="10" ry="10" stroke="none" stroke-width="0" fill="none"/> 	<rect id="_F394AC77-95F3-42E1-846B-164C09D8DDA2bg_frame" oryx:resize="vertical horizontal" x="0" y="0" width="143" height="98" rx="10" ry="10" stroke="#000000" stroke-width="1" fill="url(#_F394AC77-95F3-42E1-846B-164C09D8DDA2background) #ffffcc"/> 		<text font-size="12" id="_F394AC77-95F3-42E1-846B-164C09D8DDA2text_name" x="71.5" y="49" oryx:align="middle center" oryx:fittoelem="text_frame" stroke="black" text-anchor="middle" stroke-width="0pt" letter-spacing="-0.01px" fill="#000000" transform="rotate(0 71.5 49)" visibility="inherit" oryx:fontSize="12"><tspan x="71.5" y="49" dy="-1" id="ext-gen688">Rule_CheckIncomeRe</tspan><tspan x="71.5" y="49" dy="11" id="ext-gen689">asonableCompatability</tspan></text>     <g id="_F394AC77-95F3-42E1-846B-164C09D8DDA2manualTask" transform="scale(0.7,0.7) translate(8,8)" display="none">     	<path oryx:anchors="top left" id="_F394AC77-95F3-42E1-846B-164C09D8DDA2frame" style="opacity:1;fill:none;fill-opacity:1;stroke-width:1" d="M0.5,3.751l4.083-3.25c0,0,11.166,0.083,12.083,0.083s-2.417,2.917-1.5,2.917     s11.667,0,12.584,0c1.166,1.708-0.168,3.167-0.834,3.667s0.875,1.917-1,4.417c-0.75,0.25,0.75,1.875-1.333,3.333     c-1.167,0.583,0.583,1.542-1.25,2.833c-1.167,0-20.833,0.083-20.833,0.083l-2-1.333V3.751z" stroke="#000000"/> 		<path id="_F394AC77-95F3-42E1-846B-164C09D8DDA2frame2" oryx:anchors="top left" style="opacity:1;fill:none;stroke-width:2" d="M 13.5 7 L 27 7" stroke="#000000"/> 		<path id="_F394AC77-95F3-42E1-846B-164C09D8DDA2frame3" oryx:anchors="top left" style="opacity:1;fill:none;stroke-width:2" d="M 13.5 11 L 26 11" stroke="#000000"/> 		<path id="_F394AC77-95F3-42E1-846B-164C09D8DDA2frame4" oryx:anchors="top left" style="opacity:1;fill:none;stroke-width:1.5" d="M 14 14.5 L 25 14.5" stroke="#000000"/> 		<path id="_F394AC77-95F3-42E1-846B-164C09D8DDA2frame5" oryx:anchors="top left" style="opacity:1;fill:none;stroke-width:1.5" d="M 8.2 3.1 L 15 3.1" stroke="#000000"/> 	</g> 	 	<g id="_F394AC77-95F3-42E1-846B-164C09D8DDA2businessRuleTask" transform="scale(0.7,0.7) translate(8,8)" display="none"> 		<rect id="_F394AC77-95F3-42E1-846B-164C09D8DDA2frame6" oryx:anchors="top left" x="0" y="0" width="22" height="4" style="opacity:1;fill:#B3B1B3;fill-opacity:1;" stroke="#000000"/> 		<rect id="_F394AC77-95F3-42E1-846B-164C09D8DDA2frame7" oryx:anchors="top left" x="0" y="4" style="opacity:1;fill:none;" width="22" height="12" stroke="#000000"/> 		<path id="_F394AC77-95F3-42E1-846B-164C09D8DDA2frame8" oryx:anchors="top left" style="opacity:1;fill:none;" d="M 0 10 L 22 10" stroke="#000000"/> 		<path id="_F394AC77-95F3-42E1-846B-164C09D8DDA2frame9" oryx:anchors="top left" style="opacity:1; fill:none;" d="M 7 4 L 7 16" stroke="#000000"/> 	</g> 	 	<g id="_F394AC77-95F3-42E1-846B-164C09D8DDA2scriptTask" transform="scale(0.7,0.7) translate(8,8)" display="inherit"> 		<path oryx:anchors="top left" id="_F394AC77-95F3-42E1-846B-164C09D8DDA2frame10" style="opacity:1;fill:none;" stroke="#000000" d="M6.402,0.5h14.5c0,0-5.833,2.833-5.833,5.583s4.417,6,4.417,9.167    s-4.167,5.083-4.167,5.083H0.235c0,0,5-2.667,5-5s-4.583-6.75-4.583-9.25S6.402,0.5,6.402,0.5z"/> 		<path oryx:anchors="top left" id="_F394AC77-95F3-42E1-846B-164C09D8DDA2frame11" style="opacity:1;fill:none;stroke-width:1.5" d="M 3.5 4.5 L 13.5 4.5" stroke="#000000"/> 		<path oryx:anchors="top left" id="_F394AC77-95F3-42E1-846B-164C09D8DDA2frame12" style="opacity:1;fill:none;stroke-width:1.5" d="M 3.8 8.5 L 13.8 8.5" stroke="#000000"/> 		<path oryx:anchors="top left" id="_F394AC77-95F3-42E1-846B-164C09D8DDA2frame13" style="opacity:1;fill:none;stroke-width:1.5" d="M 6.3 12.5 L 16.3 12.5" stroke="#000000"/> 		<path oryx:anchors="top left" id="_F394AC77-95F3-42E1-846B-164C09D8DDA2frame14" style="opacity:1;fill:none;stroke-width:1.5" d="M 6.5 16.5 L 16.5 16.5" stroke="#000000"/> 	</g> 	 	<g id="_F394AC77-95F3-42E1-846B-164C09D8DDA2userTask" transform="scale(0.7,0.7) translate(8,8)" display="none"> 		<path id="_F394AC77-95F3-42E1-846B-164C09D8DDA2frame15" oryx:anchors="top left" style="opacity:1;fill:#F4F6F7" stroke="#000000" d="M0.585,24.167h24.083v-7.833c0,0-2.333-3.917-7.083-5.167h-9.25    c-4.417,1.333-7.833,5.75-7.833,5.75L0.585,24.167z"/> 		<path id="_F394AC77-95F3-42E1-846B-164C09D8DDA2frame16" oryx:anchors="top left" style="opacity:1;fill:none" d="M 6 20 L 6 24" stroke="#000000"/> 		<path id="_F394AC77-95F3-42E1-846B-164C09D8DDA2frame17" oryx:anchors="top left" style="opacity:1;fill:none" d="M 20 20 L 20 24" stroke="#000000"/> 		<circle id="_F394AC77-95F3-42E1-846B-164C09D8DDA2frame18" oryx:anchors="top left" fill="black" cx="13.002" cy="5.916" r="5.417" stroke="#000000"/> 		<path id="_F394AC77-95F3-42E1-846B-164C09D8DDA2frame19" oryx:anchors="top left" style="opacity:1;fill:#F0EFF0;" stroke="#000000" d="M8.043,7.083c0,0,2.814-2.426,5.376-1.807s4.624-0.693,4.624-0.693    c0.25,1.688,0.042,3.75-1.458,5.584c0,0,1.083,0.75,1.083,1.5s0.125,1.875-1,3s-5.5,1.25-6.75,0S8.668,12.834,8.668,12    s0.583-1.25,1.25-1.917C8.835,9.5,7.419,7.708,8.043,7.083z"/> 	</g> 	 	<g id="_F394AC77-95F3-42E1-846B-164C09D8DDA2serviceTask" transform="scale(0.7,0.7) translate(8,8)" display="none"> 		<polygon oryx:anchors="top left" id="_F394AC77-95F3-42E1-846B-164C09D8DDA2frame20" style="opacity:1;fill:#ffffff" stroke="#000000" points="15.392,5.064 17.954,2.502 20.347,4.895 17.786,7.455     18.729,9.732 22.353,9.732 22.353,13.115 18.731,13.115 17.788,15.392 20.351,17.955 17.958,20.347 15.397,17.786 13.12,18.729     13.12,22.353 9.737,22.353 9.737,18.731 7.46,17.788 4.897,20.35 2.506,17.958 5.066,15.397 4.124,13.12 0.5,13.12 0.5,9.737     4.121,9.737 5.065,7.461 2.503,4.898 4.895,2.506 7.455,5.066 9.732,4.125 9.732,0.5 13.116,0.5 13.116,4.121 "/> 		<circle oryx:anchors="top left" id="_F394AC77-95F3-42E1-846B-164C09D8DDA2frame21" style="opacity:1;fill:none" stroke="#000000" cx="11.427" cy="11.426" r="3.714"/> 		<polygon oryx:anchors="top left" id="_F394AC77-95F3-42E1-846B-164C09D8DDA2frame22" style="opacity:1;fill:#ffffff" stroke="#000000" points="21.392,11.064 23.954,8.502 26.347,10.895 23.786,13.455     24.729,15.732 28.353,15.732 28.353,19.115 24.731,19.115 23.788,21.392 26.351,23.955 23.958,26.347 21.397,23.786 19.12,24.729     19.12,28.353 15.737,28.353 15.737,24.731 13.46,23.788 10.897,26.35 8.506,23.958 11.066,21.397 10.124,19.12 6.5,19.12     6.5,15.737 10.121,15.737 11.065,13.461 8.503,10.898 10.895,8.506 13.455,11.066 15.732,10.125 15.732,6.5 19.116,6.5     19.116,10.121 "/> 		<circle oryx:anchors="top left" id="_F394AC77-95F3-42E1-846B-164C09D8DDA2frame23" style="opacity:1;fill:none;" stroke="#000000" cx="17.427" cy="17.426" r="3.714"/> 	</g> 	 	<g id="_F394AC77-95F3-42E1-846B-164C09D8DDA2sendTask" display="none"> 		<path id="_F394AC77-95F3-42E1-846B-164C09D8DDA2stframe24" oryx:anchors="left top" stroke="#FFFFFF" fill="black" stroke-width="1" d="M8,11 L8,21 L24,21 L24,11 L16,17z"/> 		<path id="_F394AC77-95F3-42E1-846B-164C09D8DDA2stframe25" oryx:anchors="left top" stroke="#FFFFFF" fill="black" stroke-width="1" d="M7,10 L16,17 L25 10z"/> 	</g> 	 	<g id="_F394AC77-95F3-42E1-846B-164C09D8DDA2receiveTask" display="none"> 		<path id="_F394AC77-95F3-42E1-846B-164C09D8DDA2frame26" oryx:anchors="left top" stroke="#000000" fill="none" stroke-width="1" d="M8,11 L8,21 L24,21 L24,11z M8,11 L16,17 L24,11"/> 	</g> 	 	<g id="_F394AC77-95F3-42E1-846B-164C09D8DDA2none" display="inherit"/>  	<g id="_F394AC77-95F3-42E1-846B-164C09D8DDA2sequential" display="none">         <path oryx:anchors="bottom" fill="none" stroke="#000000" stroke-width="2" d=" M67.93 94  h10  M67.93 90  h10  M67.93 86  h10 " id="_F394AC77-95F3-42E1-846B-164C09D8DDA2__F394AC77-95F3-42E1-846B-164C09D8DDA2_20"/>     </g>   </g></g><g class="children" style="overflow:hidden"/><g class="edge"/></g><g class="controls"><g class="dockers"/><g class="magnets" transform="translate(79, 143)"><g pointer-events="all" display="none" transform="translate(-7, 16.5)"><circle cx="8" cy="8" r="4" stroke="none" fill="red" fill-opacity="0.3"/></g><g pointer-events="all" display="none" transform="translate(-7, 41)"><circle cx="8" cy="8" r="4" stroke="none" fill="red" fill-opacity="0.3"/></g><g pointer-events="all" display="none" transform="translate(-7, 65.5)"><circle cx="8" cy="8" r="4" stroke="none" fill="red" fill-opacity="0.3"/></g><g pointer-events="all" display="none" transform="translate(27.75, 89)"><circle cx="8" cy="8" r="4" stroke="none" fill="red" fill-opacity="0.3"/></g><g pointer-events="all" display="none" transform="translate(63.5, 89)"><circle cx="8" cy="8" r="4" stroke="none" fill="red" fill-opacity="0.3"/></g><g pointer-events="all" display="none" transform="translate(99.25, 89)"><circle cx="8" cy="8" r="4" stroke="none" fill="red" fill-opacity="0.3"/></g><g pointer-events="all" display="none" transform="translate(134, 16.5)"><circle cx="8" cy="8" r="4" stroke="none" fill="red" fill-opacity="0.3"/></g><g pointer-events="all" display="none" transform="translate(134, 41)"><circle cx="8" cy="8" r="4" stroke="none" fill="red" fill-opacity="0.3"/></g><g pointer-events="all" display="none" transform="translate(134, 65.5)"><circle cx="8" cy="8" r="4" stroke="none" fill="red" fill-opacity="0.3"/></g><g pointer-events="all" display="none" transform="translate(27.75, -7)"><circle cx="8" cy="8" r="4" stroke="none" fill="red" fill-opacity="0.3"/></g><g pointer-events="all" display="none" transform="translate(63.5, -7)"><circle cx="8" cy="8" r="4" stroke="none" fill="red" fill-opacity="0.3"/></g><g pointer-events="all" display="none" transform="translate(99.25, -7)"><circle cx="8" cy="8" r="4" stroke="none" fill="red" fill-opacity="0.3"/></g><g pointer-events="all" display="none" transform="translate(63.5, 41)"><circle cx="8" cy="8" r="4" stroke="none" fill="red" fill-opacity="0.3"/></g></g></g></g><g id="_BD2A455D-33E7-478D-998D-AC53B4AABFBE" bpmn2nodeid="_6494448D-4E41-4DEC-99ED-3D48DE82B69E"><g class="stencils" transform="translate(433, 65)"><g class="me"><g pointer-events="fill" id="_BD2A455D-33E7-478D-998D-AC53B4AABFBE">       <defs id="_BD2A455D-33E7-478D-998D-AC53B4AABFBE__BD2A455D-33E7-478D-998D-AC53B4AABFBE_5"> 		<radialGradient id="_BD2A455D-33E7-478D-998D-AC53B4AABFBEbackground" cx="10%" cy="10%" r="100%" fx="10%" fy="10%"> 			<stop offset="0%" stop-color="#ffffff" stop-opacity="1" id="_BD2A455D-33E7-478D-998D-AC53B4AABFBE__BD2A455D-33E7-478D-998D-AC53B4AABFBE_6"/> 			<stop id="_BD2A455D-33E7-478D-998D-AC53B4AABFBEfill_el" offset="100%" stop-color="#ff6347" stop-opacity="1"/> 		</radialGradient> 		<radialGradient id="_BD2A455D-33E7-478D-998D-AC53B4AABFBEborderbackground" cx="10%" cy="10%" r="100%" fx="10%" fy="10%"> 			<stop offset="0%" stop-color="#ffffff" stop-opacity="1" id="_BD2A455D-33E7-478D-998D-AC53B4AABFBE__BD2A455D-33E7-478D-998D-AC53B4AABFBE_7"/> 			<stop id="_BD2A455D-33E7-478D-998D-AC53B4AABFBEfill_border" offset="100%" stop-color="#000000" stop-opacity="1" stroke="#000000"/> 		</radialGradient> 	</defs> 	     <circle id="_BD2A455D-33E7-478D-998D-AC53B4AABFBEbg_frame" cx="14" cy="14" r="14" stroke="#000000" fill="url(#_BD2A455D-33E7-478D-998D-AC53B4AABFBEbackground) white" stroke-width="3"/>          <circle id="_BD2A455D-33E7-478D-998D-AC53B4AABFBEframe" cx="14" cy="14" r="9" stroke="#000000" fill="url(#_BD2A455D-33E7-478D-998D-AC53B4AABFBEborderbackground)" stroke-width="1"/> 	<text font-size="11" id="_BD2A455D-33E7-478D-998D-AC53B4AABFBEtext_name" x="14" y="30" oryx:align="top center" stroke="black" stroke-width="0pt" letter-spacing="-0.01px" fill="#000000" text-anchor="middle" transform="rotate(0 14 30)" visibility="inherit" oryx:fontSize="11"><tspan x="14" y="30" dy="11">Stop</tspan></text>   </g></g><g class="children" style="overflow:hidden"/><g class="edge"/></g><g class="controls"><g class="dockers"/><g class="magnets" transform="translate(433, 65)"><g pointer-events="all" display="none" transform="translate(6, 6)"><circle cx="8" cy="8" r="4" stroke="none" fill="red" fill-opacity="0.3"/></g></g></g></g><g id="_D323ECD2-CD6B-4009-BF11-F524220C11F5" bpmn2nodeid="_BBCA4EBF-C70C-4445-942F-9AB0A01E548D"><g class="stencils" transform="translate(253, 145)"><g class="me"><g pointer-events="fill" oryx:minimumSize="50 40" id="_D323ECD2-CD6B-4009-BF11-F524220C11F5">   	<defs id="_D323ECD2-CD6B-4009-BF11-F524220C11F5__D323ECD2-CD6B-4009-BF11-F524220C11F5_17"> 		<radialGradient id="_D323ECD2-CD6B-4009-BF11-F524220C11F5background" cx="10%" cy="10%" r="100%" fx="10%" fy="10%"> 			<stop offset="0%" stop-color="#ffffff" stop-opacity="1" id="_D323ECD2-CD6B-4009-BF11-F524220C11F5__D323ECD2-CD6B-4009-BF11-F524220C11F5_18"/> 			<stop id="_D323ECD2-CD6B-4009-BF11-F524220C11F5fill_el" offset="100%" stop-color="#fafad2" stop-opacity="1"/> 		</radialGradient> 		<radialGradient id="_D323ECD2-CD6B-4009-BF11-F524220C11F5borderbackground" cx="10%" cy="10%" r="100%" fx="10%" fy="10%"> 			<stop offset="0%" stop-color="#ffffff" stop-opacity="1" id="_D323ECD2-CD6B-4009-BF11-F524220C11F5__D323ECD2-CD6B-4009-BF11-F524220C11F5_19"/> 			<stop id="_D323ECD2-CD6B-4009-BF11-F524220C11F5fill_border" offset="100%" stop-color="#000000" stop-opacity="1" stroke="#000000"/> 		</radialGradient> 	</defs> 	 	<rect id="_D323ECD2-CD6B-4009-BF11-F524220C11F5text_frame" oryx:anchors="bottom top right left" x="1" y="1" width="145" height="99" rx="10" ry="10" stroke="none" stroke-width="0" fill="none"/> 	<rect id="_D323ECD2-CD6B-4009-BF11-F524220C11F5bg_frame" oryx:resize="vertical horizontal" x="0" y="0" width="151" height="100" rx="10" ry="10" stroke="#000000" stroke-width="1" fill="url(#_D323ECD2-CD6B-4009-BF11-F524220C11F5background) #ffffcc"/> 		<text font-size="12" id="_D323ECD2-CD6B-4009-BF11-F524220C11F5text_name" x="75.5" y="50" oryx:align="middle center" oryx:fittoelem="text_frame" stroke="black" text-anchor="middle" stroke-width="0pt" letter-spacing="-0.01px" fill="#000000" transform="rotate(0 75.5 50)" visibility="inherit" oryx:fontSize="12"><tspan x="75.5" y="50" dy="-1" id="ext-gen686">Rule_CheckIncomeRea</tspan><tspan x="75.5" y="50" dy="11" id="ext-gen691">sonableCompatability</tspan></text>     <g id="_D323ECD2-CD6B-4009-BF11-F524220C11F5manualTask" transform="scale(0.7,0.7) translate(8,8)" display="none">     	<path oryx:anchors="top left" id="_D323ECD2-CD6B-4009-BF11-F524220C11F5frame" style="opacity:1;fill:none;fill-opacity:1;stroke-width:1" d="M0.5,3.751l4.083-3.25c0,0,11.166,0.083,12.083,0.083s-2.417,2.917-1.5,2.917     s11.667,0,12.584,0c1.166,1.708-0.168,3.167-0.834,3.667s0.875,1.917-1,4.417c-0.75,0.25,0.75,1.875-1.333,3.333     c-1.167,0.583,0.583,1.542-1.25,2.833c-1.167,0-20.833,0.083-20.833,0.083l-2-1.333V3.751z" stroke="#000000"/> 		<path id="_D323ECD2-CD6B-4009-BF11-F524220C11F5frame2" oryx:anchors="top left" style="opacity:1;fill:none;stroke-width:2" d="M 13.5 7 L 27 7" stroke="#000000"/> 		<path id="_D323ECD2-CD6B-4009-BF11-F524220C11F5frame3" oryx:anchors="top left" style="opacity:1;fill:none;stroke-width:2" d="M 13.5 11 L 26 11" stroke="#000000"/> 		<path id="_D323ECD2-CD6B-4009-BF11-F524220C11F5frame4" oryx:anchors="top left" style="opacity:1;fill:none;stroke-width:1.5" d="M 14 14.5 L 25 14.5" stroke="#000000"/> 		<path id="_D323ECD2-CD6B-4009-BF11-F524220C11F5frame5" oryx:anchors="top left" style="opacity:1;fill:none;stroke-width:1.5" d="M 8.2 3.1 L 15 3.1" stroke="#000000"/> 	</g> 	 	<g id="_D323ECD2-CD6B-4009-BF11-F524220C11F5businessRuleTask" transform="scale(0.7,0.7) translate(8,8)" display="inherit"> 		<rect id="_D323ECD2-CD6B-4009-BF11-F524220C11F5frame6" oryx:anchors="top left" x="0" y="0" width="22" height="4" style="opacity:1;fill:#B3B1B3;fill-opacity:1;" stroke="#000000"/> 		<rect id="_D323ECD2-CD6B-4009-BF11-F524220C11F5frame7" oryx:anchors="top left" x="0" y="4" style="opacity:1;fill:none;" width="22" height="12" stroke="#000000"/> 		<path id="_D323ECD2-CD6B-4009-BF11-F524220C11F5frame8" oryx:anchors="top left" style="opacity:1;fill:none;" d="M 0 10 L 22 10" stroke="#000000"/> 		<path id="_D323ECD2-CD6B-4009-BF11-F524220C11F5frame9" oryx:anchors="top left" style="opacity:1; fill:none;" d="M 7 4 L 7 16" stroke="#000000"/> 	</g> 	 	<g id="_D323ECD2-CD6B-4009-BF11-F524220C11F5scriptTask" transform="scale(0.7,0.7) translate(8,8)" display="none"> 		<path oryx:anchors="top left" id="_D323ECD2-CD6B-4009-BF11-F524220C11F5frame10" style="opacity:1;fill:none;" stroke="#000000" d="M6.402,0.5h14.5c0,0-5.833,2.833-5.833,5.583s4.417,6,4.417,9.167    s-4.167,5.083-4.167,5.083H0.235c0,0,5-2.667,5-5s-4.583-6.75-4.583-9.25S6.402,0.5,6.402,0.5z"/> 		<path oryx:anchors="top left" id="_D323ECD2-CD6B-4009-BF11-F524220C11F5frame11" style="opacity:1;fill:none;stroke-width:1.5" d="M 3.5 4.5 L 13.5 4.5" stroke="#000000"/> 		<path oryx:anchors="top left" id="_D323ECD2-CD6B-4009-BF11-F524220C11F5frame12" style="opacity:1;fill:none;stroke-width:1.5" d="M 3.8 8.5 L 13.8 8.5" stroke="#000000"/> 		<path oryx:anchors="top left" id="_D323ECD2-CD6B-4009-BF11-F524220C11F5frame13" style="opacity:1;fill:none;stroke-width:1.5" d="M 6.3 12.5 L 16.3 12.5" stroke="#000000"/> 		<path oryx:anchors="top left" id="_D323ECD2-CD6B-4009-BF11-F524220C11F5frame14" style="opacity:1;fill:none;stroke-width:1.5" d="M 6.5 16.5 L 16.5 16.5" stroke="#000000"/> 	</g> 	 	<g id="_D323ECD2-CD6B-4009-BF11-F524220C11F5userTask" transform="scale(0.7,0.7) translate(8,8)" display="none"> 		<path id="_D323ECD2-CD6B-4009-BF11-F524220C11F5frame15" oryx:anchors="top left" style="opacity:1;fill:#F4F6F7" stroke="#000000" d="M0.585,24.167h24.083v-7.833c0,0-2.333-3.917-7.083-5.167h-9.25    c-4.417,1.333-7.833,5.75-7.833,5.75L0.585,24.167z"/> 		<path id="_D323ECD2-CD6B-4009-BF11-F524220C11F5frame16" oryx:anchors="top left" style="opacity:1;fill:none" d="M 6 20 L 6 24" stroke="#000000"/> 		<path id="_D323ECD2-CD6B-4009-BF11-F524220C11F5frame17" oryx:anchors="top left" style="opacity:1;fill:none" d="M 20 20 L 20 24" stroke="#000000"/> 		<circle id="_D323ECD2-CD6B-4009-BF11-F524220C11F5frame18" oryx:anchors="top left" fill="black" cx="13.002" cy="5.916" r="5.417" stroke="#000000"/> 		<path id="_D323ECD2-CD6B-4009-BF11-F524220C11F5frame19" oryx:anchors="top left" style="opacity:1;fill:#F0EFF0;" stroke="#000000" d="M8.043,7.083c0,0,2.814-2.426,5.376-1.807s4.624-0.693,4.624-0.693    c0.25,1.688,0.042,3.75-1.458,5.584c0,0,1.083,0.75,1.083,1.5s0.125,1.875-1,3s-5.5,1.25-6.75,0S8.668,12.834,8.668,12    s0.583-1.25,1.25-1.917C8.835,9.5,7.419,7.708,8.043,7.083z"/> 	</g> 	 	<g id="_D323ECD2-CD6B-4009-BF11-F524220C11F5serviceTask" transform="scale(0.7,0.7) translate(8,8)" display="none"> 		<polygon oryx:anchors="top left" id="_D323ECD2-CD6B-4009-BF11-F524220C11F5frame20" style="opacity:1;fill:#ffffff" stroke="#000000" points="15.392,5.064 17.954,2.502 20.347,4.895 17.786,7.455     18.729,9.732 22.353,9.732 22.353,13.115 18.731,13.115 17.788,15.392 20.351,17.955 17.958,20.347 15.397,17.786 13.12,18.729     13.12,22.353 9.737,22.353 9.737,18.731 7.46,17.788 4.897,20.35 2.506,17.958 5.066,15.397 4.124,13.12 0.5,13.12 0.5,9.737     4.121,9.737 5.065,7.461 2.503,4.898 4.895,2.506 7.455,5.066 9.732,4.125 9.732,0.5 13.116,0.5 13.116,4.121 "/> 		<circle oryx:anchors="top left" id="_D323ECD2-CD6B-4009-BF11-F524220C11F5frame21" style="opacity:1;fill:none" stroke="#000000" cx="11.427" cy="11.426" r="3.714"/> 		<polygon oryx:anchors="top left" id="_D323ECD2-CD6B-4009-BF11-F524220C11F5frame22" style="opacity:1;fill:#ffffff" stroke="#000000" points="21.392,11.064 23.954,8.502 26.347,10.895 23.786,13.455     24.729,15.732 28.353,15.732 28.353,19.115 24.731,19.115 23.788,21.392 26.351,23.955 23.958,26.347 21.397,23.786 19.12,24.729     19.12,28.353 15.737,28.353 15.737,24.731 13.46,23.788 10.897,26.35 8.506,23.958 11.066,21.397 10.124,19.12 6.5,19.12     6.5,15.737 10.121,15.737 11.065,13.461 8.503,10.898 10.895,8.506 13.455,11.066 15.732,10.125 15.732,6.5 19.116,6.5     19.116,10.121 "/> 		<circle oryx:anchors="top left" id="_D323ECD2-CD6B-4009-BF11-F524220C11F5frame23" style="opacity:1;fill:none;" stroke="#000000" cx="17.427" cy="17.426" r="3.714"/> 	</g> 	 	<g id="_D323ECD2-CD6B-4009-BF11-F524220C11F5sendTask" display="none"> 		<path id="_D323ECD2-CD6B-4009-BF11-F524220C11F5stframe24" oryx:anchors="left top" stroke="#FFFFFF" fill="black" stroke-width="1" d="M8,11 L8,21 L24,21 L24,11 L16,17z"/> 		<path id="_D323ECD2-CD6B-4009-BF11-F524220C11F5stframe25" oryx:anchors="left top" stroke="#FFFFFF" fill="black" stroke-width="1" d="M7,10 L16,17 L25 10z"/> 	</g> 	 	<g id="_D323ECD2-CD6B-4009-BF11-F524220C11F5receiveTask" display="none"> 		<path id="_D323ECD2-CD6B-4009-BF11-F524220C11F5frame26" oryx:anchors="left top" stroke="#000000" fill="none" stroke-width="1" d="M8,11 L8,21 L24,21 L24,11z M8,11 L16,17 L24,11"/> 	</g> 	 	<g id="_D323ECD2-CD6B-4009-BF11-F524220C11F5none" display="inherit"/>  	<g id="_D323ECD2-CD6B-4009-BF11-F524220C11F5sequential" display="none">         <path oryx:anchors="bottom" fill="none" stroke="#000000" stroke-width="2" d=" M72.00999999999999 96  h10  M72.00999999999999 92  h10  M72.00999999999999 88  h10 " id="_D323ECD2-CD6B-4009-BF11-F524220C11F5__D323ECD2-CD6B-4009-BF11-F524220C11F5_20"/>     </g>   </g></g><g class="children" style="overflow:hidden"/><g class="edge"/></g><g class="controls"><g class="dockers"/><g class="magnets" transform="translate(253, 145)"><g pointer-events="all" display="none" transform="translate(-7, 17)"><circle cx="8" cy="8" r="4" stroke="none" fill="red" fill-opacity="0.3"/></g><g pointer-events="all" display="none" transform="translate(-7, 42)"><circle cx="8" cy="8" r="4" stroke="none" fill="red" fill-opacity="0.3"/></g><g pointer-events="all" display="none" transform="translate(-7, 67)"><circle cx="8" cy="8" r="4" stroke="none" fill="red" fill-opacity="0.3"/></g><g pointer-events="all" display="none" transform="translate(29.75, 91)"><circle cx="8" cy="8" r="4" stroke="none" fill="red" fill-opacity="0.3"/></g><g pointer-events="all" display="none" transform="translate(67.5, 91)"><circle cx="8" cy="8" r="4" stroke="none" fill="red" fill-opacity="0.3"/></g><g pointer-events="all" display="none" transform="translate(105.25, 91)"><circle cx="8" cy="8" r="4" stroke="none" fill="red" fill-opacity="0.3"/></g><g pointer-events="all" display="none" transform="translate(142, 17)"><circle cx="8" cy="8" r="4" stroke="none" fill="red" fill-opacity="0.3"/></g><g pointer-events="all" display="none" transform="translate(142, 42)"><circle cx="8" cy="8" r="4" stroke="none" fill="red" fill-opacity="0.3"/></g><g pointer-events="all" display="none" transform="translate(142, 67)"><circle cx="8" cy="8" r="4" stroke="none" fill="red" fill-opacity="0.3"/></g><g pointer-events="all" display="none" transform="translate(29.75, -7)"><circle cx="8" cy="8" r="4" stroke="none" fill="red" fill-opacity="0.3"/></g><g pointer-events="all" display="none" transform="translate(67.5, -7)"><circle cx="8" cy="8" r="4" stroke="none" fill="red" fill-opacity="0.3"/></g><g pointer-events="all" display="none" transform="translate(105.25, -7)"><circle cx="8" cy="8" r="4" stroke="none" fill="red" fill-opacity="0.3"/></g><g pointer-events="all" display="none" transform="translate(67.5, 42)"><circle cx="8" cy="8" r="4" stroke="none" fill="red" fill-opacity="0.3"/></g></g></g></g></g><g class="edge"><g id="_345D9A36-D6C5-44F1-8C9F-9FF7D39DAFE4" bpmn2nodeid="_C162A9A6-80A3-47FD-9EC2-F22A081B3B2D"><g class="stencils"><g class="me"><g pointer-events="painted" bpmn2nodeid="_24817618-CC8A-4900-AB05-C142C202E57F"><path id="_345D9A36-D6C5-44F1-8C9F-9FF7D39DAFE4_1" d="M69.44972287317734 87.21676879736738L112.41551150182266 142.7636999526326 " stroke="#000000" fill="none" stroke-width="2" stroke-linecap="round" stroke-linejoin="round" marker-start="url(#_345D9A36-D6C5-44F1-8C9F-9FF7D39DAFE4start)" marker-end="url(#_345D9A36-D6C5-44F1-8C9F-9FF7D39DAFE4end)"/></g><text id="_345D9A36-D6C5-44F1-8C9F-9FF7D39DAFE4text_name" font-size="12" x="83.44972287317734" y="73.21676879736738" oryx:edgePosition="startTop" stroke-width="0pt" letter-spacing="-0.01px" fill="#000000" text-anchor="start" transform="rotate(52.27789532662581 69.44972287317734 87.21676879736738)" visibility="inherit" oryx:fontSize="12"/></g><g class="children" style="overflow:hidden"/><g class="edge"/></g><g class="controls"><g class="dockers"/><g class="magnets"/></g></g><g id="_D75DB57E-43BE-4F7E-9AC5-5AFF6D8468D5" bpmn2nodeid="_9916585A-9B52-4939-B368-C4BCBD3A8C23"><g class="stencils"><g class="me"><g pointer-events="painted" bpmn2nodeid="_18E9894E-FB9F-4ED6-9EA1-B939C61E4E32"><path id="_D75DB57E-43BE-4F7E-9AC5-5AFF6D8468D5_1" d="M380.13257337443093 144.45672142249802L436.56469225056907 89.215153577502 " stroke="#000000" fill="none" stroke-width="2" stroke-linecap="round" stroke-linejoin="round" marker-start="url(#_D75DB57E-43BE-4F7E-9AC5-5AFF6D8468D5start)" marker-end="url(#_D75DB57E-43BE-4F7E-9AC5-5AFF6D8468D5end)"/></g><text id="_D75DB57E-43BE-4F7E-9AC5-5AFF6D8468D5text_name" font-size="12" x="394.13257337443093" y="130.45672142249802" oryx:edgePosition="startTop" stroke-width="0pt" letter-spacing="-0.01px" fill="#000000" text-anchor="start" transform="rotate(315.61080606590207 380.13257337443093 144.45672142249802)" visibility="inherit" oryx:fontSize="12"/></g><g class="children" style="overflow:hidden"/><g class="edge"/></g><g class="controls"><g class="dockers"/><g class="magnets"/></g></g><g id="_7E60E0FE-D90B-4FFA-BC98-BD38E5BA98C7" bpmn2nodeid="_C54773BC-DA53-4F01-896D-661B3A27B385"><g class="stencils"><g class="me"><g pointer-events="painted" bpmn2nodeid="_63D7C5F1-1C38-42B8-BA11-544441C2890C"><path id="_7E60E0FE-D90B-4FFA-BC98-BD38E5BA98C7_1" d="M222.42173300272879 193.21216403937183L252.40639199727121 193.71752346062817 " stroke="#000000" fill="none" stroke-width="2" stroke-linecap="round" stroke-linejoin="round" marker-start="url(#_7E60E0FE-D90B-4FFA-BC98-BD38E5BA98C7start)" marker-end="url(#_7E60E0FE-D90B-4FFA-BC98-BD38E5BA98C7end)"/></g><text id="_7E60E0FE-D90B-4FFA-BC98-BD38E5BA98C7text_name" font-size="12" x="236.42173300272879" y="179.21216403937183" oryx:edgePosition="startTop" stroke-width="0pt" letter-spacing="-0.01px" fill="#000000" text-anchor="start" transform="rotate(0.9655677874009143 222.42173300272879 193.21216403937183)" visibility="inherit" oryx:fontSize="12"/></g><g class="children" style="overflow:hidden"/><g class="edge"/></g><g class="controls"><g class="dockers"/><g class="magnets"/></g></g></g><text id="_66B42410-B818-41B8-9B12-F995A5F35475" style="stroke-width:1;fill:rgb(177,194,214);font-family:arial;font-weight:bold" font-size="12" onclick="ORYX.Plugins.CanvasTitle.openTextualAnalysis()" onmouseover="ORYX.Plugins.CanvasTitle.addToolTip('_66B42410-B818-41B8-9B12-F995A5F35475')" transform="translate(10, 20)">MI_MainSub_CheckIncomeReasonableCompatability v.1.0 (hx-eligibility-bareform.MI_MainSub_CheckIncomeReasonableCompatability)</text></g></g></svg>