<svg xmlns="http://www.w3.org/2000/svg" xmlns:oryx="http://oryx-editor.org" id="_57083D9B-0C4F-42F4-9AD2-B5CC47595D3B" width="673.0313110351562" height="300.65625" xmlns:xlink="http://www.w3.org/1999/xlink" xmlns:svg="http://www.w3.org/2000/svg"><defs><marker id="_B5099C2D-5993-4051-B9D1-76B873C55325start" refX="1" refY="5" markerUnits="userSpaceOnUse" markerWidth="17" markerHeight="11" orient="auto" fill="#000000" stroke="#000000"> 	  		<path id="_B5099C2D-5993-4051-B9D1-76B873C55325conditional" d="M 0 5 L 8 0 L 16 5 L 8 10 L 0 5" fill="white" stroke="#000000" stroke-width="1" display="none"/> 			<path id="_B5099C2D-5993-4051-B9D1-76B873C55325default" d="M 5 0 L 11 10" fill="white" stroke="#000000" stroke-width="1" display="none"/> 	  	</marker><marker id="_B5099C2D-5993-4051-B9D1-76B873C55325end" refX="15" refY="6" markerUnits="userSpaceOnUse" markerWidth="15" markerHeight="12" orient="auto" fill="#000000" stroke="#000000"> 	  		<path id="_B5099C2D-5993-4051-B9D1-76B873C55325frame2" d="M 0 1 L 15 6 L 0 11z" fill="#000000" stroke="#000000" stroke-linejoin="round" stroke-width="2"/> 	  	</marker><marker id="_090F8EBF-FF43-4919-BFCB-EB341C449D5Astart" refX="1" refY="5" markerUnits="userSpaceOnUse" markerWidth="17" markerHeight="11" orient="auto" fill="#000000" stroke="#000000"> 	  		<path id="_090F8EBF-FF43-4919-BFCB-EB341C449D5Aconditional" d="M 0 5 L 8 0 L 16 5 L 8 10 L 0 5" fill="white" stroke="#000000" stroke-width="1" display="none"/> 			<path id="_090F8EBF-FF43-4919-BFCB-EB341C449D5Adefault" d="M 5 0 L 11 10" fill="white" stroke="#000000" stroke-width="1" display="none"/> 	  	</marker><marker id="_090F8EBF-FF43-4919-BFCB-EB341C449D5Aend" refX="15" refY="6" markerUnits="userSpaceOnUse" markerWidth="15" markerHeight="12" orient="auto" fill="#000000" stroke="#000000"> 	  		<path id="_090F8EBF-FF43-4919-BFCB-EB341C449D5Aframe2" d="M 0 1 L 15 6 L 0 11z" fill="#000000" stroke="#000000" stroke-linejoin="round" stroke-width="2"/> 	  	</marker><marker id="_E3BE5EF6-4779-4D68-B4F6-1CC4C2612498start" refX="1" refY="5" markerUnits="userSpaceOnUse" markerWidth="17" markerHeight="11" orient="auto" fill="#000000" stroke="#000000"> 	  		<path id="_E3BE5EF6-4779-4D68-B4F6-1CC4C2612498conditional" d="M 0 5 L 8 0 L 16 5 L 8 10 L 0 5" fill="white" stroke="#000000" stroke-width="1" display="none"/> 			<path id="_E3BE5EF6-4779-4D68-B4F6-1CC4C2612498default" d="M 5 0 L 11 10" fill="white" stroke="#000000" stroke-width="1" display="none"/> 	  	</marker><marker id="_E3BE5EF6-4779-4D68-B4F6-1CC4C2612498end" refX="15" refY="6" markerUnits="userSpaceOnUse" markerWidth="15" markerHeight="12" orient="auto" fill="#000000" stroke="#000000"> 	  		<path id="_E3BE5EF6-4779-4D68-B4F6-1CC4C2612498frame2" d="M 0 1 L 15 6 L 0 11z" fill="#000000" stroke="#000000" stroke-linejoin="round" stroke-width="2"/> 	  	</marker></defs><g stroke="none" font-family="Verdana, sans-serif" font-size-adjust="none" font-style="normal" font-variant="normal" font-weight="normal" line-heigth="normal" font-size="12"><g class="stencils" transform="translate(14.999999046325684, 15.656249046325684)"><g class="me"/><g class="children"><g id="_FCDBAED4-F5E7-4034-AA8E-3F4B0FB3E04B" bpmn2nodeid="_63DC89BE-59D5-4386-AD43-C500BCF49C62"><g class="stencils" transform="translate(64, 133)"><g class="me"><g pointer-events="fill" id="_FCDBAED4-F5E7-4034-AA8E-3F4B0FB3E04B">        <defs id="_FCDBAED4-F5E7-4034-AA8E-3F4B0FB3E04B__FCDBAED4-F5E7-4034-AA8E-3F4B0FB3E04B_5"> 		<radialGradient id="_FCDBAED4-F5E7-4034-AA8E-3F4B0FB3E04Bbackground" cx="10%" cy="10%" r="100%" fx="10%" fy="10%"> 			<stop offset="0%" stop-color="#ffffff" stop-opacity="1" id="_FCDBAED4-F5E7-4034-AA8E-3F4B0FB3E04B__FCDBAED4-F5E7-4034-AA8E-3F4B0FB3E04B_6"/> 			<stop id="_FCDBAED4-F5E7-4034-AA8E-3F4B0FB3E04Bfill_el" offset="100%" stop-color="#9acd32" stop-opacity="1"/> 		</radialGradient> 	</defs> 	     <circle id="_FCDBAED4-F5E7-4034-AA8E-3F4B0FB3E04Bbg_frame" cx="15" cy="15" r="15" stroke="#000000" fill="url(#_FCDBAED4-F5E7-4034-AA8E-3F4B0FB3E04Bbackground) white" stroke-width="1" style="stroke-dasharray: 5.5, 3"/>      <circle id="_FCDBAED4-F5E7-4034-AA8E-3F4B0FB3E04Bframe" cx="15" cy="15" r="15" stroke="#000000" fill="none" stroke-width="1" display="none"/>  	<text font-size="11" id="_FCDBAED4-F5E7-4034-AA8E-3F4B0FB3E04Btext_name" x="15" y="32" oryx:align="top center" stroke="black" stroke-width="0pt" letter-spacing="-0.01px" fill="#000000" text-anchor="middle" transform="rotate(0 15 32)" visibility="inherit" oryx:fontSize="11"><tspan x="15" y="32" dy="11">Start</tspan></text>   </g></g><g class="children" style="overflow:hidden"/><g class="edge"/></g><g class="controls"><g class="dockers"/><g class="magnets" transform="translate(64, 133)"><g pointer-events="all" display="none" transform="translate(7, 7)"><circle cx="8" cy="8" r="4" stroke="none" fill="red" fill-opacity="0.3"/></g></g></g></g><g id="_35254E5B-5C26-4966-B71A-98C211ED7495" bpmn2nodeid="_9D6F815E-B1E5-4E99-8CE9-3B35F21B4FB1"><g class="stencils" transform="translate(336, 132)"><g class="me"><g pointer-events="fill" id="_35254E5B-5C26-4966-B71A-98C211ED7495">       <defs id="_35254E5B-5C26-4966-B71A-98C211ED7495__35254E5B-5C26-4966-B71A-98C211ED7495_5"> 		<radialGradient id="_35254E5B-5C26-4966-B71A-98C211ED7495background" cx="10%" cy="10%" r="100%" fx="10%" fy="10%"> 			<stop offset="0%" stop-color="#ffffff" stop-opacity="1" id="_35254E5B-5C26-4966-B71A-98C211ED7495__35254E5B-5C26-4966-B71A-98C211ED7495_6"/> 			<stop id="_35254E5B-5C26-4966-B71A-98C211ED7495fill_el" offset="100%" stop-color="#ff6347" stop-opacity="1"/> 		</radialGradient> 		<radialGradient id="_35254E5B-5C26-4966-B71A-98C211ED7495borderbackground" cx="10%" cy="10%" r="100%" fx="10%" fy="10%"> 			<stop offset="0%" stop-color="#ffffff" stop-opacity="1" id="_35254E5B-5C26-4966-B71A-98C211ED7495__35254E5B-5C26-4966-B71A-98C211ED7495_7"/> 			<stop id="_35254E5B-5C26-4966-B71A-98C211ED7495fill_border" offset="100%" stop-color="#000000" stop-opacity="1" stroke="#000000"/> 		</radialGradient> 	</defs> 	     <circle id="_35254E5B-5C26-4966-B71A-98C211ED7495bg_frame" cx="14" cy="14" r="14" stroke="#000000" fill="url(#_35254E5B-5C26-4966-B71A-98C211ED7495background) white" stroke-width="3"/>          <circle id="_35254E5B-5C26-4966-B71A-98C211ED7495frame" cx="14" cy="14" r="9" stroke="#000000" fill="url(#_35254E5B-5C26-4966-B71A-98C211ED7495borderbackground)" stroke-width="1"/> 	<text font-size="11" id="_35254E5B-5C26-4966-B71A-98C211ED7495text_name" x="14" y="30" oryx:align="top center" stroke="black" stroke-width="0pt" letter-spacing="-0.01px" fill="#000000" text-anchor="middle" transform="rotate(0 14 30)" visibility="inherit" oryx:fontSize="11"><tspan x="14" y="30" dy="11">End</tspan></text>   </g></g><g class="children" style="overflow:hidden"/><g class="edge"/></g><g class="controls"><g class="dockers"/><g class="magnets" transform="translate(336, 132)"><g pointer-events="all" display="none" transform="translate(6, 6)"><circle cx="8" cy="8" r="4" stroke="none" fill="red" fill-opacity="0.3"/></g></g></g></g><g id="_930A4753-98DF-4FEF-8682-F4EAFDF1CFE7" bpmn2nodeid="_4BE6D090-1304-4B6D-84DE-5771B9ABB0EC"><g class="stencils" transform="translate(254, 208)"><g class="me"><g pointer-events="fill" oryx:minimumSize="50 40" id="_930A4753-98DF-4FEF-8682-F4EAFDF1CFE7">   	<defs id="_930A4753-98DF-4FEF-8682-F4EAFDF1CFE7__930A4753-98DF-4FEF-8682-F4EAFDF1CFE7_17"> 		<radialGradient id="_930A4753-98DF-4FEF-8682-F4EAFDF1CFE7background" cx="10%" cy="10%" r="100%" fx="10%" fy="10%"> 			<stop offset="0%" stop-color="#ffffff" stop-opacity="1" id="_930A4753-98DF-4FEF-8682-F4EAFDF1CFE7__930A4753-98DF-4FEF-8682-F4EAFDF1CFE7_18"/> 			<stop id="_930A4753-98DF-4FEF-8682-F4EAFDF1CFE7fill_el" offset="100%" stop-color="#fafad2" stop-opacity="1"/> 		</radialGradient> 		<radialGradient id="_930A4753-98DF-4FEF-8682-F4EAFDF1CFE7borderbackground" cx="10%" cy="10%" r="100%" fx="10%" fy="10%"> 			<stop offset="0%" stop-color="#ffffff" stop-opacity="1" id="_930A4753-98DF-4FEF-8682-F4EAFDF1CFE7__930A4753-98DF-4FEF-8682-F4EAFDF1CFE7_19"/> 			<stop id="_930A4753-98DF-4FEF-8682-F4EAFDF1CFE7fill_border" offset="100%" stop-color="#000000" stop-opacity="1" stroke="#000000"/> 		</radialGradient> 	</defs> 	 	<rect id="_930A4753-98DF-4FEF-8682-F4EAFDF1CFE7text_frame" oryx:anchors="bottom top right left" x="1" y="1" width="74" height="47" rx="10" ry="10" stroke="none" stroke-width="0" fill="none"/> 	<rect id="_930A4753-98DF-4FEF-8682-F4EAFDF1CFE7bg_frame" oryx:resize="vertical horizontal" x="0" y="0" width="80" height="48" rx="10" ry="10" stroke="#000000" stroke-width="1" fill="url(#_930A4753-98DF-4FEF-8682-F4EAFDF1CFE7background) #ffffcc"/> 		<text font-size="12" id="_930A4753-98DF-4FEF-8682-F4EAFDF1CFE7text_name" x="40" y="24" oryx:align="middle center" oryx:fittoelem="text_frame" stroke="black" text-anchor="middle" stroke-width="0pt" letter-spacing="-0.01px" fill="#000000" transform="rotate(0 40 24)" visibility="inherit" oryx:fontSize="12"><tspan x="40" y="24" dy="-7">Rule_Incom</tspan><tspan x="40" y="24" dy="5" id="ext-gen757">eTypeDeter</tspan><tspan x="40" y="24" dy="17" id="ext-gen744">mination</tspan></text>     <g id="_930A4753-98DF-4FEF-8682-F4EAFDF1CFE7manualTask" transform="scale(0.7,0.7) translate(8,8)" display="none">     	<path oryx:anchors="top left" id="_930A4753-98DF-4FEF-8682-F4EAFDF1CFE7frame" style="opacity:1;fill:none;fill-opacity:1;stroke-width:1" d="M0.5,3.751l4.083-3.25c0,0,11.166,0.083,12.083,0.083s-2.417,2.917-1.5,2.917     s11.667,0,12.584,0c1.166,1.708-0.168,3.167-0.834,3.667s0.875,1.917-1,4.417c-0.75,0.25,0.75,1.875-1.333,3.333     c-1.167,0.583,0.583,1.542-1.25,2.833c-1.167,0-20.833,0.083-20.833,0.083l-2-1.333V3.751z" stroke="#000000"/> 		<path id="_930A4753-98DF-4FEF-8682-F4EAFDF1CFE7frame2" oryx:anchors="top left" style="opacity:1;fill:none;stroke-width:2" d="M 13.5 7 L 27 7" stroke="#000000"/> 		<path id="_930A4753-98DF-4FEF-8682-F4EAFDF1CFE7frame3" oryx:anchors="top left" style="opacity:1;fill:none;stroke-width:2" d="M 13.5 11 L 26 11" stroke="#000000"/> 		<path id="_930A4753-98DF-4FEF-8682-F4EAFDF1CFE7frame4" oryx:anchors="top left" style="opacity:1;fill:none;stroke-width:1.5" d="M 14 14.5 L 25 14.5" stroke="#000000"/> 		<path id="_930A4753-98DF-4FEF-8682-F4EAFDF1CFE7frame5" oryx:anchors="top left" style="opacity:1;fill:none;stroke-width:1.5" d="M 8.2 3.1 L 15 3.1" stroke="#000000"/> 	</g> 	 	<g id="_930A4753-98DF-4FEF-8682-F4EAFDF1CFE7businessRuleTask" transform="scale(0.7,0.7) translate(8,8)" display="inherit"> 		<rect id="_930A4753-98DF-4FEF-8682-F4EAFDF1CFE7frame6" oryx:anchors="top left" x="0" y="0" width="22" height="4" style="opacity:1;fill:#B3B1B3;fill-opacity:1;" stroke="#000000"/> 		<rect id="_930A4753-98DF-4FEF-8682-F4EAFDF1CFE7frame7" oryx:anchors="top left" x="0" y="4" style="opacity:1;fill:none;" width="22" height="12" stroke="#000000"/> 		<path id="_930A4753-98DF-4FEF-8682-F4EAFDF1CFE7frame8" oryx:anchors="top left" style="opacity:1;fill:none;" d="M 0 10 L 22 10" stroke="#000000"/> 		<path id="_930A4753-98DF-4FEF-8682-F4EAFDF1CFE7frame9" oryx:anchors="top left" style="opacity:1; fill:none;" d="M 7 4 L 7 16" stroke="#000000"/> 	</g> 	 	<g id="_930A4753-98DF-4FEF-8682-F4EAFDF1CFE7scriptTask" transform="scale(0.7,0.7) translate(8,8)" display="none"> 		<path oryx:anchors="top left" id="_930A4753-98DF-4FEF-8682-F4EAFDF1CFE7frame10" style="opacity:1;fill:none;" stroke="#000000" d="M6.402,0.5h14.5c0,0-5.833,2.833-5.833,5.583s4.417,6,4.417,9.167    s-4.167,5.083-4.167,5.083H0.235c0,0,5-2.667,5-5s-4.583-6.75-4.583-9.25S6.402,0.5,6.402,0.5z"/> 		<path oryx:anchors="top left" id="_930A4753-98DF-4FEF-8682-F4EAFDF1CFE7frame11" style="opacity:1;fill:none;stroke-width:1.5" d="M 3.5 4.5 L 13.5 4.5" stroke="#000000"/> 		<path oryx:anchors="top left" id="_930A4753-98DF-4FEF-8682-F4EAFDF1CFE7frame12" style="opacity:1;fill:none;stroke-width:1.5" d="M 3.8 8.5 L 13.8 8.5" stroke="#000000"/> 		<path oryx:anchors="top left" id="_930A4753-98DF-4FEF-8682-F4EAFDF1CFE7frame13" style="opacity:1;fill:none;stroke-width:1.5" d="M 6.3 12.5 L 16.3 12.5" stroke="#000000"/> 		<path oryx:anchors="top left" id="_930A4753-98DF-4FEF-8682-F4EAFDF1CFE7frame14" style="opacity:1;fill:none;stroke-width:1.5" d="M 6.5 16.5 L 16.5 16.5" stroke="#000000"/> 	</g> 	 	<g id="_930A4753-98DF-4FEF-8682-F4EAFDF1CFE7userTask" transform="scale(0.7,0.7) translate(8,8)" display="none"> 		<path id="_930A4753-98DF-4FEF-8682-F4EAFDF1CFE7frame15" oryx:anchors="top left" style="opacity:1;fill:#F4F6F7" stroke="#000000" d="M0.585,24.167h24.083v-7.833c0,0-2.333-3.917-7.083-5.167h-9.25    c-4.417,1.333-7.833,5.75-7.833,5.75L0.585,24.167z"/> 		<path id="_930A4753-98DF-4FEF-8682-F4EAFDF1CFE7frame16" oryx:anchors="top left" style="opacity:1;fill:none" d="M 6 20 L 6 24" stroke="#000000"/> 		<path id="_930A4753-98DF-4FEF-8682-F4EAFDF1CFE7frame17" oryx:anchors="top left" style="opacity:1;fill:none" d="M 20 20 L 20 24" stroke="#000000"/> 		<circle id="_930A4753-98DF-4FEF-8682-F4EAFDF1CFE7frame18" oryx:anchors="top left" fill="black" cx="13.002" cy="5.916" r="5.417" stroke="#000000"/> 		<path id="_930A4753-98DF-4FEF-8682-F4EAFDF1CFE7frame19" oryx:anchors="top left" style="opacity:1;fill:#F0EFF0;" stroke="#000000" d="M8.043,7.083c0,0,2.814-2.426,5.376-1.807s4.624-0.693,4.624-0.693    c0.25,1.688,0.042,3.75-1.458,5.584c0,0,1.083,0.75,1.083,1.5s0.125,1.875-1,3s-5.5,1.25-6.75,0S8.668,12.834,8.668,12    s0.583-1.25,1.25-1.917C8.835,9.5,7.419,7.708,8.043,7.083z"/> 	</g> 	 	<g id="_930A4753-98DF-4FEF-8682-F4EAFDF1CFE7serviceTask" transform="scale(0.7,0.7) translate(8,8)" display="none"> 		<polygon oryx:anchors="top left" id="_930A4753-98DF-4FEF-8682-F4EAFDF1CFE7frame20" style="opacity:1;fill:#ffffff" stroke="#000000" points="15.392,5.064 17.954,2.502 20.347,4.895 17.786,7.455     18.729,9.732 22.353,9.732 22.353,13.115 18.731,13.115 17.788,15.392 20.351,17.955 17.958,20.347 15.397,17.786 13.12,18.729     13.12,22.353 9.737,22.353 9.737,18.731 7.46,17.788 4.897,20.35 2.506,17.958 5.066,15.397 4.124,13.12 0.5,13.12 0.5,9.737     4.121,9.737 5.065,7.461 2.503,4.898 4.895,2.506 7.455,5.066 9.732,4.125 9.732,0.5 13.116,0.5 13.116,4.121 "/> 		<circle oryx:anchors="top left" id="_930A4753-98DF-4FEF-8682-F4EAFDF1CFE7frame21" style="opacity:1;fill:none" stroke="#000000" cx="11.427" cy="11.426" r="3.714"/> 		<polygon oryx:anchors="top left" id="_930A4753-98DF-4FEF-8682-F4EAFDF1CFE7frame22" style="opacity:1;fill:#ffffff" stroke="#000000" points="21.392,11.064 23.954,8.502 26.347,10.895 23.786,13.455     24.729,15.732 28.353,15.732 28.353,19.115 24.731,19.115 23.788,21.392 26.351,23.955 23.958,26.347 21.397,23.786 19.12,24.729     19.12,28.353 15.737,28.353 15.737,24.731 13.46,23.788 10.897,26.35 8.506,23.958 11.066,21.397 10.124,19.12 6.5,19.12     6.5,15.737 10.121,15.737 11.065,13.461 8.503,10.898 10.895,8.506 13.455,11.066 15.732,10.125 15.732,6.5 19.116,6.5     19.116,10.121 "/> 		<circle oryx:anchors="top left" id="_930A4753-98DF-4FEF-8682-F4EAFDF1CFE7frame23" style="opacity:1;fill:none;" stroke="#000000" cx="17.427" cy="17.426" r="3.714"/> 	</g> 	 	<g id="_930A4753-98DF-4FEF-8682-F4EAFDF1CFE7sendTask" display="none"> 		<path id="_930A4753-98DF-4FEF-8682-F4EAFDF1CFE7stframe24" oryx:anchors="left top" stroke="#FFFFFF" fill="black" stroke-width="1" d="M8,11 L8,21 L24,21 L24,11 L16,17z"/> 		<path id="_930A4753-98DF-4FEF-8682-F4EAFDF1CFE7stframe25" oryx:anchors="left top" stroke="#FFFFFF" fill="black" stroke-width="1" d="M7,10 L16,17 L25 10z"/> 	</g> 	 	<g id="_930A4753-98DF-4FEF-8682-F4EAFDF1CFE7receiveTask" display="none"> 		<path id="_930A4753-98DF-4FEF-8682-F4EAFDF1CFE7frame26" oryx:anchors="left top" stroke="#000000" fill="none" stroke-width="1" d="M8,11 L8,21 L24,21 L24,11z M8,11 L16,17 L24,11"/> 	</g> 	 	<g id="_930A4753-98DF-4FEF-8682-F4EAFDF1CFE7none" display="inherit"/>  	<g id="_930A4753-98DF-4FEF-8682-F4EAFDF1CFE7sequential" display="none">         <path oryx:anchors="bottom" fill="none" stroke="#000000" stroke-width="2" d=" M35.800000000000004 44  h10  M35.800000000000004 40  h10  M35.800000000000004 36  h10 " id="_930A4753-98DF-4FEF-8682-F4EAFDF1CFE7__930A4753-98DF-4FEF-8682-F4EAFDF1CFE7_20"/>     </g>   </g></g><g class="children" style="overflow:hidden"/><g class="edge"/></g><g class="controls"><g class="dockers"/><g class="magnets" transform="translate(254, 208)"><g pointer-events="all" display="none" transform="translate(-7, 4)"><circle cx="8" cy="8" r="4" stroke="none" fill="red" fill-opacity="0.3"/></g><g pointer-events="all" display="none" transform="translate(-7, 16)"><circle cx="8" cy="8" r="4" stroke="none" fill="red" fill-opacity="0.3"/></g><g pointer-events="all" display="none" transform="translate(-7, 28)"><circle cx="8" cy="8" r="4" stroke="none" fill="red" fill-opacity="0.3"/></g><g pointer-events="all" display="none" transform="translate(12, 39)"><circle cx="8" cy="8" r="4" stroke="none" fill="red" fill-opacity="0.3"/></g><g pointer-events="all" display="none" transform="translate(32, 39)"><circle cx="8" cy="8" r="4" stroke="none" fill="red" fill-opacity="0.3"/></g><g pointer-events="all" display="none" transform="translate(52, 39)"><circle cx="8" cy="8" r="4" stroke="none" fill="red" fill-opacity="0.3"/></g><g pointer-events="all" display="none" transform="translate(71, 4)"><circle cx="8" cy="8" r="4" stroke="none" fill="red" fill-opacity="0.3"/></g><g pointer-events="all" display="none" transform="translate(71, 16)"><circle cx="8" cy="8" r="4" stroke="none" fill="red" fill-opacity="0.3"/></g><g pointer-events="all" display="none" transform="translate(71, 28)"><circle cx="8" cy="8" r="4" stroke="none" fill="red" fill-opacity="0.3"/></g><g pointer-events="all" display="none" transform="translate(12, -7)"><circle cx="8" cy="8" r="4" stroke="none" fill="red" fill-opacity="0.3"/></g><g pointer-events="all" display="none" transform="translate(32, -7)"><circle cx="8" cy="8" r="4" stroke="none" fill="red" fill-opacity="0.3"/></g><g pointer-events="all" display="none" transform="translate(52, -7)"><circle cx="8" cy="8" r="4" stroke="none" fill="red" fill-opacity="0.3"/></g><g pointer-events="all" display="none" transform="translate(32, 16)"><circle cx="8" cy="8" r="4" stroke="none" fill="red" fill-opacity="0.3"/></g></g></g></g><g id="_E14538CC-BD53-42CE-B086-39A7201676B2" bpmn2nodeid="_C997FD90-4FD7-423D-8FC1-E5B67FADC54B"><g class="stencils" transform="translate(141, 209)"><g class="me"><g pointer-events="fill" oryx:minimumSize="50 40" id="_E14538CC-BD53-42CE-B086-39A7201676B2">   	<defs id="_E14538CC-BD53-42CE-B086-39A7201676B2__E14538CC-BD53-42CE-B086-39A7201676B2_17"> 		<radialGradient id="_E14538CC-BD53-42CE-B086-39A7201676B2background" cx="10%" cy="10%" r="100%" fx="10%" fy="10%"> 			<stop offset="0%" stop-color="#ffffff" stop-opacity="1" id="_E14538CC-BD53-42CE-B086-39A7201676B2__E14538CC-BD53-42CE-B086-39A7201676B2_18"/> 			<stop id="_E14538CC-BD53-42CE-B086-39A7201676B2fill_el" offset="100%" stop-color="#fafad2" stop-opacity="1"/> 		</radialGradient> 		<radialGradient id="_E14538CC-BD53-42CE-B086-39A7201676B2borderbackground" cx="10%" cy="10%" r="100%" fx="10%" fy="10%"> 			<stop offset="0%" stop-color="#ffffff" stop-opacity="1" id="_E14538CC-BD53-42CE-B086-39A7201676B2__E14538CC-BD53-42CE-B086-39A7201676B2_19"/> 			<stop id="_E14538CC-BD53-42CE-B086-39A7201676B2fill_border" offset="100%" stop-color="#000000" stop-opacity="1" stroke="#000000"/> 		</radialGradient> 	</defs> 	 	<rect id="_E14538CC-BD53-42CE-B086-39A7201676B2text_frame" oryx:anchors="bottom top right left" x="1" y="1" width="74" height="47" rx="10" ry="10" stroke="none" stroke-width="0" fill="none"/> 	<rect id="_E14538CC-BD53-42CE-B086-39A7201676B2bg_frame" oryx:resize="vertical horizontal" x="0" y="0" width="80" height="48" rx="10" ry="10" stroke="#000000" stroke-width="1" fill="url(#_E14538CC-BD53-42CE-B086-39A7201676B2background) #ffffcc"/> 		<text font-size="12" id="_E14538CC-BD53-42CE-B086-39A7201676B2text_name" x="40" y="24" oryx:align="middle center" oryx:fittoelem="text_frame" stroke="black" text-anchor="middle" stroke-width="0pt" letter-spacing="-0.01px" fill="#000000" transform="rotate(0 40 24)" visibility="inherit" oryx:fontSize="12"><tspan x="40" y="24" dy="-7">Rule_Incom</tspan><tspan x="40" y="24" dy="5" id="ext-gen603">eTypeDeter</tspan><tspan x="40" y="24" dy="17" id="ext-gen602">mination</tspan></text>     <g id="_E14538CC-BD53-42CE-B086-39A7201676B2manualTask" transform="scale(0.7,0.7) translate(8,8)" display="none">     	<path oryx:anchors="top left" id="_E14538CC-BD53-42CE-B086-39A7201676B2frame" style="opacity:1;fill:none;fill-opacity:1;stroke-width:1" d="M0.5,3.751l4.083-3.25c0,0,11.166,0.083,12.083,0.083s-2.417,2.917-1.5,2.917     s11.667,0,12.584,0c1.166,1.708-0.168,3.167-0.834,3.667s0.875,1.917-1,4.417c-0.75,0.25,0.75,1.875-1.333,3.333     c-1.167,0.583,0.583,1.542-1.25,2.833c-1.167,0-20.833,0.083-20.833,0.083l-2-1.333V3.751z" stroke="#000000"/> 		<path id="_E14538CC-BD53-42CE-B086-39A7201676B2frame2" oryx:anchors="top left" style="opacity:1;fill:none;stroke-width:2" d="M 13.5 7 L 27 7" stroke="#000000"/> 		<path id="_E14538CC-BD53-42CE-B086-39A7201676B2frame3" oryx:anchors="top left" style="opacity:1;fill:none;stroke-width:2" d="M 13.5 11 L 26 11" stroke="#000000"/> 		<path id="_E14538CC-BD53-42CE-B086-39A7201676B2frame4" oryx:anchors="top left" style="opacity:1;fill:none;stroke-width:1.5" d="M 14 14.5 L 25 14.5" stroke="#000000"/> 		<path id="_E14538CC-BD53-42CE-B086-39A7201676B2frame5" oryx:anchors="top left" style="opacity:1;fill:none;stroke-width:1.5" d="M 8.2 3.1 L 15 3.1" stroke="#000000"/> 	</g> 	 	<g id="_E14538CC-BD53-42CE-B086-39A7201676B2businessRuleTask" transform="scale(0.7,0.7) translate(8,8)" display="none"> 		<rect id="_E14538CC-BD53-42CE-B086-39A7201676B2frame6" oryx:anchors="top left" x="0" y="0" width="22" height="4" style="opacity:1;fill:#B3B1B3;fill-opacity:1;" stroke="#000000"/> 		<rect id="_E14538CC-BD53-42CE-B086-39A7201676B2frame7" oryx:anchors="top left" x="0" y="4" style="opacity:1;fill:none;" width="22" height="12" stroke="#000000"/> 		<path id="_E14538CC-BD53-42CE-B086-39A7201676B2frame8" oryx:anchors="top left" style="opacity:1;fill:none;" d="M 0 10 L 22 10" stroke="#000000"/> 		<path id="_E14538CC-BD53-42CE-B086-39A7201676B2frame9" oryx:anchors="top left" style="opacity:1; fill:none;" d="M 7 4 L 7 16" stroke="#000000"/> 	</g> 	 	<g id="_E14538CC-BD53-42CE-B086-39A7201676B2scriptTask" transform="scale(0.7,0.7) translate(8,8)" display="inherit"> 		<path oryx:anchors="top left" id="_E14538CC-BD53-42CE-B086-39A7201676B2frame10" style="opacity:1;fill:none;" stroke="#000000" d="M6.402,0.5h14.5c0,0-5.833,2.833-5.833,5.583s4.417,6,4.417,9.167    s-4.167,5.083-4.167,5.083H0.235c0,0,5-2.667,5-5s-4.583-6.75-4.583-9.25S6.402,0.5,6.402,0.5z"/> 		<path oryx:anchors="top left" id="_E14538CC-BD53-42CE-B086-39A7201676B2frame11" style="opacity:1;fill:none;stroke-width:1.5" d="M 3.5 4.5 L 13.5 4.5" stroke="#000000"/> 		<path oryx:anchors="top left" id="_E14538CC-BD53-42CE-B086-39A7201676B2frame12" style="opacity:1;fill:none;stroke-width:1.5" d="M 3.8 8.5 L 13.8 8.5" stroke="#000000"/> 		<path oryx:anchors="top left" id="_E14538CC-BD53-42CE-B086-39A7201676B2frame13" style="opacity:1;fill:none;stroke-width:1.5" d="M 6.3 12.5 L 16.3 12.5" stroke="#000000"/> 		<path oryx:anchors="top left" id="_E14538CC-BD53-42CE-B086-39A7201676B2frame14" style="opacity:1;fill:none;stroke-width:1.5" d="M 6.5 16.5 L 16.5 16.5" stroke="#000000"/> 	</g> 	 	<g id="_E14538CC-BD53-42CE-B086-39A7201676B2userTask" transform="scale(0.7,0.7) translate(8,8)" display="none"> 		<path id="_E14538CC-BD53-42CE-B086-39A7201676B2frame15" oryx:anchors="top left" style="opacity:1;fill:#F4F6F7" stroke="#000000" d="M0.585,24.167h24.083v-7.833c0,0-2.333-3.917-7.083-5.167h-9.25    c-4.417,1.333-7.833,5.75-7.833,5.75L0.585,24.167z"/> 		<path id="_E14538CC-BD53-42CE-B086-39A7201676B2frame16" oryx:anchors="top left" style="opacity:1;fill:none" d="M 6 20 L 6 24" stroke="#000000"/> 		<path id="_E14538CC-BD53-42CE-B086-39A7201676B2frame17" oryx:anchors="top left" style="opacity:1;fill:none" d="M 20 20 L 20 24" stroke="#000000"/> 		<circle id="_E14538CC-BD53-42CE-B086-39A7201676B2frame18" oryx:anchors="top left" fill="black" cx="13.002" cy="5.916" r="5.417" stroke="#000000"/> 		<path id="_E14538CC-BD53-42CE-B086-39A7201676B2frame19" oryx:anchors="top left" style="opacity:1;fill:#F0EFF0;" stroke="#000000" d="M8.043,7.083c0,0,2.814-2.426,5.376-1.807s4.624-0.693,4.624-0.693    c0.25,1.688,0.042,3.75-1.458,5.584c0,0,1.083,0.75,1.083,1.5s0.125,1.875-1,3s-5.5,1.25-6.75,0S8.668,12.834,8.668,12    s0.583-1.25,1.25-1.917C8.835,9.5,7.419,7.708,8.043,7.083z"/> 	</g> 	 	<g id="_E14538CC-BD53-42CE-B086-39A7201676B2serviceTask" transform="scale(0.7,0.7) translate(8,8)" display="none"> 		<polygon oryx:anchors="top left" id="_E14538CC-BD53-42CE-B086-39A7201676B2frame20" style="opacity:1;fill:#ffffff" stroke="#000000" points="15.392,5.064 17.954,2.502 20.347,4.895 17.786,7.455     18.729,9.732 22.353,9.732 22.353,13.115 18.731,13.115 17.788,15.392 20.351,17.955 17.958,20.347 15.397,17.786 13.12,18.729     13.12,22.353 9.737,22.353 9.737,18.731 7.46,17.788 4.897,20.35 2.506,17.958 5.066,15.397 4.124,13.12 0.5,13.12 0.5,9.737     4.121,9.737 5.065,7.461 2.503,4.898 4.895,2.506 7.455,5.066 9.732,4.125 9.732,0.5 13.116,0.5 13.116,4.121 "/> 		<circle oryx:anchors="top left" id="_E14538CC-BD53-42CE-B086-39A7201676B2frame21" style="opacity:1;fill:none" stroke="#000000" cx="11.427" cy="11.426" r="3.714"/> 		<polygon oryx:anchors="top left" id="_E14538CC-BD53-42CE-B086-39A7201676B2frame22" style="opacity:1;fill:#ffffff" stroke="#000000" points="21.392,11.064 23.954,8.502 26.347,10.895 23.786,13.455     24.729,15.732 28.353,15.732 28.353,19.115 24.731,19.115 23.788,21.392 26.351,23.955 23.958,26.347 21.397,23.786 19.12,24.729     19.12,28.353 15.737,28.353 15.737,24.731 13.46,23.788 10.897,26.35 8.506,23.958 11.066,21.397 10.124,19.12 6.5,19.12     6.5,15.737 10.121,15.737 11.065,13.461 8.503,10.898 10.895,8.506 13.455,11.066 15.732,10.125 15.732,6.5 19.116,6.5     19.116,10.121 "/> 		<circle oryx:anchors="top left" id="_E14538CC-BD53-42CE-B086-39A7201676B2frame23" style="opacity:1;fill:none;" stroke="#000000" cx="17.427" cy="17.426" r="3.714"/> 	</g> 	 	<g id="_E14538CC-BD53-42CE-B086-39A7201676B2sendTask" display="none"> 		<path id="_E14538CC-BD53-42CE-B086-39A7201676B2stframe24" oryx:anchors="left top" stroke="#FFFFFF" fill="black" stroke-width="1" d="M8,11 L8,21 L24,21 L24,11 L16,17z"/> 		<path id="_E14538CC-BD53-42CE-B086-39A7201676B2stframe25" oryx:anchors="left top" stroke="#FFFFFF" fill="black" stroke-width="1" d="M7,10 L16,17 L25 10z"/> 	</g> 	 	<g id="_E14538CC-BD53-42CE-B086-39A7201676B2receiveTask" display="none"> 		<path id="_E14538CC-BD53-42CE-B086-39A7201676B2frame26" oryx:anchors="left top" stroke="#000000" fill="none" stroke-width="1" d="M8,11 L8,21 L24,21 L24,11z M8,11 L16,17 L24,11"/> 	</g> 	 	<g id="_E14538CC-BD53-42CE-B086-39A7201676B2none" display="inherit"/>  	<g id="_E14538CC-BD53-42CE-B086-39A7201676B2sequential" display="none">         <path oryx:anchors="bottom" fill="none" stroke="#000000" stroke-width="2" d=" M35.800000000000004 44  h10  M35.800000000000004 40  h10  M35.800000000000004 36  h10 " id="_E14538CC-BD53-42CE-B086-39A7201676B2__E14538CC-BD53-42CE-B086-39A7201676B2_20"/>     </g>   </g></g><g class="children" style="overflow:hidden"/><g class="edge"/></g><g class="controls"><g class="dockers"/><g class="magnets" transform="translate(141, 209)"><g pointer-events="all" display="none" transform="translate(-7, 4)"><circle cx="8" cy="8" r="4" stroke="none" fill="red" fill-opacity="0.3"/></g><g pointer-events="all" display="none" transform="translate(-7, 16)"><circle cx="8" cy="8" r="4" stroke="none" fill="red" fill-opacity="0.3"/></g><g pointer-events="all" display="none" transform="translate(-7, 28)"><circle cx="8" cy="8" r="4" stroke="none" fill="red" fill-opacity="0.3"/></g><g pointer-events="all" display="none" transform="translate(12, 39)"><circle cx="8" cy="8" r="4" stroke="none" fill="red" fill-opacity="0.3"/></g><g pointer-events="all" display="none" transform="translate(32, 39)"><circle cx="8" cy="8" r="4" stroke="none" fill="red" fill-opacity="0.3"/></g><g pointer-events="all" display="none" transform="translate(52, 39)"><circle cx="8" cy="8" r="4" stroke="none" fill="red" fill-opacity="0.3"/></g><g pointer-events="all" display="none" transform="translate(71, 4)"><circle cx="8" cy="8" r="4" stroke="none" fill="red" fill-opacity="0.3"/></g><g pointer-events="all" display="none" transform="translate(71, 16)"><circle cx="8" cy="8" r="4" stroke="none" fill="red" fill-opacity="0.3"/></g><g pointer-events="all" display="none" transform="translate(71, 28)"><circle cx="8" cy="8" r="4" stroke="none" fill="red" fill-opacity="0.3"/></g><g pointer-events="all" display="none" transform="translate(12, -7)"><circle cx="8" cy="8" r="4" stroke="none" fill="red" fill-opacity="0.3"/></g><g pointer-events="all" display="none" transform="translate(32, -7)"><circle cx="8" cy="8" r="4" stroke="none" fill="red" fill-opacity="0.3"/></g><g pointer-events="all" display="none" transform="translate(52, -7)"><circle cx="8" cy="8" r="4" stroke="none" fill="red" fill-opacity="0.3"/></g><g pointer-events="all" display="none" transform="translate(32, 16)"><circle cx="8" cy="8" r="4" stroke="none" fill="red" fill-opacity="0.3"/></g></g></g></g></g><g class="edge"><g id="_B5099C2D-5993-4051-B9D1-76B873C55325" bpmn2nodeid="_7F4E12F9-8ABD-4CD3-BDB8-834B8FF27B7C"><g class="stencils"><g class="me"><g pointer-events="painted" bpmn2nodeid="_2E639F23-735D-48C8-BB37-5DB2F1449D63"><path id="_B5099C2D-5993-4051-B9D1-76B873C55325_1" d="M309.85817317143744 207.6463769152925L342.01682682856256 158.2598730847075 " stroke="#000000" fill="none" stroke-width="2" stroke-linecap="round" stroke-linejoin="round" marker-start="url(#_B5099C2D-5993-4051-B9D1-76B873C55325start)" marker-end="url(#_B5099C2D-5993-4051-B9D1-76B873C55325end)"/></g><text id="_B5099C2D-5993-4051-B9D1-76B873C55325text_name" font-size="12" x="323.85817317143744" y="193.6463769152925" oryx:edgePosition="startTop" stroke-width="0pt" letter-spacing="-0.01px" fill="#000000" text-anchor="start" transform="rotate(303.07067782276164 309.85817317143744 207.6463769152925)" visibility="inherit" oryx:fontSize="12"/></g><g class="children" style="overflow:hidden"/><g class="edge"/></g><g class="controls"><g class="dockers"/><g class="magnets"/></g></g><g id="_090F8EBF-FF43-4919-BFCB-EB341C449D5A" bpmn2nodeid="_435AEE2B-6B05-433B-98B2-FE4642784B1C"><g class="stencils"><g class="me"><g pointer-events="painted" bpmn2nodeid="_6510B46D-05FD-40E5-97B8-55C95C03564F"><path id="_090F8EBF-FF43-4919-BFCB-EB341C449D5A_1" d="M221.7265233449656 232.6395882889826L253.2734766550344 232.3604117110174 " stroke="#000000" fill="none" stroke-width="2" stroke-linecap="round" stroke-linejoin="round" marker-start="url(#_090F8EBF-FF43-4919-BFCB-EB341C449D5Astart)" marker-end="url(#_090F8EBF-FF43-4919-BFCB-EB341C449D5Aend)"/></g><text id="_090F8EBF-FF43-4919-BFCB-EB341C449D5Atext_name" font-size="12" x="235.7265233449656" y="218.6395882889826" oryx:edgePosition="startTop" stroke-width="0pt" letter-spacing="-0.01px" fill="#000000" text-anchor="start" transform="rotate(359.49297093908524 221.7265233449656 232.6395882889826)" visibility="inherit" oryx:fontSize="12"/></g><g class="children" style="overflow:hidden"/><g class="edge"/></g><g class="controls"><g class="dockers"/><g class="magnets"/></g></g><g id="_E3BE5EF6-4779-4D68-B4F6-1CC4C2612498" bpmn2nodeid="_CA74156B-6640-43E1-8ED1-247A4C07C392"><g class="stencils"><g class="me"><g pointer-events="painted" bpmn2nodeid="_00009158-A4A4-4EAC-B319-ABE3EBDEA238"><path id="_E3BE5EF6-4779-4D68-B4F6-1CC4C2612498_1" d="M90.92447127959737 157.9370593996645L151.54427872040262 208.4535656003355 " stroke="#000000" fill="none" stroke-width="2" stroke-linecap="round" stroke-linejoin="round" marker-start="url(#_E3BE5EF6-4779-4D68-B4F6-1CC4C2612498start)" marker-end="url(#_E3BE5EF6-4779-4D68-B4F6-1CC4C2612498end)"/></g><text id="_E3BE5EF6-4779-4D68-B4F6-1CC4C2612498text_name" font-size="12" x="104.92447127959737" y="143.9370593996645" oryx:edgePosition="startTop" stroke-width="0pt" letter-spacing="-0.01px" fill="#000000" text-anchor="start" transform="rotate(39.805571092265154 90.92447127959737 157.9370593996645)" visibility="inherit" oryx:fontSize="12"/></g><g class="children" style="overflow:hidden"/><g class="edge"/></g><g class="controls"><g class="dockers"/><g class="magnets"/></g></g></g><text id="_D21123E3-523E-45A5-A30A-6B7039A33992" style="stroke-width:1;fill:rgb(177,194,214);font-family:arial;font-weight:bold" font-size="12" onclick="ORYX.Plugins.CanvasTitle.openTextualAnalysis()" onmouseover="ORYX.Plugins.CanvasTitle.addToolTip('_D21123E3-523E-45A5-A30A-6B7039A33992')" transform="translate(10, 20)">MI_MainSub_IncomeTypeDetermination v.1.0 (hx-eligibility-bareform.MI_MainSub_IncomeTypeDetermination)</text></g></g></svg>