<svg xmlns="http://www.w3.org/2000/svg" xmlns:oryx="http://oryx-editor.org" id="_3AE0A321-563B-4BEE-A89C-2D8FE3307BB8" width="651.359375" height="312.796875" xmlns:xlink="http://www.w3.org/1999/xlink" xmlns:svg="http://www.w3.org/2000/svg"><defs><marker id="_7C23C8CE-CEB7-4F85-9B82-FBD4B5FA0802start" refX="1" refY="5" markerUnits="userSpaceOnUse" markerWidth="17" markerHeight="11" orient="auto" fill="#000000" stroke="#000000"> 	  		<path id="_7C23C8CE-CEB7-4F85-9B82-FBD4B5FA0802conditional" d="M 0 5 L 8 0 L 16 5 L 8 10 L 0 5" fill="white" stroke="#000000" stroke-width="1" display="none"/> 			<path id="_7C23C8CE-CEB7-4F85-9B82-FBD4B5FA0802default" d="M 5 0 L 11 10" fill="white" stroke="#000000" stroke-width="1" display="none"/> 	  	</marker><marker id="_7C23C8CE-CEB7-4F85-9B82-FBD4B5FA0802end" refX="15" refY="6" markerUnits="userSpaceOnUse" markerWidth="15" markerHeight="12" orient="auto" fill="#000000" stroke="#000000"> 	  		<path id="_7C23C8CE-CEB7-4F85-9B82-FBD4B5FA0802frame2" d="M 0 1 L 15 6 L 0 11z" fill="#000000" stroke="#000000" stroke-linejoin="round" stroke-width="2"/> 	  	</marker><marker id="_D117B03E-83DC-40AE-9E12-A905C621D31Fstart" refX="1" refY="5" markerUnits="userSpaceOnUse" markerWidth="17" markerHeight="11" orient="auto" fill="#000000" stroke="#000000"> 	  		<path id="_D117B03E-83DC-40AE-9E12-A905C621D31Fconditional" d="M 0 5 L 8 0 L 16 5 L 8 10 L 0 5" fill="white" stroke="#000000" stroke-width="1" display="none"/> 			<path id="_D117B03E-83DC-40AE-9E12-A905C621D31Fdefault" d="M 5 0 L 11 10" fill="white" stroke="#000000" stroke-width="1" display="none"/> 	  	</marker><marker id="_D117B03E-83DC-40AE-9E12-A905C621D31Fend" refX="15" refY="6" markerUnits="userSpaceOnUse" markerWidth="15" markerHeight="12" orient="auto" fill="#000000" stroke="#000000"> 	  		<path id="_D117B03E-83DC-40AE-9E12-A905C621D31Fframe2" d="M 0 1 L 15 6 L 0 11z" fill="#000000" stroke="#000000" stroke-linejoin="round" stroke-width="2"/> 	  	</marker></defs><g stroke="none" font-family="Verdana, sans-serif" font-size-adjust="none" font-style="normal" font-variant="normal" font-weight="normal" line-heigth="normal" font-size="12"><g class="stencils" transform="translate(15, 15.796875)"><g class="me"/><g class="children"><g id="_5403D9BF-C48F-4760-90D8-0D115E52FD7F" bpmn2nodeid="_4F3062A5-B9D3-4B89-9229-27CF9B6DB248"><g class="stencils" transform="translate(85, 120)"><g class="me"><g pointer-events="fill" id="_5403D9BF-C48F-4760-90D8-0D115E52FD7F">        <defs id="_5403D9BF-C48F-4760-90D8-0D115E52FD7F__5403D9BF-C48F-4760-90D8-0D115E52FD7F_5"> 		<radialGradient id="_5403D9BF-C48F-4760-90D8-0D115E52FD7Fbackground" cx="10%" cy="10%" r="100%" fx="10%" fy="10%"> 			<stop offset="0%" stop-color="#ffffff" stop-opacity="1" id="_5403D9BF-C48F-4760-90D8-0D115E52FD7F__5403D9BF-C48F-4760-90D8-0D115E52FD7F_6"/> 			<stop id="_5403D9BF-C48F-4760-90D8-0D115E52FD7Ffill_el" offset="100%" stop-color="#9acd32" stop-opacity="1"/> 		</radialGradient> 	</defs> 	     <circle id="_5403D9BF-C48F-4760-90D8-0D115E52FD7Fbg_frame" cx="15" cy="15" r="15" stroke="#000000" fill="url(#_5403D9BF-C48F-4760-90D8-0D115E52FD7Fbackground) white" stroke-width="1" style="stroke-dasharray: 5.5, 3"/>      <circle id="_5403D9BF-C48F-4760-90D8-0D115E52FD7Fframe" cx="15" cy="15" r="15" stroke="#000000" fill="none" stroke-width="1" display="none"/>  	<text font-size="11" id="_5403D9BF-C48F-4760-90D8-0D115E52FD7Ftext_name" x="15" y="32" oryx:align="top center" stroke="black" stroke-width="0pt" letter-spacing="-0.01px" fill="#000000" text-anchor="middle" transform="rotate(0 15 32)" visibility="inherit" oryx:fontSize="11"><tspan x="15" y="32" dy="11">Start</tspan></text>   </g></g><g class="children" style="overflow:hidden"/><g class="edge"/></g><g class="controls"><g class="dockers"/><g class="magnets" transform="translate(85, 120)"><g pointer-events="all" display="none" transform="translate(7, 7)"><circle cx="8" cy="8" r="4" stroke="none" fill="red" fill-opacity="0.3"/></g></g></g></g><g id="_A75497CA-417B-4D26-99D2-6B67ED0E3F46" bpmn2nodeid="_1ADD7851-92F4-4FA9-8887-46EA1C5E2316"><g class="stencils" transform="translate(362, 126)"><g class="me"><g pointer-events="fill" id="_A75497CA-417B-4D26-99D2-6B67ED0E3F46">       <defs id="_A75497CA-417B-4D26-99D2-6B67ED0E3F46__A75497CA-417B-4D26-99D2-6B67ED0E3F46_5"> 		<radialGradient id="_A75497CA-417B-4D26-99D2-6B67ED0E3F46background" cx="10%" cy="10%" r="100%" fx="10%" fy="10%"> 			<stop offset="0%" stop-color="#ffffff" stop-opacity="1" id="_A75497CA-417B-4D26-99D2-6B67ED0E3F46__A75497CA-417B-4D26-99D2-6B67ED0E3F46_6"/> 			<stop id="_A75497CA-417B-4D26-99D2-6B67ED0E3F46fill_el" offset="100%" stop-color="#ff6347" stop-opacity="1"/> 		</radialGradient> 		<radialGradient id="_A75497CA-417B-4D26-99D2-6B67ED0E3F46borderbackground" cx="10%" cy="10%" r="100%" fx="10%" fy="10%"> 			<stop offset="0%" stop-color="#ffffff" stop-opacity="1" id="_A75497CA-417B-4D26-99D2-6B67ED0E3F46__A75497CA-417B-4D26-99D2-6B67ED0E3F46_7"/> 			<stop id="_A75497CA-417B-4D26-99D2-6B67ED0E3F46fill_border" offset="100%" stop-color="#000000" stop-opacity="1" stroke="#000000"/> 		</radialGradient> 	</defs> 	     <circle id="_A75497CA-417B-4D26-99D2-6B67ED0E3F46bg_frame" cx="14" cy="14" r="14" stroke="#000000" fill="url(#_A75497CA-417B-4D26-99D2-6B67ED0E3F46background) white" stroke-width="3"/>          <circle id="_A75497CA-417B-4D26-99D2-6B67ED0E3F46frame" cx="14" cy="14" r="9" stroke="#000000" fill="url(#_A75497CA-417B-4D26-99D2-6B67ED0E3F46borderbackground)" stroke-width="1"/> 	<text font-size="11" id="_A75497CA-417B-4D26-99D2-6B67ED0E3F46text_name" x="14" y="30" oryx:align="top center" stroke="black" stroke-width="0pt" letter-spacing="-0.01px" fill="#000000" text-anchor="middle" transform="rotate(0 14 30)" visibility="inherit" oryx:fontSize="11"><tspan x="14" y="30" dy="11">End</tspan></text>   </g></g><g class="children" style="overflow:hidden"/><g class="edge"/></g><g class="controls"><g class="dockers"/><g class="magnets" transform="translate(362, 126)"><g pointer-events="all" display="none" transform="translate(6, 6)"><circle cx="8" cy="8" r="4" stroke="none" fill="red" fill-opacity="0.3"/></g></g></g></g><g id="_F48C2E7E-2467-497F-B33F-9086BA39BECA" bpmn2nodeid="_48FBCDBD-DAB0-49C7-965F-758DFF73D95C"><g class="stencils" transform="translate(150, 195)"><g class="me"><g pointer-events="fill" oryx:minimumSize="50 40" id="_F48C2E7E-2467-497F-B33F-9086BA39BECA">   	<defs id="_F48C2E7E-2467-497F-B33F-9086BA39BECA__F48C2E7E-2467-497F-B33F-9086BA39BECA_17"> 		<radialGradient id="_F48C2E7E-2467-497F-B33F-9086BA39BECAbackground" cx="10%" cy="10%" r="100%" fx="10%" fy="10%"> 			<stop offset="0%" stop-color="#ffffff" stop-opacity="1" id="_F48C2E7E-2467-497F-B33F-9086BA39BECA__F48C2E7E-2467-497F-B33F-9086BA39BECA_18"/> 			<stop id="_F48C2E7E-2467-497F-B33F-9086BA39BECAfill_el" offset="100%" stop-color="#fafad2" stop-opacity="1"/> 		</radialGradient> 		<radialGradient id="_F48C2E7E-2467-497F-B33F-9086BA39BECAborderbackground" cx="10%" cy="10%" r="100%" fx="10%" fy="10%"> 			<stop offset="0%" stop-color="#ffffff" stop-opacity="1" id="_F48C2E7E-2467-497F-B33F-9086BA39BECA__F48C2E7E-2467-497F-B33F-9086BA39BECA_19"/> 			<stop id="_F48C2E7E-2467-497F-B33F-9086BA39BECAfill_border" offset="100%" stop-color="#000000" stop-opacity="1" stroke="#000000"/> 		</radialGradient> 	</defs> 	 	<rect id="_F48C2E7E-2467-497F-B33F-9086BA39BECAtext_frame" oryx:anchors="bottom top right left" x="1" y="1" width="149" height="76" rx="10" ry="10" stroke="none" stroke-width="0" fill="none"/> 	<rect id="_F48C2E7E-2467-497F-B33F-9086BA39BECAbg_frame" oryx:resize="vertical horizontal" x="0" y="0" width="155" height="77" rx="10" ry="10" stroke="#000000" stroke-width="1" fill="url(#_F48C2E7E-2467-497F-B33F-9086BA39BECAbackground) #ffffcc"/> 		<text font-size="12" id="_F48C2E7E-2467-497F-B33F-9086BA39BECAtext_name" x="77.5" y="38.5" oryx:align="middle center" oryx:fittoelem="text_frame" stroke="black" text-anchor="middle" stroke-width="0pt" letter-spacing="-0.01px" fill="#000000" transform="rotate(0 77.5 38.5)" visibility="inherit" oryx:fontSize="12"><tspan x="77.5" y="38.5" dy="-1"> MI_MainSub_Determine</tspan><tspan x="77.5" y="38.5" dy="11">CoverageCode</tspan></text>     <g id="_F48C2E7E-2467-497F-B33F-9086BA39BECAmanualTask" transform="scale(0.7,0.7) translate(8,8)" display="none">     	<path oryx:anchors="top left" id="_F48C2E7E-2467-497F-B33F-9086BA39BECAframe" style="opacity:1;fill:none;fill-opacity:1;stroke-width:1" d="M0.5,3.751l4.083-3.25c0,0,11.166,0.083,12.083,0.083s-2.417,2.917-1.5,2.917     s11.667,0,12.584,0c1.166,1.708-0.168,3.167-0.834,3.667s0.875,1.917-1,4.417c-0.75,0.25,0.75,1.875-1.333,3.333     c-1.167,0.583,0.583,1.542-1.25,2.833c-1.167,0-20.833,0.083-20.833,0.083l-2-1.333V3.751z" stroke="#000000"/> 		<path id="_F48C2E7E-2467-497F-B33F-9086BA39BECAframe2" oryx:anchors="top left" style="opacity:1;fill:none;stroke-width:2" d="M 13.5 7 L 27 7" stroke="#000000"/> 		<path id="_F48C2E7E-2467-497F-B33F-9086BA39BECAframe3" oryx:anchors="top left" style="opacity:1;fill:none;stroke-width:2" d="M 13.5 11 L 26 11" stroke="#000000"/> 		<path id="_F48C2E7E-2467-497F-B33F-9086BA39BECAframe4" oryx:anchors="top left" style="opacity:1;fill:none;stroke-width:1.5" d="M 14 14.5 L 25 14.5" stroke="#000000"/> 		<path id="_F48C2E7E-2467-497F-B33F-9086BA39BECAframe5" oryx:anchors="top left" style="opacity:1;fill:none;stroke-width:1.5" d="M 8.2 3.1 L 15 3.1" stroke="#000000"/> 	</g> 	 	<g id="_F48C2E7E-2467-497F-B33F-9086BA39BECAbusinessRuleTask" transform="scale(0.7,0.7) translate(8,8)" display="none"> 		<rect id="_F48C2E7E-2467-497F-B33F-9086BA39BECAframe6" oryx:anchors="top left" x="0" y="0" width="22" height="4" style="opacity:1;fill:#B3B1B3;fill-opacity:1;" stroke="#000000"/> 		<rect id="_F48C2E7E-2467-497F-B33F-9086BA39BECAframe7" oryx:anchors="top left" x="0" y="4" style="opacity:1;fill:none;" width="22" height="12" stroke="#000000"/> 		<path id="_F48C2E7E-2467-497F-B33F-9086BA39BECAframe8" oryx:anchors="top left" style="opacity:1;fill:none;" d="M 0 10 L 22 10" stroke="#000000"/> 		<path id="_F48C2E7E-2467-497F-B33F-9086BA39BECAframe9" oryx:anchors="top left" style="opacity:1; fill:none;" d="M 7 4 L 7 16" stroke="#000000"/> 	</g> 	 	<g id="_F48C2E7E-2467-497F-B33F-9086BA39BECAscriptTask" transform="scale(0.7,0.7) translate(8,8)" display="inherit"> 		<path oryx:anchors="top left" id="_F48C2E7E-2467-497F-B33F-9086BA39BECAframe10" style="opacity:1;fill:none;" stroke="#000000" d="M6.402,0.5h14.5c0,0-5.833,2.833-5.833,5.583s4.417,6,4.417,9.167    s-4.167,5.083-4.167,5.083H0.235c0,0,5-2.667,5-5s-4.583-6.75-4.583-9.25S6.402,0.5,6.402,0.5z"/> 		<path oryx:anchors="top left" id="_F48C2E7E-2467-497F-B33F-9086BA39BECAframe11" style="opacity:1;fill:none;stroke-width:1.5" d="M 3.5 4.5 L 13.5 4.5" stroke="#000000"/> 		<path oryx:anchors="top left" id="_F48C2E7E-2467-497F-B33F-9086BA39BECAframe12" style="opacity:1;fill:none;stroke-width:1.5" d="M 3.8 8.5 L 13.8 8.5" stroke="#000000"/> 		<path oryx:anchors="top left" id="_F48C2E7E-2467-497F-B33F-9086BA39BECAframe13" style="opacity:1;fill:none;stroke-width:1.5" d="M 6.3 12.5 L 16.3 12.5" stroke="#000000"/> 		<path oryx:anchors="top left" id="_F48C2E7E-2467-497F-B33F-9086BA39BECAframe14" style="opacity:1;fill:none;stroke-width:1.5" d="M 6.5 16.5 L 16.5 16.5" stroke="#000000"/> 	</g> 	 	<g id="_F48C2E7E-2467-497F-B33F-9086BA39BECAuserTask" transform="scale(0.7,0.7) translate(8,8)" display="none"> 		<path id="_F48C2E7E-2467-497F-B33F-9086BA39BECAframe15" oryx:anchors="top left" style="opacity:1;fill:#F4F6F7" stroke="#000000" d="M0.585,24.167h24.083v-7.833c0,0-2.333-3.917-7.083-5.167h-9.25    c-4.417,1.333-7.833,5.75-7.833,5.75L0.585,24.167z"/> 		<path id="_F48C2E7E-2467-497F-B33F-9086BA39BECAframe16" oryx:anchors="top left" style="opacity:1;fill:none" d="M 6 20 L 6 24" stroke="#000000"/> 		<path id="_F48C2E7E-2467-497F-B33F-9086BA39BECAframe17" oryx:anchors="top left" style="opacity:1;fill:none" d="M 20 20 L 20 24" stroke="#000000"/> 		<circle id="_F48C2E7E-2467-497F-B33F-9086BA39BECAframe18" oryx:anchors="top left" fill="black" cx="13.002" cy="5.916" r="5.417" stroke="#000000"/> 		<path id="_F48C2E7E-2467-497F-B33F-9086BA39BECAframe19" oryx:anchors="top left" style="opacity:1;fill:#F0EFF0;" stroke="#000000" d="M8.043,7.083c0,0,2.814-2.426,5.376-1.807s4.624-0.693,4.624-0.693    c0.25,1.688,0.042,3.75-1.458,5.584c0,0,1.083,0.75,1.083,1.5s0.125,1.875-1,3s-5.5,1.25-6.75,0S8.668,12.834,8.668,12    s0.583-1.25,1.25-1.917C8.835,9.5,7.419,7.708,8.043,7.083z"/> 	</g> 	 	<g id="_F48C2E7E-2467-497F-B33F-9086BA39BECAserviceTask" transform="scale(0.7,0.7) translate(8,8)" display="none"> 		<polygon oryx:anchors="top left" id="_F48C2E7E-2467-497F-B33F-9086BA39BECAframe20" style="opacity:1;fill:#ffffff" stroke="#000000" points="15.392,5.064 17.954,2.502 20.347,4.895 17.786,7.455     18.729,9.732 22.353,9.732 22.353,13.115 18.731,13.115 17.788,15.392 20.351,17.955 17.958,20.347 15.397,17.786 13.12,18.729     13.12,22.353 9.737,22.353 9.737,18.731 7.46,17.788 4.897,20.35 2.506,17.958 5.066,15.397 4.124,13.12 0.5,13.12 0.5,9.737     4.121,9.737 5.065,7.461 2.503,4.898 4.895,2.506 7.455,5.066 9.732,4.125 9.732,0.5 13.116,0.5 13.116,4.121 "/> 		<circle oryx:anchors="top left" id="_F48C2E7E-2467-497F-B33F-9086BA39BECAframe21" style="opacity:1;fill:none" stroke="#000000" cx="11.427" cy="11.426" r="3.714"/> 		<polygon oryx:anchors="top left" id="_F48C2E7E-2467-497F-B33F-9086BA39BECAframe22" style="opacity:1;fill:#ffffff" stroke="#000000" points="21.392,11.064 23.954,8.502 26.347,10.895 23.786,13.455     24.729,15.732 28.353,15.732 28.353,19.115 24.731,19.115 23.788,21.392 26.351,23.955 23.958,26.347 21.397,23.786 19.12,24.729     19.12,28.353 15.737,28.353 15.737,24.731 13.46,23.788 10.897,26.35 8.506,23.958 11.066,21.397 10.124,19.12 6.5,19.12     6.5,15.737 10.121,15.737 11.065,13.461 8.503,10.898 10.895,8.506 13.455,11.066 15.732,10.125 15.732,6.5 19.116,6.5     19.116,10.121 "/> 		<circle oryx:anchors="top left" id="_F48C2E7E-2467-497F-B33F-9086BA39BECAframe23" style="opacity:1;fill:none;" stroke="#000000" cx="17.427" cy="17.426" r="3.714"/> 	</g> 	 	<g id="_F48C2E7E-2467-497F-B33F-9086BA39BECAsendTask" display="none"> 		<path id="_F48C2E7E-2467-497F-B33F-9086BA39BECAstframe24" oryx:anchors="left top" stroke="#FFFFFF" fill="black" stroke-width="1" d="M8,11 L8,21 L24,21 L24,11 L16,17z"/> 		<path id="_F48C2E7E-2467-497F-B33F-9086BA39BECAstframe25" oryx:anchors="left top" stroke="#FFFFFF" fill="black" stroke-width="1" d="M7,10 L16,17 L25 10z"/> 	</g> 	 	<g id="_F48C2E7E-2467-497F-B33F-9086BA39BECAreceiveTask" display="none"> 		<path id="_F48C2E7E-2467-497F-B33F-9086BA39BECAframe26" oryx:anchors="left top" stroke="#000000" fill="none" stroke-width="1" d="M8,11 L8,21 L24,21 L24,11z M8,11 L16,17 L24,11"/> 	</g> 	 	<g id="_F48C2E7E-2467-497F-B33F-9086BA39BECAnone" display="inherit"/>  	<g id="_F48C2E7E-2467-497F-B33F-9086BA39BECAsequential" display="none">         <path oryx:anchors="bottom" fill="none" stroke="#000000" stroke-width="2" d=" M74.05 73  h10  M74.05 69  h10  M74.05 65  h10 " id="_F48C2E7E-2467-497F-B33F-9086BA39BECA__F48C2E7E-2467-497F-B33F-9086BA39BECA_20"/>     </g>   </g></g><g class="children" style="overflow:hidden"/><g class="edge"/></g><g class="controls"><g class="dockers"/><g class="magnets" transform="translate(150, 195)"><g pointer-events="all" display="none" transform="translate(-7, 11.25)"><circle cx="8" cy="8" r="4" stroke="none" fill="red" fill-opacity="0.3"/></g><g pointer-events="all" display="none" transform="translate(-7, 30.5)"><circle cx="8" cy="8" r="4" stroke="none" fill="red" fill-opacity="0.3"/></g><g pointer-events="all" display="none" transform="translate(-7, 49.75)"><circle cx="8" cy="8" r="4" stroke="none" fill="red" fill-opacity="0.3"/></g><g pointer-events="all" display="none" transform="translate(30.75, 68)"><circle cx="8" cy="8" r="4" stroke="none" fill="red" fill-opacity="0.3"/></g><g pointer-events="all" display="none" transform="translate(69.5, 68)"><circle cx="8" cy="8" r="4" stroke="none" fill="red" fill-opacity="0.3"/></g><g pointer-events="all" display="none" transform="translate(108.25, 68)"><circle cx="8" cy="8" r="4" stroke="none" fill="red" fill-opacity="0.3"/></g><g pointer-events="all" display="none" transform="translate(146, 11.25)"><circle cx="8" cy="8" r="4" stroke="none" fill="red" fill-opacity="0.3"/></g><g pointer-events="all" display="none" transform="translate(146, 30.5)"><circle cx="8" cy="8" r="4" stroke="none" fill="red" fill-opacity="0.3"/></g><g pointer-events="all" display="none" transform="translate(146, 49.75)"><circle cx="8" cy="8" r="4" stroke="none" fill="red" fill-opacity="0.3"/></g><g pointer-events="all" display="none" transform="translate(30.75, -7)"><circle cx="8" cy="8" r="4" stroke="none" fill="red" fill-opacity="0.3"/></g><g pointer-events="all" display="none" transform="translate(69.5, -7)"><circle cx="8" cy="8" r="4" stroke="none" fill="red" fill-opacity="0.3"/></g><g pointer-events="all" display="none" transform="translate(108.25, -7)"><circle cx="8" cy="8" r="4" stroke="none" fill="red" fill-opacity="0.3"/></g><g pointer-events="all" display="none" transform="translate(69.5, 30.5)"><circle cx="8" cy="8" r="4" stroke="none" fill="red" fill-opacity="0.3"/></g></g></g></g></g><g class="edge"><g id="_7C23C8CE-CEB7-4F85-9B82-FBD4B5FA0802" bpmn2nodeid="_327F0DBA-7659-412E-BAD5-7977BB557B55"><g class="stencils"><g class="me"><g pointer-events="painted" bpmn2nodeid="_B10913EC-2643-4864-AAF3-B72F74B25CAA"><path id="_7C23C8CE-CEB7-4F85-9B82-FBD4B5FA0802_1" d="M112.24643137098819 144.46096854935166L176.9039592540118 194.41207832564834 " stroke="#000000" fill="none" stroke-width="2" stroke-linecap="round" stroke-linejoin="round" marker-start="url(#_7C23C8CE-CEB7-4F85-9B82-FBD4B5FA0802start)" marker-end="url(#_7C23C8CE-CEB7-4F85-9B82-FBD4B5FA0802end)"/></g><text id="_7C23C8CE-CEB7-4F85-9B82-FBD4B5FA0802text_name" font-size="12" x="126.24643137098819" y="130.46096854935166" oryx:edgePosition="startTop" stroke-width="0pt" letter-spacing="-0.01px" fill="#000000" text-anchor="start" transform="rotate(37.687845134701774 112.24643137098819 144.46096854935166)" visibility="inherit" oryx:fontSize="12"/></g><g class="children" style="overflow:hidden"/><g class="edge"/></g><g class="controls"><g class="dockers"/><g class="magnets"/></g></g><g id="_D117B03E-83DC-40AE-9E12-A905C621D31F" bpmn2nodeid="_67901133-9FA9-4697-8459-097CDD7425B7"><g class="stencils"><g class="me"><g pointer-events="painted" bpmn2nodeid="_F2AC3B41-8646-4FB2-B700-B101A5FCE8DE"><path id="_D117B03E-83DC-40AE-9E12-A905C621D31F_1" d="M288.6743578400897 194.98281173031387L363.5522046599103 147.83750076968613 " stroke="#000000" fill="none" stroke-width="2" stroke-linecap="round" stroke-linejoin="round" marker-start="url(#_D117B03E-83DC-40AE-9E12-A905C621D31Fstart)" marker-end="url(#_D117B03E-83DC-40AE-9E12-A905C621D31Fend)"/></g><text id="_D117B03E-83DC-40AE-9E12-A905C621D31Ftext_name" font-size="12" x="302.6743578400897" y="180.98281173031387" oryx:edgePosition="startTop" stroke-width="0pt" letter-spacing="-0.01px" fill="#000000" text-anchor="start" transform="rotate(327.80426606528675 288.6743578400897 194.98281173031387)" visibility="inherit" oryx:fontSize="12"/></g><g class="children" style="overflow:hidden"/><g class="edge"/></g><g class="controls"><g class="dockers"/><g class="magnets"/></g></g></g><text id="_BB2744A2-93BE-4CAD-AD44-3BC4A0325901" style="stroke-width:1;fill:rgb(177,194,214);font-family:arial;font-weight:bold" font-size="12" onclick="ORYX.Plugins.CanvasTitle.openTextualAnalysis()" onmouseover="ORYX.Plugins.CanvasTitle.addToolTip('_BB2744A2-93BE-4CAD-AD44-3BC4A0325901')" transform="translate(10, 20)">MI_MainSub_FPLLevelDetermination v.1.0 (hx-eligibility-bareform.MI_MainSub_DetermineCoverageCode)</text></g></g></svg>