<svg xmlns="http://www.w3.org/2000/svg" xmlns:oryx="http://oryx-editor.org" id="_2D658706-F43A-430F-9E5B-A77F21AC7B69" width="458.0000305175781" height="260.65626525878906" xmlns:xlink="http://www.w3.org/1999/xlink" xmlns:svg="http://www.w3.org/2000/svg"><defs><marker id="_1400103C-A270-4B0D-8BB8-72F74B33C828start" refX="1" refY="5" markerUnits="userSpaceOnUse" markerWidth="17" markerHeight="11" orient="auto" fill="#000000" stroke="#000000"> 	  		<path id="_1400103C-A270-4B0D-8BB8-72F74B33C828conditional" d="M 0 5 L 8 0 L 16 5 L 8 10 L 0 5" fill="white" stroke="#000000" stroke-width="1" display="none"/> 			<path id="_1400103C-A270-4B0D-8BB8-72F74B33C828default" d="M 5 0 L 11 10" fill="white" stroke="#000000" stroke-width="1" display="none"/> 	  	</marker><marker id="_1400103C-A270-4B0D-8BB8-72F74B33C828end" refX="15" refY="6" markerUnits="userSpaceOnUse" markerWidth="15" markerHeight="12" orient="auto" fill="#000000" stroke="#000000"> 	  		<path id="_1400103C-A270-4B0D-8BB8-72F74B33C828frame2" d="M 0 1 L 15 6 L 0 11z" fill="#000000" stroke="#000000" stroke-linejoin="round" stroke-width="2"/> 	  	</marker><marker id="_E3716B5D-1867-4C5C-B3C3-FC0552C45B10start" refX="1" refY="5" markerUnits="userSpaceOnUse" markerWidth="17" markerHeight="11" orient="auto" fill="#000000" stroke="#000000"> 	  		<path id="_E3716B5D-1867-4C5C-B3C3-FC0552C45B10conditional" d="M 0 5 L 8 0 L 16 5 L 8 10 L 0 5" fill="white" stroke="#000000" stroke-width="1" display="none"/> 			<path id="_E3716B5D-1867-4C5C-B3C3-FC0552C45B10default" d="M 5 0 L 11 10" fill="white" stroke="#000000" stroke-width="1" display="none"/> 	  	</marker><marker id="_E3716B5D-1867-4C5C-B3C3-FC0552C45B10end" refX="15" refY="6" markerUnits="userSpaceOnUse" markerWidth="15" markerHeight="12" orient="auto" fill="#000000" stroke="#000000"> 	  		<path id="_E3716B5D-1867-4C5C-B3C3-FC0552C45B10frame2" d="M 0 1 L 15 6 L 0 11z" fill="#000000" stroke="#000000" stroke-linejoin="round" stroke-width="2"/> 	  	</marker><marker id="_2A8B889E-A720-48EC-95EA-627AE9A828DAstart" refX="1" refY="5" markerUnits="userSpaceOnUse" markerWidth="17" markerHeight="11" orient="auto" fill="#000000" stroke="#000000"> 	  		<path id="_2A8B889E-A720-48EC-95EA-627AE9A828DAconditional" d="M 0 5 L 8 0 L 16 5 L 8 10 L 0 5" fill="white" stroke="#000000" stroke-width="1" display="none"/> 			<path id="_2A8B889E-A720-48EC-95EA-627AE9A828DAdefault" d="M 5 0 L 11 10" fill="white" stroke="#000000" stroke-width="1" display="none"/> 	  	</marker><marker id="_2A8B889E-A720-48EC-95EA-627AE9A828DAend" refX="15" refY="6" markerUnits="userSpaceOnUse" markerWidth="15" markerHeight="12" orient="auto" fill="#000000" stroke="#000000"> 	  		<path id="_2A8B889E-A720-48EC-95EA-627AE9A828DAframe2" d="M 0 1 L 15 6 L 0 11z" fill="#000000" stroke="#000000" stroke-linejoin="round" stroke-width="2"/> 	  	</marker></defs><g stroke="none" font-family="Verdana, sans-serif" font-size-adjust="none" font-style="normal" font-variant="normal" font-weight="normal" line-heigth="normal" font-size="12"><g class="stencils" transform="translate(14.999999046325684, 15.656249046325684)"><g class="me"/><g class="children"><g id="_846A4C36-76B7-45D8-BEF8-07E46BE7F650" bpmn2nodeid="_1141D801-9D2B-4D33-8123-78A845B9A310"><g class="stencils" transform="translate(34, 103)"><g class="me"><g pointer-events="fill" id="_846A4C36-76B7-45D8-BEF8-07E46BE7F650">        <defs id="_846A4C36-76B7-45D8-BEF8-07E46BE7F650__846A4C36-76B7-45D8-BEF8-07E46BE7F650_5"> 		<radialGradient id="_846A4C36-76B7-45D8-BEF8-07E46BE7F650background" cx="10%" cy="10%" r="100%" fx="10%" fy="10%"> 			<stop offset="0%" stop-color="#ffffff" stop-opacity="1" id="_846A4C36-76B7-45D8-BEF8-07E46BE7F650__846A4C36-76B7-45D8-BEF8-07E46BE7F650_6"/> 			<stop id="_846A4C36-76B7-45D8-BEF8-07E46BE7F650fill_el" offset="100%" stop-color="#9acd32" stop-opacity="1"/> 		</radialGradient> 	</defs> 	     <circle id="_846A4C36-76B7-45D8-BEF8-07E46BE7F650bg_frame" cx="15" cy="15" r="15" stroke="#000000" fill="url(#_846A4C36-76B7-45D8-BEF8-07E46BE7F650background) white" stroke-width="1" style="stroke-dasharray: 5.5, 3"/>      <circle id="_846A4C36-76B7-45D8-BEF8-07E46BE7F650frame" cx="15" cy="15" r="15" stroke="#000000" fill="none" stroke-width="1" display="none"/>  	<text font-size="11" id="_846A4C36-76B7-45D8-BEF8-07E46BE7F650text_name" x="15" y="32" oryx:align="top center" stroke="black" stroke-width="0pt" letter-spacing="-0.01px" fill="#000000" text-anchor="middle" transform="rotate(0 15 32)" visibility="inherit" oryx:fontSize="11"><tspan x="15" y="32" dy="11">Start</tspan></text>   </g></g><g class="children" style="overflow:hidden"/><g class="edge"/></g><g class="controls"><g class="dockers"/><g class="magnets" transform="translate(34, 103)"><g pointer-events="all" display="none" transform="translate(7, 7)"><circle cx="8" cy="8" r="4" stroke="none" fill="red" fill-opacity="0.3"/></g></g></g></g><g id="_600A3F4F-784F-4A97-B1F5-89AC8C73F29C" bpmn2nodeid="_18C9B2B6-C430-4546-9403-F4A7608129A2"><g class="stencils" transform="translate(390, 120)"><g class="me"><g pointer-events="fill" id="_600A3F4F-784F-4A97-B1F5-89AC8C73F29C">       <defs id="_600A3F4F-784F-4A97-B1F5-89AC8C73F29C__600A3F4F-784F-4A97-B1F5-89AC8C73F29C_5"> 		<radialGradient id="_600A3F4F-784F-4A97-B1F5-89AC8C73F29Cbackground" cx="10%" cy="10%" r="100%" fx="10%" fy="10%"> 			<stop offset="0%" stop-color="#ffffff" stop-opacity="1" id="_600A3F4F-784F-4A97-B1F5-89AC8C73F29C__600A3F4F-784F-4A97-B1F5-89AC8C73F29C_6"/> 			<stop id="_600A3F4F-784F-4A97-B1F5-89AC8C73F29Cfill_el" offset="100%" stop-color="#ff6347" stop-opacity="1"/> 		</radialGradient> 		<radialGradient id="_600A3F4F-784F-4A97-B1F5-89AC8C73F29Cborderbackground" cx="10%" cy="10%" r="100%" fx="10%" fy="10%"> 			<stop offset="0%" stop-color="#ffffff" stop-opacity="1" id="_600A3F4F-784F-4A97-B1F5-89AC8C73F29C__600A3F4F-784F-4A97-B1F5-89AC8C73F29C_7"/> 			<stop id="_600A3F4F-784F-4A97-B1F5-89AC8C73F29Cfill_border" offset="100%" stop-color="#000000" stop-opacity="1" stroke="#000000"/> 		</radialGradient> 	</defs> 	     <circle id="_600A3F4F-784F-4A97-B1F5-89AC8C73F29Cbg_frame" cx="14" cy="14" r="14" stroke="#000000" fill="url(#_600A3F4F-784F-4A97-B1F5-89AC8C73F29Cbackground) white" stroke-width="3"/>          <circle id="_600A3F4F-784F-4A97-B1F5-89AC8C73F29Cframe" cx="14" cy="14" r="9" stroke="#000000" fill="url(#_600A3F4F-784F-4A97-B1F5-89AC8C73F29Cborderbackground)" stroke-width="1"/> 	<text font-size="11" id="_600A3F4F-784F-4A97-B1F5-89AC8C73F29Ctext_name" x="14" y="30" oryx:align="top center" stroke="black" stroke-width="0pt" letter-spacing="-0.01px" fill="#000000" text-anchor="middle" transform="rotate(0 14 30)" visibility="inherit" oryx:fontSize="11"><tspan x="14" y="30" dy="11" id="ext-gen606">End</tspan></text>   </g></g><g class="children" style="overflow:hidden"/><g class="edge"/></g><g class="controls"><g class="dockers"/><g class="magnets" transform="translate(390, 120)"><g pointer-events="all" display="none" transform="translate(6, 6)"><circle cx="8" cy="8" r="4" stroke="none" fill="red" fill-opacity="0.3"/></g></g></g></g><g id="_4F1D8D2D-1299-443D-887A-0BF7E13EB2FB" bpmn2nodeid="_F0AEF40A-1AC9-4C5C-8081-E871F1E4830A"><g class="stencils" transform="translate(240, 168)"><g class="me"><g pointer-events="fill" oryx:minimumSize="50 40" id="_4F1D8D2D-1299-443D-887A-0BF7E13EB2FB">   	<defs id="_4F1D8D2D-1299-443D-887A-0BF7E13EB2FB__4F1D8D2D-1299-443D-887A-0BF7E13EB2FB_17"> 		<radialGradient id="_4F1D8D2D-1299-443D-887A-0BF7E13EB2FBbackground" cx="10%" cy="10%" r="100%" fx="10%" fy="10%"> 			<stop offset="0%" stop-color="#ffffff" stop-opacity="1" id="_4F1D8D2D-1299-443D-887A-0BF7E13EB2FB__4F1D8D2D-1299-443D-887A-0BF7E13EB2FB_18"/> 			<stop id="_4F1D8D2D-1299-443D-887A-0BF7E13EB2FBfill_el" offset="100%" stop-color="#fafad2" stop-opacity="1"/> 		</radialGradient> 		<radialGradient id="_4F1D8D2D-1299-443D-887A-0BF7E13EB2FBborderbackground" cx="10%" cy="10%" r="100%" fx="10%" fy="10%"> 			<stop offset="0%" stop-color="#ffffff" stop-opacity="1" id="_4F1D8D2D-1299-443D-887A-0BF7E13EB2FB__4F1D8D2D-1299-443D-887A-0BF7E13EB2FB_19"/> 			<stop id="_4F1D8D2D-1299-443D-887A-0BF7E13EB2FBfill_border" offset="100%" stop-color="#000000" stop-opacity="1" stroke="#000000"/> 		</radialGradient> 	</defs> 	 	<rect id="_4F1D8D2D-1299-443D-887A-0BF7E13EB2FBtext_frame" oryx:anchors="bottom top right left" x="1" y="1" width="74" height="47" rx="10" ry="10" stroke="none" stroke-width="0" fill="none"/> 	<rect id="_4F1D8D2D-1299-443D-887A-0BF7E13EB2FBbg_frame" oryx:resize="vertical horizontal" x="0" y="0" width="80" height="48" rx="10" ry="10" stroke="#000000" stroke-width="1" fill="url(#_4F1D8D2D-1299-443D-887A-0BF7E13EB2FBbackground) #ffffcc"/> 		<text font-size="12" id="_4F1D8D2D-1299-443D-887A-0BF7E13EB2FBtext_name" x="40" y="24" oryx:align="middle center" oryx:fittoelem="text_frame" stroke="black" text-anchor="middle" stroke-width="0pt" letter-spacing="-0.01px" fill="#000000" transform="rotate(0 40 24)" visibility="inherit" oryx:fontSize="12"><tspan x="40" y="24" dy="-1" id="ext-gen761">Rule_eligibil</tspan><tspan x="40" y="24" dy="11" id="ext-gen604">ity</tspan></text>     <g id="_4F1D8D2D-1299-443D-887A-0BF7E13EB2FBmanualTask" transform="scale(0.7,0.7) translate(8,8)" display="none">     	<path oryx:anchors="top left" id="_4F1D8D2D-1299-443D-887A-0BF7E13EB2FBframe" style="opacity:1;fill:none;fill-opacity:1;stroke-width:1" d="M0.5,3.751l4.083-3.25c0,0,11.166,0.083,12.083,0.083s-2.417,2.917-1.5,2.917     s11.667,0,12.584,0c1.166,1.708-0.168,3.167-0.834,3.667s0.875,1.917-1,4.417c-0.75,0.25,0.75,1.875-1.333,3.333     c-1.167,0.583,0.583,1.542-1.25,2.833c-1.167,0-20.833,0.083-20.833,0.083l-2-1.333V3.751z" stroke="#000000"/> 		<path id="_4F1D8D2D-1299-443D-887A-0BF7E13EB2FBframe2" oryx:anchors="top left" style="opacity:1;fill:none;stroke-width:2" d="M 13.5 7 L 27 7" stroke="#000000"/> 		<path id="_4F1D8D2D-1299-443D-887A-0BF7E13EB2FBframe3" oryx:anchors="top left" style="opacity:1;fill:none;stroke-width:2" d="M 13.5 11 L 26 11" stroke="#000000"/> 		<path id="_4F1D8D2D-1299-443D-887A-0BF7E13EB2FBframe4" oryx:anchors="top left" style="opacity:1;fill:none;stroke-width:1.5" d="M 14 14.5 L 25 14.5" stroke="#000000"/> 		<path id="_4F1D8D2D-1299-443D-887A-0BF7E13EB2FBframe5" oryx:anchors="top left" style="opacity:1;fill:none;stroke-width:1.5" d="M 8.2 3.1 L 15 3.1" stroke="#000000"/> 	</g> 	 	<g id="_4F1D8D2D-1299-443D-887A-0BF7E13EB2FBbusinessRuleTask" transform="scale(0.7,0.7) translate(8,8)" display="inherit"> 		<rect id="_4F1D8D2D-1299-443D-887A-0BF7E13EB2FBframe6" oryx:anchors="top left" x="0" y="0" width="22" height="4" style="opacity:1;fill:#B3B1B3;fill-opacity:1;" stroke="#000000"/> 		<rect id="_4F1D8D2D-1299-443D-887A-0BF7E13EB2FBframe7" oryx:anchors="top left" x="0" y="4" style="opacity:1;fill:none;" width="22" height="12" stroke="#000000"/> 		<path id="_4F1D8D2D-1299-443D-887A-0BF7E13EB2FBframe8" oryx:anchors="top left" style="opacity:1;fill:none;" d="M 0 10 L 22 10" stroke="#000000"/> 		<path id="_4F1D8D2D-1299-443D-887A-0BF7E13EB2FBframe9" oryx:anchors="top left" style="opacity:1; fill:none;" d="M 7 4 L 7 16" stroke="#000000"/> 	</g> 	 	<g id="_4F1D8D2D-1299-443D-887A-0BF7E13EB2FBscriptTask" transform="scale(0.7,0.7) translate(8,8)" display="none"> 		<path oryx:anchors="top left" id="_4F1D8D2D-1299-443D-887A-0BF7E13EB2FBframe10" style="opacity:1;fill:none;" stroke="#000000" d="M6.402,0.5h14.5c0,0-5.833,2.833-5.833,5.583s4.417,6,4.417,9.167    s-4.167,5.083-4.167,5.083H0.235c0,0,5-2.667,5-5s-4.583-6.75-4.583-9.25S6.402,0.5,6.402,0.5z"/> 		<path oryx:anchors="top left" id="_4F1D8D2D-1299-443D-887A-0BF7E13EB2FBframe11" style="opacity:1;fill:none;stroke-width:1.5" d="M 3.5 4.5 L 13.5 4.5" stroke="#000000"/> 		<path oryx:anchors="top left" id="_4F1D8D2D-1299-443D-887A-0BF7E13EB2FBframe12" style="opacity:1;fill:none;stroke-width:1.5" d="M 3.8 8.5 L 13.8 8.5" stroke="#000000"/> 		<path oryx:anchors="top left" id="_4F1D8D2D-1299-443D-887A-0BF7E13EB2FBframe13" style="opacity:1;fill:none;stroke-width:1.5" d="M 6.3 12.5 L 16.3 12.5" stroke="#000000"/> 		<path oryx:anchors="top left" id="_4F1D8D2D-1299-443D-887A-0BF7E13EB2FBframe14" style="opacity:1;fill:none;stroke-width:1.5" d="M 6.5 16.5 L 16.5 16.5" stroke="#000000"/> 	</g> 	 	<g id="_4F1D8D2D-1299-443D-887A-0BF7E13EB2FBuserTask" transform="scale(0.7,0.7) translate(8,8)" display="none"> 		<path id="_4F1D8D2D-1299-443D-887A-0BF7E13EB2FBframe15" oryx:anchors="top left" style="opacity:1;fill:#F4F6F7" stroke="#000000" d="M0.585,24.167h24.083v-7.833c0,0-2.333-3.917-7.083-5.167h-9.25    c-4.417,1.333-7.833,5.75-7.833,5.75L0.585,24.167z"/> 		<path id="_4F1D8D2D-1299-443D-887A-0BF7E13EB2FBframe16" oryx:anchors="top left" style="opacity:1;fill:none" d="M 6 20 L 6 24" stroke="#000000"/> 		<path id="_4F1D8D2D-1299-443D-887A-0BF7E13EB2FBframe17" oryx:anchors="top left" style="opacity:1;fill:none" d="M 20 20 L 20 24" stroke="#000000"/> 		<circle id="_4F1D8D2D-1299-443D-887A-0BF7E13EB2FBframe18" oryx:anchors="top left" fill="black" cx="13.002" cy="5.916" r="5.417" stroke="#000000"/> 		<path id="_4F1D8D2D-1299-443D-887A-0BF7E13EB2FBframe19" oryx:anchors="top left" style="opacity:1;fill:#F0EFF0;" stroke="#000000" d="M8.043,7.083c0,0,2.814-2.426,5.376-1.807s4.624-0.693,4.624-0.693    c0.25,1.688,0.042,3.75-1.458,5.584c0,0,1.083,0.75,1.083,1.5s0.125,1.875-1,3s-5.5,1.25-6.75,0S8.668,12.834,8.668,12    s0.583-1.25,1.25-1.917C8.835,9.5,7.419,7.708,8.043,7.083z"/> 	</g> 	 	<g id="_4F1D8D2D-1299-443D-887A-0BF7E13EB2FBserviceTask" transform="scale(0.7,0.7) translate(8,8)" display="none"> 		<polygon oryx:anchors="top left" id="_4F1D8D2D-1299-443D-887A-0BF7E13EB2FBframe20" style="opacity:1;fill:#ffffff" stroke="#000000" points="15.392,5.064 17.954,2.502 20.347,4.895 17.786,7.455     18.729,9.732 22.353,9.732 22.353,13.115 18.731,13.115 17.788,15.392 20.351,17.955 17.958,20.347 15.397,17.786 13.12,18.729     13.12,22.353 9.737,22.353 9.737,18.731 7.46,17.788 4.897,20.35 2.506,17.958 5.066,15.397 4.124,13.12 0.5,13.12 0.5,9.737     4.121,9.737 5.065,7.461 2.503,4.898 4.895,2.506 7.455,5.066 9.732,4.125 9.732,0.5 13.116,0.5 13.116,4.121 "/> 		<circle oryx:anchors="top left" id="_4F1D8D2D-1299-443D-887A-0BF7E13EB2FBframe21" style="opacity:1;fill:none" stroke="#000000" cx="11.427" cy="11.426" r="3.714"/> 		<polygon oryx:anchors="top left" id="_4F1D8D2D-1299-443D-887A-0BF7E13EB2FBframe22" style="opacity:1;fill:#ffffff" stroke="#000000" points="21.392,11.064 23.954,8.502 26.347,10.895 23.786,13.455     24.729,15.732 28.353,15.732 28.353,19.115 24.731,19.115 23.788,21.392 26.351,23.955 23.958,26.347 21.397,23.786 19.12,24.729     19.12,28.353 15.737,28.353 15.737,24.731 13.46,23.788 10.897,26.35 8.506,23.958 11.066,21.397 10.124,19.12 6.5,19.12     6.5,15.737 10.121,15.737 11.065,13.461 8.503,10.898 10.895,8.506 13.455,11.066 15.732,10.125 15.732,6.5 19.116,6.5     19.116,10.121 "/> 		<circle oryx:anchors="top left" id="_4F1D8D2D-1299-443D-887A-0BF7E13EB2FBframe23" style="opacity:1;fill:none;" stroke="#000000" cx="17.427" cy="17.426" r="3.714"/> 	</g> 	 	<g id="_4F1D8D2D-1299-443D-887A-0BF7E13EB2FBsendTask" display="none"> 		<path id="_4F1D8D2D-1299-443D-887A-0BF7E13EB2FBstframe24" oryx:anchors="left top" stroke="#FFFFFF" fill="black" stroke-width="1" d="M8,11 L8,21 L24,21 L24,11 L16,17z"/> 		<path id="_4F1D8D2D-1299-443D-887A-0BF7E13EB2FBstframe25" oryx:anchors="left top" stroke="#FFFFFF" fill="black" stroke-width="1" d="M7,10 L16,17 L25 10z"/> 	</g> 	 	<g id="_4F1D8D2D-1299-443D-887A-0BF7E13EB2FBreceiveTask" display="none"> 		<path id="_4F1D8D2D-1299-443D-887A-0BF7E13EB2FBframe26" oryx:anchors="left top" stroke="#000000" fill="none" stroke-width="1" d="M8,11 L8,21 L24,21 L24,11z M8,11 L16,17 L24,11"/> 	</g> 	 	<g id="_4F1D8D2D-1299-443D-887A-0BF7E13EB2FBnone" display="inherit"/>  	<g id="_4F1D8D2D-1299-443D-887A-0BF7E13EB2FBsequential" display="none">         <path oryx:anchors="bottom" fill="none" stroke="#000000" stroke-width="2" d=" M35.800000000000004 44  h10  M35.800000000000004 40  h10  M35.800000000000004 36  h10 " id="_4F1D8D2D-1299-443D-887A-0BF7E13EB2FB__4F1D8D2D-1299-443D-887A-0BF7E13EB2FB_20"/>     </g>   </g></g><g class="children" style="overflow:hidden"/><g class="edge"/></g><g class="controls"><g class="dockers"/><g class="magnets" transform="translate(240, 168)"><g pointer-events="all" display="none" transform="translate(-7, 4)"><circle cx="8" cy="8" r="4" stroke="none" fill="red" fill-opacity="0.3"/></g><g pointer-events="all" display="none" transform="translate(-7, 16)"><circle cx="8" cy="8" r="4" stroke="none" fill="red" fill-opacity="0.3"/></g><g pointer-events="all" display="none" transform="translate(-7, 28)"><circle cx="8" cy="8" r="4" stroke="none" fill="red" fill-opacity="0.3"/></g><g pointer-events="all" display="none" transform="translate(12, 39)"><circle cx="8" cy="8" r="4" stroke="none" fill="red" fill-opacity="0.3"/></g><g pointer-events="all" display="none" transform="translate(32, 39)"><circle cx="8" cy="8" r="4" stroke="none" fill="red" fill-opacity="0.3"/></g><g pointer-events="all" display="none" transform="translate(52, 39)"><circle cx="8" cy="8" r="4" stroke="none" fill="red" fill-opacity="0.3"/></g><g pointer-events="all" display="none" transform="translate(71, 4)"><circle cx="8" cy="8" r="4" stroke="none" fill="red" fill-opacity="0.3"/></g><g pointer-events="all" display="none" transform="translate(71, 16)"><circle cx="8" cy="8" r="4" stroke="none" fill="red" fill-opacity="0.3"/></g><g pointer-events="all" display="none" transform="translate(71, 28)"><circle cx="8" cy="8" r="4" stroke="none" fill="red" fill-opacity="0.3"/></g><g pointer-events="all" display="none" transform="translate(12, -7)"><circle cx="8" cy="8" r="4" stroke="none" fill="red" fill-opacity="0.3"/></g><g pointer-events="all" display="none" transform="translate(32, -7)"><circle cx="8" cy="8" r="4" stroke="none" fill="red" fill-opacity="0.3"/></g><g pointer-events="all" display="none" transform="translate(52, -7)"><circle cx="8" cy="8" r="4" stroke="none" fill="red" fill-opacity="0.3"/></g><g pointer-events="all" display="none" transform="translate(32, 16)"><circle cx="8" cy="8" r="4" stroke="none" fill="red" fill-opacity="0.3"/></g></g></g></g><g id="_8D7D6E10-76CE-4974-A96F-28CB59AAA73D" bpmn2nodeid="_3F2E52C2-9E78-4EE9-B26F-8282D523BD31"><g class="stencils" transform="translate(105, 165)"><g class="me"><g pointer-events="fill" oryx:minimumSize="50 40" id="_8D7D6E10-76CE-4974-A96F-28CB59AAA73D">   	<defs id="_8D7D6E10-76CE-4974-A96F-28CB59AAA73D__8D7D6E10-76CE-4974-A96F-28CB59AAA73D_17"> 		<radialGradient id="_8D7D6E10-76CE-4974-A96F-28CB59AAA73Dbackground" cx="10%" cy="10%" r="100%" fx="10%" fy="10%"> 			<stop offset="0%" stop-color="#ffffff" stop-opacity="1" id="_8D7D6E10-76CE-4974-A96F-28CB59AAA73D__8D7D6E10-76CE-4974-A96F-28CB59AAA73D_18"/> 			<stop id="_8D7D6E10-76CE-4974-A96F-28CB59AAA73Dfill_el" offset="100%" stop-color="#fafad2" stop-opacity="1"/> 		</radialGradient> 		<radialGradient id="_8D7D6E10-76CE-4974-A96F-28CB59AAA73Dborderbackground" cx="10%" cy="10%" r="100%" fx="10%" fy="10%"> 			<stop offset="0%" stop-color="#ffffff" stop-opacity="1" id="_8D7D6E10-76CE-4974-A96F-28CB59AAA73D__8D7D6E10-76CE-4974-A96F-28CB59AAA73D_19"/> 			<stop id="_8D7D6E10-76CE-4974-A96F-28CB59AAA73Dfill_border" offset="100%" stop-color="#000000" stop-opacity="1" stroke="#000000"/> 		</radialGradient> 	</defs> 	 	<rect id="_8D7D6E10-76CE-4974-A96F-28CB59AAA73Dtext_frame" oryx:anchors="bottom top right left" x="1" y="1" width="74" height="47" rx="10" ry="10" stroke="none" stroke-width="0" fill="none"/> 	<rect id="_8D7D6E10-76CE-4974-A96F-28CB59AAA73Dbg_frame" oryx:resize="vertical horizontal" x="0" y="0" width="80" height="48" rx="10" ry="10" stroke="#000000" stroke-width="1" fill="url(#_8D7D6E10-76CE-4974-A96F-28CB59AAA73Dbackground) #ffffcc"/> 		<text font-size="12" id="_8D7D6E10-76CE-4974-A96F-28CB59AAA73Dtext_name" x="40" y="24" oryx:align="middle center" oryx:fittoelem="text_frame" stroke="black" text-anchor="middle" stroke-width="0pt" letter-spacing="-0.01px" fill="#000000" transform="rotate(0 40 24)" visibility="inherit" oryx:fontSize="12"><tspan x="40" y="24" dy="-1" id="ext-gen603">Rule_eligibil</tspan><tspan x="40" y="24" dy="11" id="ext-gen602">ity</tspan></text>     <g id="_8D7D6E10-76CE-4974-A96F-28CB59AAA73DmanualTask" transform="scale(0.7,0.7) translate(8,8)" display="none">     	<path oryx:anchors="top left" id="_8D7D6E10-76CE-4974-A96F-28CB59AAA73Dframe" style="opacity:1;fill:none;fill-opacity:1;stroke-width:1" d="M0.5,3.751l4.083-3.25c0,0,11.166,0.083,12.083,0.083s-2.417,2.917-1.5,2.917     s11.667,0,12.584,0c1.166,1.708-0.168,3.167-0.834,3.667s0.875,1.917-1,4.417c-0.75,0.25,0.75,1.875-1.333,3.333     c-1.167,0.583,0.583,1.542-1.25,2.833c-1.167,0-20.833,0.083-20.833,0.083l-2-1.333V3.751z" stroke="#000000"/> 		<path id="_8D7D6E10-76CE-4974-A96F-28CB59AAA73Dframe2" oryx:anchors="top left" style="opacity:1;fill:none;stroke-width:2" d="M 13.5 7 L 27 7" stroke="#000000"/> 		<path id="_8D7D6E10-76CE-4974-A96F-28CB59AAA73Dframe3" oryx:anchors="top left" style="opacity:1;fill:none;stroke-width:2" d="M 13.5 11 L 26 11" stroke="#000000"/> 		<path id="_8D7D6E10-76CE-4974-A96F-28CB59AAA73Dframe4" oryx:anchors="top left" style="opacity:1;fill:none;stroke-width:1.5" d="M 14 14.5 L 25 14.5" stroke="#000000"/> 		<path id="_8D7D6E10-76CE-4974-A96F-28CB59AAA73Dframe5" oryx:anchors="top left" style="opacity:1;fill:none;stroke-width:1.5" d="M 8.2 3.1 L 15 3.1" stroke="#000000"/> 	</g> 	 	<g id="_8D7D6E10-76CE-4974-A96F-28CB59AAA73DbusinessRuleTask" transform="scale(0.7,0.7) translate(8,8)" display="none"> 		<rect id="_8D7D6E10-76CE-4974-A96F-28CB59AAA73Dframe6" oryx:anchors="top left" x="0" y="0" width="22" height="4" style="opacity:1;fill:#B3B1B3;fill-opacity:1;" stroke="#000000"/> 		<rect id="_8D7D6E10-76CE-4974-A96F-28CB59AAA73Dframe7" oryx:anchors="top left" x="0" y="4" style="opacity:1;fill:none;" width="22" height="12" stroke="#000000"/> 		<path id="_8D7D6E10-76CE-4974-A96F-28CB59AAA73Dframe8" oryx:anchors="top left" style="opacity:1;fill:none;" d="M 0 10 L 22 10" stroke="#000000"/> 		<path id="_8D7D6E10-76CE-4974-A96F-28CB59AAA73Dframe9" oryx:anchors="top left" style="opacity:1; fill:none;" d="M 7 4 L 7 16" stroke="#000000"/> 	</g> 	 	<g id="_8D7D6E10-76CE-4974-A96F-28CB59AAA73DscriptTask" transform="scale(0.7,0.7) translate(8,8)" display="inherit"> 		<path oryx:anchors="top left" id="_8D7D6E10-76CE-4974-A96F-28CB59AAA73Dframe10" style="opacity:1;fill:none;" stroke="#000000" d="M6.402,0.5h14.5c0,0-5.833,2.833-5.833,5.583s4.417,6,4.417,9.167    s-4.167,5.083-4.167,5.083H0.235c0,0,5-2.667,5-5s-4.583-6.75-4.583-9.25S6.402,0.5,6.402,0.5z"/> 		<path oryx:anchors="top left" id="_8D7D6E10-76CE-4974-A96F-28CB59AAA73Dframe11" style="opacity:1;fill:none;stroke-width:1.5" d="M 3.5 4.5 L 13.5 4.5" stroke="#000000"/> 		<path oryx:anchors="top left" id="_8D7D6E10-76CE-4974-A96F-28CB59AAA73Dframe12" style="opacity:1;fill:none;stroke-width:1.5" d="M 3.8 8.5 L 13.8 8.5" stroke="#000000"/> 		<path oryx:anchors="top left" id="_8D7D6E10-76CE-4974-A96F-28CB59AAA73Dframe13" style="opacity:1;fill:none;stroke-width:1.5" d="M 6.3 12.5 L 16.3 12.5" stroke="#000000"/> 		<path oryx:anchors="top left" id="_8D7D6E10-76CE-4974-A96F-28CB59AAA73Dframe14" style="opacity:1;fill:none;stroke-width:1.5" d="M 6.5 16.5 L 16.5 16.5" stroke="#000000"/> 	</g> 	 	<g id="_8D7D6E10-76CE-4974-A96F-28CB59AAA73DuserTask" transform="scale(0.7,0.7) translate(8,8)" display="none"> 		<path id="_8D7D6E10-76CE-4974-A96F-28CB59AAA73Dframe15" oryx:anchors="top left" style="opacity:1;fill:#F4F6F7" stroke="#000000" d="M0.585,24.167h24.083v-7.833c0,0-2.333-3.917-7.083-5.167h-9.25    c-4.417,1.333-7.833,5.75-7.833,5.75L0.585,24.167z"/> 		<path id="_8D7D6E10-76CE-4974-A96F-28CB59AAA73Dframe16" oryx:anchors="top left" style="opacity:1;fill:none" d="M 6 20 L 6 24" stroke="#000000"/> 		<path id="_8D7D6E10-76CE-4974-A96F-28CB59AAA73Dframe17" oryx:anchors="top left" style="opacity:1;fill:none" d="M 20 20 L 20 24" stroke="#000000"/> 		<circle id="_8D7D6E10-76CE-4974-A96F-28CB59AAA73Dframe18" oryx:anchors="top left" fill="black" cx="13.002" cy="5.916" r="5.417" stroke="#000000"/> 		<path id="_8D7D6E10-76CE-4974-A96F-28CB59AAA73Dframe19" oryx:anchors="top left" style="opacity:1;fill:#F0EFF0;" stroke="#000000" d="M8.043,7.083c0,0,2.814-2.426,5.376-1.807s4.624-0.693,4.624-0.693    c0.25,1.688,0.042,3.75-1.458,5.584c0,0,1.083,0.75,1.083,1.5s0.125,1.875-1,3s-5.5,1.25-6.75,0S8.668,12.834,8.668,12    s0.583-1.25,1.25-1.917C8.835,9.5,7.419,7.708,8.043,7.083z"/> 	</g> 	 	<g id="_8D7D6E10-76CE-4974-A96F-28CB59AAA73DserviceTask" transform="scale(0.7,0.7) translate(8,8)" display="none"> 		<polygon oryx:anchors="top left" id="_8D7D6E10-76CE-4974-A96F-28CB59AAA73Dframe20" style="opacity:1;fill:#ffffff" stroke="#000000" points="15.392,5.064 17.954,2.502 20.347,4.895 17.786,7.455     18.729,9.732 22.353,9.732 22.353,13.115 18.731,13.115 17.788,15.392 20.351,17.955 17.958,20.347 15.397,17.786 13.12,18.729     13.12,22.353 9.737,22.353 9.737,18.731 7.46,17.788 4.897,20.35 2.506,17.958 5.066,15.397 4.124,13.12 0.5,13.12 0.5,9.737     4.121,9.737 5.065,7.461 2.503,4.898 4.895,2.506 7.455,5.066 9.732,4.125 9.732,0.5 13.116,0.5 13.116,4.121 "/> 		<circle oryx:anchors="top left" id="_8D7D6E10-76CE-4974-A96F-28CB59AAA73Dframe21" style="opacity:1;fill:none" stroke="#000000" cx="11.427" cy="11.426" r="3.714"/> 		<polygon oryx:anchors="top left" id="_8D7D6E10-76CE-4974-A96F-28CB59AAA73Dframe22" style="opacity:1;fill:#ffffff" stroke="#000000" points="21.392,11.064 23.954,8.502 26.347,10.895 23.786,13.455     24.729,15.732 28.353,15.732 28.353,19.115 24.731,19.115 23.788,21.392 26.351,23.955 23.958,26.347 21.397,23.786 19.12,24.729     19.12,28.353 15.737,28.353 15.737,24.731 13.46,23.788 10.897,26.35 8.506,23.958 11.066,21.397 10.124,19.12 6.5,19.12     6.5,15.737 10.121,15.737 11.065,13.461 8.503,10.898 10.895,8.506 13.455,11.066 15.732,10.125 15.732,6.5 19.116,6.5     19.116,10.121 "/> 		<circle oryx:anchors="top left" id="_8D7D6E10-76CE-4974-A96F-28CB59AAA73Dframe23" style="opacity:1;fill:none;" stroke="#000000" cx="17.427" cy="17.426" r="3.714"/> 	</g> 	 	<g id="_8D7D6E10-76CE-4974-A96F-28CB59AAA73DsendTask" display="none"> 		<path id="_8D7D6E10-76CE-4974-A96F-28CB59AAA73Dstframe24" oryx:anchors="left top" stroke="#FFFFFF" fill="black" stroke-width="1" d="M8,11 L8,21 L24,21 L24,11 L16,17z"/> 		<path id="_8D7D6E10-76CE-4974-A96F-28CB59AAA73Dstframe25" oryx:anchors="left top" stroke="#FFFFFF" fill="black" stroke-width="1" d="M7,10 L16,17 L25 10z"/> 	</g> 	 	<g id="_8D7D6E10-76CE-4974-A96F-28CB59AAA73DreceiveTask" display="none"> 		<path id="_8D7D6E10-76CE-4974-A96F-28CB59AAA73Dframe26" oryx:anchors="left top" stroke="#000000" fill="none" stroke-width="1" d="M8,11 L8,21 L24,21 L24,11z M8,11 L16,17 L24,11"/> 	</g> 	 	<g id="_8D7D6E10-76CE-4974-A96F-28CB59AAA73Dnone" display="inherit"/>  	<g id="_8D7D6E10-76CE-4974-A96F-28CB59AAA73Dsequential" display="none">         <path oryx:anchors="bottom" fill="none" stroke="#000000" stroke-width="2" d=" M35.800000000000004 44  h10  M35.800000000000004 40  h10  M35.800000000000004 36  h10 " id="_8D7D6E10-76CE-4974-A96F-28CB59AAA73D__8D7D6E10-76CE-4974-A96F-28CB59AAA73D_20"/>     </g>   </g></g><g class="children" style="overflow:hidden"/><g class="edge"/></g><g class="controls"><g class="dockers"/><g class="magnets" transform="translate(105, 165)"><g pointer-events="all" display="none" transform="translate(-7, 4)"><circle cx="8" cy="8" r="4" stroke="none" fill="red" fill-opacity="0.3"/></g><g pointer-events="all" display="none" transform="translate(-7, 16)"><circle cx="8" cy="8" r="4" stroke="none" fill="red" fill-opacity="0.3"/></g><g pointer-events="all" display="none" transform="translate(-7, 28)"><circle cx="8" cy="8" r="4" stroke="none" fill="red" fill-opacity="0.3"/></g><g pointer-events="all" display="none" transform="translate(12, 39)"><circle cx="8" cy="8" r="4" stroke="none" fill="red" fill-opacity="0.3"/></g><g pointer-events="all" display="none" transform="translate(32, 39)"><circle cx="8" cy="8" r="4" stroke="none" fill="red" fill-opacity="0.3"/></g><g pointer-events="all" display="none" transform="translate(52, 39)"><circle cx="8" cy="8" r="4" stroke="none" fill="red" fill-opacity="0.3"/></g><g pointer-events="all" display="none" transform="translate(71, 4)"><circle cx="8" cy="8" r="4" stroke="none" fill="red" fill-opacity="0.3"/></g><g pointer-events="all" display="none" transform="translate(71, 16)"><circle cx="8" cy="8" r="4" stroke="none" fill="red" fill-opacity="0.3"/></g><g pointer-events="all" display="none" transform="translate(71, 28)"><circle cx="8" cy="8" r="4" stroke="none" fill="red" fill-opacity="0.3"/></g><g pointer-events="all" display="none" transform="translate(12, -7)"><circle cx="8" cy="8" r="4" stroke="none" fill="red" fill-opacity="0.3"/></g><g pointer-events="all" display="none" transform="translate(32, -7)"><circle cx="8" cy="8" r="4" stroke="none" fill="red" fill-opacity="0.3"/></g><g pointer-events="all" display="none" transform="translate(52, -7)"><circle cx="8" cy="8" r="4" stroke="none" fill="red" fill-opacity="0.3"/></g><g pointer-events="all" display="none" transform="translate(32, 16)"><circle cx="8" cy="8" r="4" stroke="none" fill="red" fill-opacity="0.3"/></g></g></g></g></g><g class="edge"><g id="_1400103C-A270-4B0D-8BB8-72F74B33C828" bpmn2nodeid="_6D93A1D5-0FB2-43F1-BFE4-076ED183F05F"><g class="stencils"><g class="me"><g pointer-events="painted" bpmn2nodeid="_1CBF4849-22B9-4D5D-8479-1912D9BD2A4F"><path id="_1400103C-A270-4B0D-8BB8-72F74B33C828_1" d="M320.6245595431685 172.99818989109858L390.5004404568315 140.31431010890142 " stroke="#000000" fill="none" stroke-width="2" stroke-linecap="round" stroke-linejoin="round" marker-start="url(#_1400103C-A270-4B0D-8BB8-72F74B33C828start)" marker-end="url(#_1400103C-A270-4B0D-8BB8-72F74B33C828end)"/></g><text id="_1400103C-A270-4B0D-8BB8-72F74B33C828text_name" font-size="12" x="334.6245595431685" y="158.99818989109858" oryx:edgePosition="startTop" stroke-width="0pt" letter-spacing="-0.01px" fill="#000000" text-anchor="start" transform="rotate(334.93253656193957 320.6245595431685 172.99818989109858)" visibility="inherit" oryx:fontSize="12"/></g><g class="children" style="overflow:hidden"/><g class="edge"/></g><g class="controls"><g class="dockers"/><g class="magnets"/></g></g><g id="_E3716B5D-1867-4C5C-B3C3-FC0552C45B10" bpmn2nodeid="_823735E8-5BF8-4464-B6DC-690F11E31CE8"><g class="stencils"><g class="me"><g pointer-events="painted" bpmn2nodeid="_EB726F6C-6ABB-4556-B3A9-796CEB78B35D"><path id="_E3716B5D-1867-4C5C-B3C3-FC0552C45B10_1" d="M185.02319067783162 189.88940423728513L239.97680932216838 191.11059576271487 " stroke="#000000" fill="none" stroke-width="2" stroke-linecap="round" stroke-linejoin="round" marker-start="url(#_E3716B5D-1867-4C5C-B3C3-FC0552C45B10start)" marker-end="url(#_E3716B5D-1867-4C5C-B3C3-FC0552C45B10end)"/></g><text id="_E3716B5D-1867-4C5C-B3C3-FC0552C45B10text_name" font-size="12" x="199.02319067783162" y="175.88940423728513" oryx:edgePosition="startTop" stroke-width="0pt" letter-spacing="-0.01px" fill="#000000" text-anchor="start" transform="rotate(1.2730300200567513 185.02319067783162 189.88940423728513)" visibility="inherit" oryx:fontSize="12"/></g><g class="children" style="overflow:hidden"/><g class="edge"/></g><g class="controls"><g class="dockers"/><g class="magnets"/></g></g><g id="_2A8B889E-A720-48EC-95EA-627AE9A828DA" bpmn2nodeid="_586C6961-AFC9-4CF5-9E3F-CB37B78CFAF7"><g class="stencils"><g class="me"><g pointer-events="painted" bpmn2nodeid="_0F389F58-CC7E-4457-AE8D-DDA5BE36D606"><path id="_2A8B889E-A720-48EC-95EA-627AE9A828DA_1" d="M61.80400205397662 127.46962651908687L111.94599794602338 164.5538109809131 " stroke="#000000" fill="none" stroke-width="2" stroke-linecap="round" stroke-linejoin="round" marker-start="url(#_2A8B889E-A720-48EC-95EA-627AE9A828DAstart)" marker-end="url(#_2A8B889E-A720-48EC-95EA-627AE9A828DAend)"/></g><text id="_2A8B889E-A720-48EC-95EA-627AE9A828DAtext_name" font-size="12" x="75.80400205397662" y="113.46962651908687" oryx:edgePosition="startTop" stroke-width="0pt" letter-spacing="-0.01px" fill="#000000" text-anchor="start" transform="rotate(36.48601207024967 61.80400205397662 127.46962651908687)" visibility="inherit" oryx:fontSize="12"/></g><g class="children" style="overflow:hidden"/><g class="edge"/></g><g class="controls"><g class="dockers"/><g class="magnets"/></g></g></g><text id="_616EF06F-8028-45AD-9ED5-2A7B26EE9EC1" style="stroke-width:1;fill:rgb(177,194,214);font-family:arial;font-weight:bold" font-size="12" onclick="ORYX.Plugins.CanvasTitle.openTextualAnalysis()" onmouseover="ORYX.Plugins.CanvasTitle.addToolTip('_616EF06F-8028-45AD-9ED5-2A7B26EE9EC1')" transform="translate(10, 20)">MI_Main_Sub_Ineligibility v.1.0 (MI_Main_Sub_Ineligibility)</text></g></g></svg>