<svg xmlns="http://www.w3.org/2000/svg" xmlns:oryx="http://oryx-editor.org" id="_CA9E7E87-E8ED-44DC-908E-63E3A4A6AD1A" width="504.671875" height="312.796875" xmlns:xlink="http://www.w3.org/1999/xlink" xmlns:svg="http://www.w3.org/2000/svg"><defs><marker id="_EDD3548B-6888-42B1-BB15-DC17B88A7678start" refX="1" refY="5" markerUnits="userSpaceOnUse" markerWidth="17" markerHeight="11" orient="auto" fill="#000000" stroke="#000000"> 	  		<path id="_EDD3548B-6888-42B1-BB15-DC17B88A7678conditional" d="M 0 5 L 8 0 L 16 5 L 8 10 L 0 5" fill="white" stroke="#000000" stroke-width="1" display="none"/> 			<path id="_EDD3548B-6888-42B1-BB15-DC17B88A7678default" d="M 5 0 L 11 10" fill="white" stroke="#000000" stroke-width="1" display="none"/> 	  	</marker><marker id="_EDD3548B-6888-42B1-BB15-DC17B88A7678end" refX="15" refY="6" markerUnits="userSpaceOnUse" markerWidth="15" markerHeight="12" orient="auto" fill="#000000" stroke="#000000"> 	  		<path id="_EDD3548B-6888-42B1-BB15-DC17B88A7678frame2" d="M 0 1 L 15 6 L 0 11z" fill="#000000" stroke="#000000" stroke-linejoin="round" stroke-width="2"/> 	  	</marker><marker id="_6D0258FB-467C-4BC6-BC19-F531C6F421F9start" refX="1" refY="5" markerUnits="userSpaceOnUse" markerWidth="17" markerHeight="11" orient="auto" fill="#000000" stroke="#000000"> 	  		<path id="_6D0258FB-467C-4BC6-BC19-F531C6F421F9conditional" d="M 0 5 L 8 0 L 16 5 L 8 10 L 0 5" fill="white" stroke="#000000" stroke-width="1" display="none"/> 			<path id="_6D0258FB-467C-4BC6-BC19-F531C6F421F9default" d="M 5 0 L 11 10" fill="white" stroke="#000000" stroke-width="1" display="none"/> 	  	</marker><marker id="_6D0258FB-467C-4BC6-BC19-F531C6F421F9end" refX="15" refY="6" markerUnits="userSpaceOnUse" markerWidth="15" markerHeight="12" orient="auto" fill="#000000" stroke="#000000"> 	  		<path id="_6D0258FB-467C-4BC6-BC19-F531C6F421F9frame2" d="M 0 1 L 15 6 L 0 11z" fill="#000000" stroke="#000000" stroke-linejoin="round" stroke-width="2"/> 	  	</marker></defs><g stroke="none" font-family="Verdana, sans-serif" font-size-adjust="none" font-style="normal" font-variant="normal" font-weight="normal" line-heigth="normal" font-size="12"><g class="stencils" transform="translate(15, 15.796875)"><g class="me"/><g class="children"><g id="_BF4B3534-C1EC-4DA5-A07F-C89F0195F7CA" bpmn2nodeid="_4F3062A5-B9D3-4B89-9229-27CF9B6DB248"><g class="stencils" transform="translate(85, 120)"><g class="me"><g pointer-events="fill" id="_BF4B3534-C1EC-4DA5-A07F-C89F0195F7CA">        <defs id="_BF4B3534-C1EC-4DA5-A07F-C89F0195F7CA__BF4B3534-C1EC-4DA5-A07F-C89F0195F7CA_5"> 		<radialGradient id="_BF4B3534-C1EC-4DA5-A07F-C89F0195F7CAbackground" cx="10%" cy="10%" r="100%" fx="10%" fy="10%"> 			<stop offset="0%" stop-color="#ffffff" stop-opacity="1" id="_BF4B3534-C1EC-4DA5-A07F-C89F0195F7CA__BF4B3534-C1EC-4DA5-A07F-C89F0195F7CA_6"/> 			<stop id="_BF4B3534-C1EC-4DA5-A07F-C89F0195F7CAfill_el" offset="100%" stop-color="#9acd32" stop-opacity="1"/> 		</radialGradient> 	</defs> 	     <circle id="_BF4B3534-C1EC-4DA5-A07F-C89F0195F7CAbg_frame" cx="15" cy="15" r="15" stroke="#000000" fill="url(#_BF4B3534-C1EC-4DA5-A07F-C89F0195F7CAbackground) white" stroke-width="1" style="stroke-dasharray: 5.5, 3"/>      <circle id="_BF4B3534-C1EC-4DA5-A07F-C89F0195F7CAframe" cx="15" cy="15" r="15" stroke="#000000" fill="none" stroke-width="1" display="none"/>  	<text font-size="11" id="_BF4B3534-C1EC-4DA5-A07F-C89F0195F7CAtext_name" x="15" y="32" oryx:align="top center" stroke="black" stroke-width="0pt" letter-spacing="-0.01px" fill="#000000" text-anchor="middle" transform="rotate(0 15 32)" visibility="inherit" oryx:fontSize="11"><tspan x="15" y="32" dy="11">Start</tspan></text>   </g></g><g class="children" style="overflow:hidden"/><g class="edge"/></g><g class="controls"><g class="dockers"/><g class="magnets" transform="translate(85, 120)"><g pointer-events="all" display="none" transform="translate(7, 7)"><circle cx="8" cy="8" r="4" stroke="none" fill="red" fill-opacity="0.3"/></g></g></g></g><g id="_75A8941B-CF2F-4C94-A4B9-9F4F4A569E13" bpmn2nodeid="_1ADD7851-92F4-4FA9-8887-46EA1C5E2316"><g class="stencils" transform="translate(362, 126)"><g class="me"><g pointer-events="fill" id="_75A8941B-CF2F-4C94-A4B9-9F4F4A569E13">       <defs id="_75A8941B-CF2F-4C94-A4B9-9F4F4A569E13__75A8941B-CF2F-4C94-A4B9-9F4F4A569E13_5"> 		<radialGradient id="_75A8941B-CF2F-4C94-A4B9-9F4F4A569E13background" cx="10%" cy="10%" r="100%" fx="10%" fy="10%"> 			<stop offset="0%" stop-color="#ffffff" stop-opacity="1" id="_75A8941B-CF2F-4C94-A4B9-9F4F4A569E13__75A8941B-CF2F-4C94-A4B9-9F4F4A569E13_6"/> 			<stop id="_75A8941B-CF2F-4C94-A4B9-9F4F4A569E13fill_el" offset="100%" stop-color="#ff6347" stop-opacity="1"/> 		</radialGradient> 		<radialGradient id="_75A8941B-CF2F-4C94-A4B9-9F4F4A569E13borderbackground" cx="10%" cy="10%" r="100%" fx="10%" fy="10%"> 			<stop offset="0%" stop-color="#ffffff" stop-opacity="1" id="_75A8941B-CF2F-4C94-A4B9-9F4F4A569E13__75A8941B-CF2F-4C94-A4B9-9F4F4A569E13_7"/> 			<stop id="_75A8941B-CF2F-4C94-A4B9-9F4F4A569E13fill_border" offset="100%" stop-color="#000000" stop-opacity="1" stroke="#000000"/> 		</radialGradient> 	</defs> 	     <circle id="_75A8941B-CF2F-4C94-A4B9-9F4F4A569E13bg_frame" cx="14" cy="14" r="14" stroke="#000000" fill="url(#_75A8941B-CF2F-4C94-A4B9-9F4F4A569E13background) white" stroke-width="3"/>          <circle id="_75A8941B-CF2F-4C94-A4B9-9F4F4A569E13frame" cx="14" cy="14" r="9" stroke="#000000" fill="url(#_75A8941B-CF2F-4C94-A4B9-9F4F4A569E13borderbackground)" stroke-width="1"/> 	<text font-size="11" id="_75A8941B-CF2F-4C94-A4B9-9F4F4A569E13text_name" x="14" y="30" oryx:align="top center" stroke="black" stroke-width="0pt" letter-spacing="-0.01px" fill="#000000" text-anchor="middle" transform="rotate(0 14 30)" visibility="inherit" oryx:fontSize="11"><tspan x="14" y="30" dy="11">End</tspan></text>   </g></g><g class="children" style="overflow:hidden"/><g class="edge"/></g><g class="controls"><g class="dockers"/><g class="magnets" transform="translate(362, 126)"><g pointer-events="all" display="none" transform="translate(6, 6)"><circle cx="8" cy="8" r="4" stroke="none" fill="red" fill-opacity="0.3"/></g></g></g></g><g id="_C02070D5-C592-407A-AC7A-8E4F467C86E8" bpmn2nodeid="_48FBCDBD-DAB0-49C7-965F-758DFF73D95C"><g class="stencils" transform="translate(150, 195)"><g class="me"><g pointer-events="fill" oryx:minimumSize="50 40" id="_C02070D5-C592-407A-AC7A-8E4F467C86E8">   	<defs id="_C02070D5-C592-407A-AC7A-8E4F467C86E8__C02070D5-C592-407A-AC7A-8E4F467C86E8_17"> 		<radialGradient id="_C02070D5-C592-407A-AC7A-8E4F467C86E8background" cx="10%" cy="10%" r="100%" fx="10%" fy="10%"> 			<stop offset="0%" stop-color="#ffffff" stop-opacity="1" id="_C02070D5-C592-407A-AC7A-8E4F467C86E8__C02070D5-C592-407A-AC7A-8E4F467C86E8_18"/> 			<stop id="_C02070D5-C592-407A-AC7A-8E4F467C86E8fill_el" offset="100%" stop-color="#fafad2" stop-opacity="1"/> 		</radialGradient> 		<radialGradient id="_C02070D5-C592-407A-AC7A-8E4F467C86E8borderbackground" cx="10%" cy="10%" r="100%" fx="10%" fy="10%"> 			<stop offset="0%" stop-color="#ffffff" stop-opacity="1" id="_C02070D5-C592-407A-AC7A-8E4F467C86E8__C02070D5-C592-407A-AC7A-8E4F467C86E8_19"/> 			<stop id="_C02070D5-C592-407A-AC7A-8E4F467C86E8fill_border" offset="100%" stop-color="#000000" stop-opacity="1" stroke="#000000"/> 		</radialGradient> 	</defs> 	 	<rect id="_C02070D5-C592-407A-AC7A-8E4F467C86E8text_frame" oryx:anchors="bottom top right left" x="1" y="1" width="149" height="76" rx="10" ry="10" stroke="none" stroke-width="0" fill="none"/> 	<rect id="_C02070D5-C592-407A-AC7A-8E4F467C86E8bg_frame" oryx:resize="vertical horizontal" x="0" y="0" width="155" height="77" rx="10" ry="10" stroke="#000000" stroke-width="1" fill="url(#_C02070D5-C592-407A-AC7A-8E4F467C86E8background) #ffffcc"/> 		<text font-size="12" id="_C02070D5-C592-407A-AC7A-8E4F467C86E8text_name" x="77.5" y="38.5" oryx:align="middle center" oryx:fittoelem="text_frame" stroke="black" text-anchor="middle" stroke-width="0pt" letter-spacing="-0.01px" fill="#000000" transform="rotate(0 77.5 38.5)" visibility="inherit" oryx:fontSize="12"><tspan x="77.5" y="38.5" dy="-1">MI_MainSub_Determine</tspan><tspan x="77.5" y="38.5" dy="11">AidCategory</tspan></text>     <g id="_C02070D5-C592-407A-AC7A-8E4F467C86E8manualTask" transform="scale(0.7,0.7) translate(8,8)" display="none">     	<path oryx:anchors="top left" id="_C02070D5-C592-407A-AC7A-8E4F467C86E8frame" style="opacity:1;fill:none;fill-opacity:1;stroke-width:1" d="M0.5,3.751l4.083-3.25c0,0,11.166,0.083,12.083,0.083s-2.417,2.917-1.5,2.917     s11.667,0,12.584,0c1.166,1.708-0.168,3.167-0.834,3.667s0.875,1.917-1,4.417c-0.75,0.25,0.75,1.875-1.333,3.333     c-1.167,0.583,0.583,1.542-1.25,2.833c-1.167,0-20.833,0.083-20.833,0.083l-2-1.333V3.751z" stroke="#000000"/> 		<path id="_C02070D5-C592-407A-AC7A-8E4F467C86E8frame2" oryx:anchors="top left" style="opacity:1;fill:none;stroke-width:2" d="M 13.5 7 L 27 7" stroke="#000000"/> 		<path id="_C02070D5-C592-407A-AC7A-8E4F467C86E8frame3" oryx:anchors="top left" style="opacity:1;fill:none;stroke-width:2" d="M 13.5 11 L 26 11" stroke="#000000"/> 		<path id="_C02070D5-C592-407A-AC7A-8E4F467C86E8frame4" oryx:anchors="top left" style="opacity:1;fill:none;stroke-width:1.5" d="M 14 14.5 L 25 14.5" stroke="#000000"/> 		<path id="_C02070D5-C592-407A-AC7A-8E4F467C86E8frame5" oryx:anchors="top left" style="opacity:1;fill:none;stroke-width:1.5" d="M 8.2 3.1 L 15 3.1" stroke="#000000"/> 	</g> 	 	<g id="_C02070D5-C592-407A-AC7A-8E4F467C86E8businessRuleTask" transform="scale(0.7,0.7) translate(8,8)" display="none"> 		<rect id="_C02070D5-C592-407A-AC7A-8E4F467C86E8frame6" oryx:anchors="top left" x="0" y="0" width="22" height="4" style="opacity:1;fill:#B3B1B3;fill-opacity:1;" stroke="#000000"/> 		<rect id="_C02070D5-C592-407A-AC7A-8E4F467C86E8frame7" oryx:anchors="top left" x="0" y="4" style="opacity:1;fill:none;" width="22" height="12" stroke="#000000"/> 		<path id="_C02070D5-C592-407A-AC7A-8E4F467C86E8frame8" oryx:anchors="top left" style="opacity:1;fill:none;" d="M 0 10 L 22 10" stroke="#000000"/> 		<path id="_C02070D5-C592-407A-AC7A-8E4F467C86E8frame9" oryx:anchors="top left" style="opacity:1; fill:none;" d="M 7 4 L 7 16" stroke="#000000"/> 	</g> 	 	<g id="_C02070D5-C592-407A-AC7A-8E4F467C86E8scriptTask" transform="scale(0.7,0.7) translate(8,8)" display="inherit"> 		<path oryx:anchors="top left" id="_C02070D5-C592-407A-AC7A-8E4F467C86E8frame10" style="opacity:1;fill:none;" stroke="#000000" d="M6.402,0.5h14.5c0,0-5.833,2.833-5.833,5.583s4.417,6,4.417,9.167    s-4.167,5.083-4.167,5.083H0.235c0,0,5-2.667,5-5s-4.583-6.75-4.583-9.25S6.402,0.5,6.402,0.5z"/> 		<path oryx:anchors="top left" id="_C02070D5-C592-407A-AC7A-8E4F467C86E8frame11" style="opacity:1;fill:none;stroke-width:1.5" d="M 3.5 4.5 L 13.5 4.5" stroke="#000000"/> 		<path oryx:anchors="top left" id="_C02070D5-C592-407A-AC7A-8E4F467C86E8frame12" style="opacity:1;fill:none;stroke-width:1.5" d="M 3.8 8.5 L 13.8 8.5" stroke="#000000"/> 		<path oryx:anchors="top left" id="_C02070D5-C592-407A-AC7A-8E4F467C86E8frame13" style="opacity:1;fill:none;stroke-width:1.5" d="M 6.3 12.5 L 16.3 12.5" stroke="#000000"/> 		<path oryx:anchors="top left" id="_C02070D5-C592-407A-AC7A-8E4F467C86E8frame14" style="opacity:1;fill:none;stroke-width:1.5" d="M 6.5 16.5 L 16.5 16.5" stroke="#000000"/> 	</g> 	 	<g id="_C02070D5-C592-407A-AC7A-8E4F467C86E8userTask" transform="scale(0.7,0.7) translate(8,8)" display="none"> 		<path id="_C02070D5-C592-407A-AC7A-8E4F467C86E8frame15" oryx:anchors="top left" style="opacity:1;fill:#F4F6F7" stroke="#000000" d="M0.585,24.167h24.083v-7.833c0,0-2.333-3.917-7.083-5.167h-9.25    c-4.417,1.333-7.833,5.75-7.833,5.75L0.585,24.167z"/> 		<path id="_C02070D5-C592-407A-AC7A-8E4F467C86E8frame16" oryx:anchors="top left" style="opacity:1;fill:none" d="M 6 20 L 6 24" stroke="#000000"/> 		<path id="_C02070D5-C592-407A-AC7A-8E4F467C86E8frame17" oryx:anchors="top left" style="opacity:1;fill:none" d="M 20 20 L 20 24" stroke="#000000"/> 		<circle id="_C02070D5-C592-407A-AC7A-8E4F467C86E8frame18" oryx:anchors="top left" fill="black" cx="13.002" cy="5.916" r="5.417" stroke="#000000"/> 		<path id="_C02070D5-C592-407A-AC7A-8E4F467C86E8frame19" oryx:anchors="top left" style="opacity:1;fill:#F0EFF0;" stroke="#000000" d="M8.043,7.083c0,0,2.814-2.426,5.376-1.807s4.624-0.693,4.624-0.693    c0.25,1.688,0.042,3.75-1.458,5.584c0,0,1.083,0.75,1.083,1.5s0.125,1.875-1,3s-5.5,1.25-6.75,0S8.668,12.834,8.668,12    s0.583-1.25,1.25-1.917C8.835,9.5,7.419,7.708,8.043,7.083z"/> 	</g> 	 	<g id="_C02070D5-C592-407A-AC7A-8E4F467C86E8serviceTask" transform="scale(0.7,0.7) translate(8,8)" display="none"> 		<polygon oryx:anchors="top left" id="_C02070D5-C592-407A-AC7A-8E4F467C86E8frame20" style="opacity:1;fill:#ffffff" stroke="#000000" points="15.392,5.064 17.954,2.502 20.347,4.895 17.786,7.455     18.729,9.732 22.353,9.732 22.353,13.115 18.731,13.115 17.788,15.392 20.351,17.955 17.958,20.347 15.397,17.786 13.12,18.729     13.12,22.353 9.737,22.353 9.737,18.731 7.46,17.788 4.897,20.35 2.506,17.958 5.066,15.397 4.124,13.12 0.5,13.12 0.5,9.737     4.121,9.737 5.065,7.461 2.503,4.898 4.895,2.506 7.455,5.066 9.732,4.125 9.732,0.5 13.116,0.5 13.116,4.121 "/> 		<circle oryx:anchors="top left" id="_C02070D5-C592-407A-AC7A-8E4F467C86E8frame21" style="opacity:1;fill:none" stroke="#000000" cx="11.427" cy="11.426" r="3.714"/> 		<polygon oryx:anchors="top left" id="_C02070D5-C592-407A-AC7A-8E4F467C86E8frame22" style="opacity:1;fill:#ffffff" stroke="#000000" points="21.392,11.064 23.954,8.502 26.347,10.895 23.786,13.455     24.729,15.732 28.353,15.732 28.353,19.115 24.731,19.115 23.788,21.392 26.351,23.955 23.958,26.347 21.397,23.786 19.12,24.729     19.12,28.353 15.737,28.353 15.737,24.731 13.46,23.788 10.897,26.35 8.506,23.958 11.066,21.397 10.124,19.12 6.5,19.12     6.5,15.737 10.121,15.737 11.065,13.461 8.503,10.898 10.895,8.506 13.455,11.066 15.732,10.125 15.732,6.5 19.116,6.5     19.116,10.121 "/> 		<circle oryx:anchors="top left" id="_C02070D5-C592-407A-AC7A-8E4F467C86E8frame23" style="opacity:1;fill:none;" stroke="#000000" cx="17.427" cy="17.426" r="3.714"/> 	</g> 	 	<g id="_C02070D5-C592-407A-AC7A-8E4F467C86E8sendTask" display="none"> 		<path id="_C02070D5-C592-407A-AC7A-8E4F467C86E8stframe24" oryx:anchors="left top" stroke="#FFFFFF" fill="black" stroke-width="1" d="M8,11 L8,21 L24,21 L24,11 L16,17z"/> 		<path id="_C02070D5-C592-407A-AC7A-8E4F467C86E8stframe25" oryx:anchors="left top" stroke="#FFFFFF" fill="black" stroke-width="1" d="M7,10 L16,17 L25 10z"/> 	</g> 	 	<g id="_C02070D5-C592-407A-AC7A-8E4F467C86E8receiveTask" display="none"> 		<path id="_C02070D5-C592-407A-AC7A-8E4F467C86E8frame26" oryx:anchors="left top" stroke="#000000" fill="none" stroke-width="1" d="M8,11 L8,21 L24,21 L24,11z M8,11 L16,17 L24,11"/> 	</g> 	 	<g id="_C02070D5-C592-407A-AC7A-8E4F467C86E8none" display="inherit"/>  	<g id="_C02070D5-C592-407A-AC7A-8E4F467C86E8sequential" display="none">         <path oryx:anchors="bottom" fill="none" stroke="#000000" stroke-width="2" d=" M74.05 73  h10  M74.05 69  h10  M74.05 65  h10 " id="_C02070D5-C592-407A-AC7A-8E4F467C86E8__C02070D5-C592-407A-AC7A-8E4F467C86E8_20"/>     </g>   </g></g><g class="children" style="overflow:hidden"/><g class="edge"/></g><g class="controls"><g class="dockers"/><g class="magnets" transform="translate(150, 195)"><g pointer-events="all" display="none" transform="translate(-7, 11.25)"><circle cx="8" cy="8" r="4" stroke="none" fill="red" fill-opacity="0.3"/></g><g pointer-events="all" display="none" transform="translate(-7, 30.5)"><circle cx="8" cy="8" r="4" stroke="none" fill="red" fill-opacity="0.3"/></g><g pointer-events="all" display="none" transform="translate(-7, 49.75)"><circle cx="8" cy="8" r="4" stroke="none" fill="red" fill-opacity="0.3"/></g><g pointer-events="all" display="none" transform="translate(30.75, 68)"><circle cx="8" cy="8" r="4" stroke="none" fill="red" fill-opacity="0.3"/></g><g pointer-events="all" display="none" transform="translate(69.5, 68)"><circle cx="8" cy="8" r="4" stroke="none" fill="red" fill-opacity="0.3"/></g><g pointer-events="all" display="none" transform="translate(108.25, 68)"><circle cx="8" cy="8" r="4" stroke="none" fill="red" fill-opacity="0.3"/></g><g pointer-events="all" display="none" transform="translate(146, 11.25)"><circle cx="8" cy="8" r="4" stroke="none" fill="red" fill-opacity="0.3"/></g><g pointer-events="all" display="none" transform="translate(146, 30.5)"><circle cx="8" cy="8" r="4" stroke="none" fill="red" fill-opacity="0.3"/></g><g pointer-events="all" display="none" transform="translate(146, 49.75)"><circle cx="8" cy="8" r="4" stroke="none" fill="red" fill-opacity="0.3"/></g><g pointer-events="all" display="none" transform="translate(30.75, -7)"><circle cx="8" cy="8" r="4" stroke="none" fill="red" fill-opacity="0.3"/></g><g pointer-events="all" display="none" transform="translate(69.5, -7)"><circle cx="8" cy="8" r="4" stroke="none" fill="red" fill-opacity="0.3"/></g><g pointer-events="all" display="none" transform="translate(108.25, -7)"><circle cx="8" cy="8" r="4" stroke="none" fill="red" fill-opacity="0.3"/></g><g pointer-events="all" display="none" transform="translate(69.5, 30.5)"><circle cx="8" cy="8" r="4" stroke="none" fill="red" fill-opacity="0.3"/></g></g></g></g></g><g class="edge"><g id="_EDD3548B-6888-42B1-BB15-DC17B88A7678" bpmn2nodeid="_327F0DBA-7659-412E-BAD5-7977BB557B55"><g class="stencils"><g class="me"><g pointer-events="painted" bpmn2nodeid="_E750F478-EFE6-45D7-8472-3BFF3B30CB5F"><path id="_EDD3548B-6888-42B1-BB15-DC17B88A7678_1" d="M112.24643137098819 144.46096854935166L176.9039592540118 194.41207832564834 " stroke="#000000" fill="none" stroke-width="2" stroke-linecap="round" stroke-linejoin="round" marker-start="url(#_EDD3548B-6888-42B1-BB15-DC17B88A7678start)" marker-end="url(#_EDD3548B-6888-42B1-BB15-DC17B88A7678end)"/></g><text id="_EDD3548B-6888-42B1-BB15-DC17B88A7678text_name" font-size="12" x="126.24643137098819" y="130.46096854935166" oryx:edgePosition="startTop" stroke-width="0pt" letter-spacing="-0.01px" fill="#000000" text-anchor="start" transform="rotate(37.687845134701774 112.24643137098819 144.46096854935166)" visibility="inherit" oryx:fontSize="12"/></g><g class="children" style="overflow:hidden"/><g class="edge"/></g><g class="controls"><g class="dockers"/><g class="magnets"/></g></g><g id="_6D0258FB-467C-4BC6-BC19-F531C6F421F9" bpmn2nodeid="_67901133-9FA9-4697-8459-097CDD7425B7"><g class="stencils"><g class="me"><g pointer-events="painted" bpmn2nodeid="_9BA83884-9FF5-4DF4-AA45-4276D968FE59"><path id="_6D0258FB-467C-4BC6-BC19-F531C6F421F9_1" d="M288.6743578400897 194.98281173031387L363.5522046599103 147.83750076968613 " stroke="#000000" fill="none" stroke-width="2" stroke-linecap="round" stroke-linejoin="round" marker-start="url(#_6D0258FB-467C-4BC6-BC19-F531C6F421F9start)" marker-end="url(#_6D0258FB-467C-4BC6-BC19-F531C6F421F9end)"/></g><text id="_6D0258FB-467C-4BC6-BC19-F531C6F421F9text_name" font-size="12" x="302.6743578400897" y="180.98281173031387" oryx:edgePosition="startTop" stroke-width="0pt" letter-spacing="-0.01px" fill="#000000" text-anchor="start" transform="rotate(327.80426606528675 288.6743578400897 194.98281173031387)" visibility="inherit" oryx:fontSize="12"/></g><g class="children" style="overflow:hidden"/><g class="edge"/></g><g class="controls"><g class="dockers"/><g class="magnets"/></g></g></g><text id="_518B227A-9E22-4738-B478-19F41922A2FC" style="stroke-width:1;fill:rgb(177,194,214);font-family:arial;font-weight:bold" font-size="12" onclick="ORYX.Plugins.CanvasTitle.openTextualAnalysis()" onmouseover="ORYX.Plugins.CanvasTitle.addToolTip('_518B227A-9E22-4738-B478-19F41922A2FC')" transform="translate(10, 20)">MI_MainSub_DetermineAidCategory v.1.0 (MI_MainSub_DetermineAidCategory)</text></g></g></svg>