<svg xmlns="http://www.w3.org/2000/svg" xmlns:oryx="http://oryx-editor.org" id="_7EDA6C98-5BFB-43D8-88A5-F1470EF47CCE" width="512.1250305175781" height="296.65625" xmlns:xlink="http://www.w3.org/1999/xlink" xmlns:svg="http://www.w3.org/2000/svg"><defs><marker id="_F212B415-79AF-4EDE-97AC-3FB70CA448C8start" refX="1" refY="5" markerUnits="userSpaceOnUse" markerWidth="17" markerHeight="11" orient="auto" fill="#000000" stroke="#000000"> 	  		<path id="_F212B415-79AF-4EDE-97AC-3FB70CA448C8conditional" d="M 0 5 L 8 0 L 16 5 L 8 10 L 0 5" fill="white" stroke="#000000" stroke-width="1" display="none"/> 			<path id="_F212B415-79AF-4EDE-97AC-3FB70CA448C8default" d="M 5 0 L 11 10" fill="white" stroke="#000000" stroke-width="1" display="none"/> 	  	</marker><marker id="_F212B415-79AF-4EDE-97AC-3FB70CA448C8end" refX="15" refY="6" markerUnits="userSpaceOnUse" markerWidth="15" markerHeight="12" orient="auto" fill="#000000" stroke="#000000"> 	  		<path id="_F212B415-79AF-4EDE-97AC-3FB70CA448C8frame2" d="M 0 1 L 15 6 L 0 11z" fill="#000000" stroke="#000000" stroke-linejoin="round" stroke-width="2"/> 	  	</marker><marker id="_C66973FA-200E-46D8-8B01-2F0120334EC9start" refX="1" refY="5" markerUnits="userSpaceOnUse" markerWidth="17" markerHeight="11" orient="auto" fill="#000000" stroke="#000000"> 	  		<path id="_C66973FA-200E-46D8-8B01-2F0120334EC9conditional" d="M 0 5 L 8 0 L 16 5 L 8 10 L 0 5" fill="white" stroke="#000000" stroke-width="1" display="none"/> 			<path id="_C66973FA-200E-46D8-8B01-2F0120334EC9default" d="M 5 0 L 11 10" fill="white" stroke="#000000" stroke-width="1" display="none"/> 	  	</marker><marker id="_C66973FA-200E-46D8-8B01-2F0120334EC9end" refX="15" refY="6" markerUnits="userSpaceOnUse" markerWidth="15" markerHeight="12" orient="auto" fill="#000000" stroke="#000000"> 	  		<path id="_C66973FA-200E-46D8-8B01-2F0120334EC9frame2" d="M 0 1 L 15 6 L 0 11z" fill="#000000" stroke="#000000" stroke-linejoin="round" stroke-width="2"/> 	  	</marker><marker id="_51D6B55F-2C16-4ABB-88D9-2690B5B1029Estart" refX="1" refY="5" markerUnits="userSpaceOnUse" markerWidth="17" markerHeight="11" orient="auto" fill="#000000" stroke="#000000"> 	  		<path id="_51D6B55F-2C16-4ABB-88D9-2690B5B1029Econditional" d="M 0 5 L 8 0 L 16 5 L 8 10 L 0 5" fill="white" stroke="#000000" stroke-width="1" display="none"/> 			<path id="_51D6B55F-2C16-4ABB-88D9-2690B5B1029Edefault" d="M 5 0 L 11 10" fill="white" stroke="#000000" stroke-width="1" display="none"/> 	  	</marker><marker id="_51D6B55F-2C16-4ABB-88D9-2690B5B1029Eend" refX="15" refY="6" markerUnits="userSpaceOnUse" markerWidth="15" markerHeight="12" orient="auto" fill="#000000" stroke="#000000"> 	  		<path id="_51D6B55F-2C16-4ABB-88D9-2690B5B1029Eframe2" d="M 0 1 L 15 6 L 0 11z" fill="#000000" stroke="#000000" stroke-linejoin="round" stroke-width="2"/> 	  	</marker></defs><g stroke="none" font-family="Verdana, sans-serif" font-size-adjust="none" font-style="normal" font-variant="normal" font-weight="normal" line-heigth="normal" font-size="12"><g class="stencils" transform="translate(14.999999046325684, 15.656249046325684)"><g class="me"/><g class="children"><g id="_7F064CDE-3D0C-406A-A3D0-241FFEFE171B" bpmn2nodeid="_522F8C3F-C798-4F43-B4BD-D1FA1062FA52"><g class="stencils" transform="translate(85, 120)"><g class="me"><g pointer-events="fill" id="_7F064CDE-3D0C-406A-A3D0-241FFEFE171B">        <defs id="_7F064CDE-3D0C-406A-A3D0-241FFEFE171B__7F064CDE-3D0C-406A-A3D0-241FFEFE171B_5"> 		<radialGradient id="_7F064CDE-3D0C-406A-A3D0-241FFEFE171Bbackground" cx="10%" cy="10%" r="100%" fx="10%" fy="10%"> 			<stop offset="0%" stop-color="#ffffff" stop-opacity="1" id="_7F064CDE-3D0C-406A-A3D0-241FFEFE171B__7F064CDE-3D0C-406A-A3D0-241FFEFE171B_6"/> 			<stop id="_7F064CDE-3D0C-406A-A3D0-241FFEFE171Bfill_el" offset="100%" stop-color="#9acd32" stop-opacity="1"/> 		</radialGradient> 	</defs> 	     <circle id="_7F064CDE-3D0C-406A-A3D0-241FFEFE171Bbg_frame" cx="15" cy="15" r="15" stroke="#000000" fill="url(#_7F064CDE-3D0C-406A-A3D0-241FFEFE171Bbackground) white" stroke-width="1" style="stroke-dasharray: 5.5, 3"/>      <circle id="_7F064CDE-3D0C-406A-A3D0-241FFEFE171Bframe" cx="15" cy="15" r="15" stroke="#000000" fill="none" stroke-width="1" display="none"/>  	<text font-size="11" id="_7F064CDE-3D0C-406A-A3D0-241FFEFE171Btext_name" x="15" y="32" oryx:align="top center" stroke="black" stroke-width="0pt" letter-spacing="-0.01px" fill="#000000" text-anchor="middle" transform="rotate(0 15 32)" visibility="inherit" oryx:fontSize="11"><tspan x="15" y="32" dy="11">Start</tspan></text>   </g></g><g class="children" style="overflow:hidden"/><g class="edge"/></g><g class="controls"><g class="dockers"/><g class="magnets" transform="translate(85, 120)"><g pointer-events="all" display="none" transform="translate(7, 7)"><circle cx="8" cy="8" r="4" stroke="none" fill="red" fill-opacity="0.3"/></g></g></g></g><g id="_C8D0C5E9-570A-4BC5-9F5B-E0372DD5C3A9" bpmn2nodeid="_497B28F2-7337-437D-90DE-9E999A89FB82"><g class="stencils" transform="translate(263, 208)"><g class="me"><g pointer-events="fill" oryx:minimumSize="50 40" id="_C8D0C5E9-570A-4BC5-9F5B-E0372DD5C3A9">   	<defs id="_C8D0C5E9-570A-4BC5-9F5B-E0372DD5C3A9__C8D0C5E9-570A-4BC5-9F5B-E0372DD5C3A9_17"> 		<radialGradient id="_C8D0C5E9-570A-4BC5-9F5B-E0372DD5C3A9background" cx="10%" cy="10%" r="100%" fx="10%" fy="10%"> 			<stop offset="0%" stop-color="#ffffff" stop-opacity="1" id="_C8D0C5E9-570A-4BC5-9F5B-E0372DD5C3A9__C8D0C5E9-570A-4BC5-9F5B-E0372DD5C3A9_18"/> 			<stop id="_C8D0C5E9-570A-4BC5-9F5B-E0372DD5C3A9fill_el" offset="100%" stop-color="#fafad2" stop-opacity="1"/> 		</radialGradient> 		<radialGradient id="_C8D0C5E9-570A-4BC5-9F5B-E0372DD5C3A9borderbackground" cx="10%" cy="10%" r="100%" fx="10%" fy="10%"> 			<stop offset="0%" stop-color="#ffffff" stop-opacity="1" id="_C8D0C5E9-570A-4BC5-9F5B-E0372DD5C3A9__C8D0C5E9-570A-4BC5-9F5B-E0372DD5C3A9_19"/> 			<stop id="_C8D0C5E9-570A-4BC5-9F5B-E0372DD5C3A9fill_border" offset="100%" stop-color="#000000" stop-opacity="1" stroke="#000000"/> 		</radialGradient> 	</defs> 	 	<rect id="_C8D0C5E9-570A-4BC5-9F5B-E0372DD5C3A9text_frame" oryx:anchors="bottom top right left" x="1" y="1" width="74" height="47" rx="10" ry="10" stroke="none" stroke-width="0" fill="none"/> 	<rect id="_C8D0C5E9-570A-4BC5-9F5B-E0372DD5C3A9bg_frame" oryx:resize="vertical horizontal" x="0" y="0" width="80" height="48" rx="10" ry="10" stroke="#000000" stroke-width="1" fill="url(#_C8D0C5E9-570A-4BC5-9F5B-E0372DD5C3A9background) #ffffcc"/> 		<text font-size="12" id="_C8D0C5E9-570A-4BC5-9F5B-E0372DD5C3A9text_name" x="40" y="24" oryx:align="middle center" oryx:fittoelem="text_frame" stroke="black" text-anchor="middle" stroke-width="0pt" letter-spacing="-0.01px" fill="#000000" transform="rotate(0 40 24)" visibility="inherit" oryx:fontSize="12"><tspan x="40" y="24" dy="-7">Rule_FPLLe</tspan><tspan x="40" y="24" dy="5" id="ext-gen663">velDetermi</tspan><tspan x="40" y="24" dy="17">nation</tspan></text>     <g id="_C8D0C5E9-570A-4BC5-9F5B-E0372DD5C3A9manualTask" transform="scale(0.7,0.7) translate(8,8)" display="none">     	<path oryx:anchors="top left" id="_C8D0C5E9-570A-4BC5-9F5B-E0372DD5C3A9frame" style="opacity:1;fill:none;fill-opacity:1;stroke-width:1" d="M0.5,3.751l4.083-3.25c0,0,11.166,0.083,12.083,0.083s-2.417,2.917-1.5,2.917     s11.667,0,12.584,0c1.166,1.708-0.168,3.167-0.834,3.667s0.875,1.917-1,4.417c-0.75,0.25,0.75,1.875-1.333,3.333     c-1.167,0.583,0.583,1.542-1.25,2.833c-1.167,0-20.833,0.083-20.833,0.083l-2-1.333V3.751z" stroke="#000000"/> 		<path id="_C8D0C5E9-570A-4BC5-9F5B-E0372DD5C3A9frame2" oryx:anchors="top left" style="opacity:1;fill:none;stroke-width:2" d="M 13.5 7 L 27 7" stroke="#000000"/> 		<path id="_C8D0C5E9-570A-4BC5-9F5B-E0372DD5C3A9frame3" oryx:anchors="top left" style="opacity:1;fill:none;stroke-width:2" d="M 13.5 11 L 26 11" stroke="#000000"/> 		<path id="_C8D0C5E9-570A-4BC5-9F5B-E0372DD5C3A9frame4" oryx:anchors="top left" style="opacity:1;fill:none;stroke-width:1.5" d="M 14 14.5 L 25 14.5" stroke="#000000"/> 		<path id="_C8D0C5E9-570A-4BC5-9F5B-E0372DD5C3A9frame5" oryx:anchors="top left" style="opacity:1;fill:none;stroke-width:1.5" d="M 8.2 3.1 L 15 3.1" stroke="#000000"/> 	</g> 	 	<g id="_C8D0C5E9-570A-4BC5-9F5B-E0372DD5C3A9businessRuleTask" transform="scale(0.7,0.7) translate(8,8)" display="inherit"> 		<rect id="_C8D0C5E9-570A-4BC5-9F5B-E0372DD5C3A9frame6" oryx:anchors="top left" x="0" y="0" width="22" height="4" style="opacity:1;fill:#B3B1B3;fill-opacity:1;" stroke="#000000"/> 		<rect id="_C8D0C5E9-570A-4BC5-9F5B-E0372DD5C3A9frame7" oryx:anchors="top left" x="0" y="4" style="opacity:1;fill:none;" width="22" height="12" stroke="#000000"/> 		<path id="_C8D0C5E9-570A-4BC5-9F5B-E0372DD5C3A9frame8" oryx:anchors="top left" style="opacity:1;fill:none;" d="M 0 10 L 22 10" stroke="#000000"/> 		<path id="_C8D0C5E9-570A-4BC5-9F5B-E0372DD5C3A9frame9" oryx:anchors="top left" style="opacity:1; fill:none;" d="M 7 4 L 7 16" stroke="#000000"/> 	</g> 	 	<g id="_C8D0C5E9-570A-4BC5-9F5B-E0372DD5C3A9scriptTask" transform="scale(0.7,0.7) translate(8,8)" display="none"> 		<path oryx:anchors="top left" id="_C8D0C5E9-570A-4BC5-9F5B-E0372DD5C3A9frame10" style="opacity:1;fill:none;" stroke="#000000" d="M6.402,0.5h14.5c0,0-5.833,2.833-5.833,5.583s4.417,6,4.417,9.167    s-4.167,5.083-4.167,5.083H0.235c0,0,5-2.667,5-5s-4.583-6.75-4.583-9.25S6.402,0.5,6.402,0.5z"/> 		<path oryx:anchors="top left" id="_C8D0C5E9-570A-4BC5-9F5B-E0372DD5C3A9frame11" style="opacity:1;fill:none;stroke-width:1.5" d="M 3.5 4.5 L 13.5 4.5" stroke="#000000"/> 		<path oryx:anchors="top left" id="_C8D0C5E9-570A-4BC5-9F5B-E0372DD5C3A9frame12" style="opacity:1;fill:none;stroke-width:1.5" d="M 3.8 8.5 L 13.8 8.5" stroke="#000000"/> 		<path oryx:anchors="top left" id="_C8D0C5E9-570A-4BC5-9F5B-E0372DD5C3A9frame13" style="opacity:1;fill:none;stroke-width:1.5" d="M 6.3 12.5 L 16.3 12.5" stroke="#000000"/> 		<path oryx:anchors="top left" id="_C8D0C5E9-570A-4BC5-9F5B-E0372DD5C3A9frame14" style="opacity:1;fill:none;stroke-width:1.5" d="M 6.5 16.5 L 16.5 16.5" stroke="#000000"/> 	</g> 	 	<g id="_C8D0C5E9-570A-4BC5-9F5B-E0372DD5C3A9userTask" transform="scale(0.7,0.7) translate(8,8)" display="none"> 		<path id="_C8D0C5E9-570A-4BC5-9F5B-E0372DD5C3A9frame15" oryx:anchors="top left" style="opacity:1;fill:#F4F6F7" stroke="#000000" d="M0.585,24.167h24.083v-7.833c0,0-2.333-3.917-7.083-5.167h-9.25    c-4.417,1.333-7.833,5.75-7.833,5.75L0.585,24.167z"/> 		<path id="_C8D0C5E9-570A-4BC5-9F5B-E0372DD5C3A9frame16" oryx:anchors="top left" style="opacity:1;fill:none" d="M 6 20 L 6 24" stroke="#000000"/> 		<path id="_C8D0C5E9-570A-4BC5-9F5B-E0372DD5C3A9frame17" oryx:anchors="top left" style="opacity:1;fill:none" d="M 20 20 L 20 24" stroke="#000000"/> 		<circle id="_C8D0C5E9-570A-4BC5-9F5B-E0372DD5C3A9frame18" oryx:anchors="top left" fill="black" cx="13.002" cy="5.916" r="5.417" stroke="#000000"/> 		<path id="_C8D0C5E9-570A-4BC5-9F5B-E0372DD5C3A9frame19" oryx:anchors="top left" style="opacity:1;fill:#F0EFF0;" stroke="#000000" d="M8.043,7.083c0,0,2.814-2.426,5.376-1.807s4.624-0.693,4.624-0.693    c0.25,1.688,0.042,3.75-1.458,5.584c0,0,1.083,0.75,1.083,1.5s0.125,1.875-1,3s-5.5,1.25-6.75,0S8.668,12.834,8.668,12    s0.583-1.25,1.25-1.917C8.835,9.5,7.419,7.708,8.043,7.083z"/> 	</g> 	 	<g id="_C8D0C5E9-570A-4BC5-9F5B-E0372DD5C3A9serviceTask" transform="scale(0.7,0.7) translate(8,8)" display="none"> 		<polygon oryx:anchors="top left" id="_C8D0C5E9-570A-4BC5-9F5B-E0372DD5C3A9frame20" style="opacity:1;fill:#ffffff" stroke="#000000" points="15.392,5.064 17.954,2.502 20.347,4.895 17.786,7.455     18.729,9.732 22.353,9.732 22.353,13.115 18.731,13.115 17.788,15.392 20.351,17.955 17.958,20.347 15.397,17.786 13.12,18.729     13.12,22.353 9.737,22.353 9.737,18.731 7.46,17.788 4.897,20.35 2.506,17.958 5.066,15.397 4.124,13.12 0.5,13.12 0.5,9.737     4.121,9.737 5.065,7.461 2.503,4.898 4.895,2.506 7.455,5.066 9.732,4.125 9.732,0.5 13.116,0.5 13.116,4.121 "/> 		<circle oryx:anchors="top left" id="_C8D0C5E9-570A-4BC5-9F5B-E0372DD5C3A9frame21" style="opacity:1;fill:none" stroke="#000000" cx="11.427" cy="11.426" r="3.714"/> 		<polygon oryx:anchors="top left" id="_C8D0C5E9-570A-4BC5-9F5B-E0372DD5C3A9frame22" style="opacity:1;fill:#ffffff" stroke="#000000" points="21.392,11.064 23.954,8.502 26.347,10.895 23.786,13.455     24.729,15.732 28.353,15.732 28.353,19.115 24.731,19.115 23.788,21.392 26.351,23.955 23.958,26.347 21.397,23.786 19.12,24.729     19.12,28.353 15.737,28.353 15.737,24.731 13.46,23.788 10.897,26.35 8.506,23.958 11.066,21.397 10.124,19.12 6.5,19.12     6.5,15.737 10.121,15.737 11.065,13.461 8.503,10.898 10.895,8.506 13.455,11.066 15.732,10.125 15.732,6.5 19.116,6.5     19.116,10.121 "/> 		<circle oryx:anchors="top left" id="_C8D0C5E9-570A-4BC5-9F5B-E0372DD5C3A9frame23" style="opacity:1;fill:none;" stroke="#000000" cx="17.427" cy="17.426" r="3.714"/> 	</g> 	 	<g id="_C8D0C5E9-570A-4BC5-9F5B-E0372DD5C3A9sendTask" display="none"> 		<path id="_C8D0C5E9-570A-4BC5-9F5B-E0372DD5C3A9stframe24" oryx:anchors="left top" stroke="#FFFFFF" fill="black" stroke-width="1" d="M8,11 L8,21 L24,21 L24,11 L16,17z"/> 		<path id="_C8D0C5E9-570A-4BC5-9F5B-E0372DD5C3A9stframe25" oryx:anchors="left top" stroke="#FFFFFF" fill="black" stroke-width="1" d="M7,10 L16,17 L25 10z"/> 	</g> 	 	<g id="_C8D0C5E9-570A-4BC5-9F5B-E0372DD5C3A9receiveTask" display="none"> 		<path id="_C8D0C5E9-570A-4BC5-9F5B-E0372DD5C3A9frame26" oryx:anchors="left top" stroke="#000000" fill="none" stroke-width="1" d="M8,11 L8,21 L24,21 L24,11z M8,11 L16,17 L24,11"/> 	</g> 	 	<g id="_C8D0C5E9-570A-4BC5-9F5B-E0372DD5C3A9none" display="inherit"/>  	<g id="_C8D0C5E9-570A-4BC5-9F5B-E0372DD5C3A9sequential" display="none">         <path oryx:anchors="bottom" fill="none" stroke="#000000" stroke-width="2" d=" M35.800000000000004 44  h10  M35.800000000000004 40  h10  M35.800000000000004 36  h10 " id="_C8D0C5E9-570A-4BC5-9F5B-E0372DD5C3A9__C8D0C5E9-570A-4BC5-9F5B-E0372DD5C3A9_20"/>     </g>   </g></g><g class="children" style="overflow:hidden"/><g class="edge"/></g><g class="controls"><g class="dockers"/><g class="magnets" transform="translate(263, 208)"><g pointer-events="all" display="none" transform="translate(-7, 4)"><circle cx="8" cy="8" r="4" stroke="none" fill="red" fill-opacity="0.3"/></g><g pointer-events="all" display="none" transform="translate(-7, 16)"><circle cx="8" cy="8" r="4" stroke="none" fill="red" fill-opacity="0.3"/></g><g pointer-events="all" display="none" transform="translate(-7, 28)"><circle cx="8" cy="8" r="4" stroke="none" fill="red" fill-opacity="0.3"/></g><g pointer-events="all" display="none" transform="translate(12, 39)"><circle cx="8" cy="8" r="4" stroke="none" fill="red" fill-opacity="0.3"/></g><g pointer-events="all" display="none" transform="translate(32, 39)"><circle cx="8" cy="8" r="4" stroke="none" fill="red" fill-opacity="0.3"/></g><g pointer-events="all" display="none" transform="translate(52, 39)"><circle cx="8" cy="8" r="4" stroke="none" fill="red" fill-opacity="0.3"/></g><g pointer-events="all" display="none" transform="translate(71, 4)"><circle cx="8" cy="8" r="4" stroke="none" fill="red" fill-opacity="0.3"/></g><g pointer-events="all" display="none" transform="translate(71, 16)"><circle cx="8" cy="8" r="4" stroke="none" fill="red" fill-opacity="0.3"/></g><g pointer-events="all" display="none" transform="translate(71, 28)"><circle cx="8" cy="8" r="4" stroke="none" fill="red" fill-opacity="0.3"/></g><g pointer-events="all" display="none" transform="translate(12, -7)"><circle cx="8" cy="8" r="4" stroke="none" fill="red" fill-opacity="0.3"/></g><g pointer-events="all" display="none" transform="translate(32, -7)"><circle cx="8" cy="8" r="4" stroke="none" fill="red" fill-opacity="0.3"/></g><g pointer-events="all" display="none" transform="translate(52, -7)"><circle cx="8" cy="8" r="4" stroke="none" fill="red" fill-opacity="0.3"/></g><g pointer-events="all" display="none" transform="translate(32, 16)"><circle cx="8" cy="8" r="4" stroke="none" fill="red" fill-opacity="0.3"/></g></g></g></g><g id="_A2997838-9EEB-4FA2-A8B4-A80B6477B525" bpmn2nodeid="_BAE3EF25-1933-4349-933B-9ECBC668E200"><g class="stencils" transform="translate(362, 126)"><g class="me"><g pointer-events="fill" id="_A2997838-9EEB-4FA2-A8B4-A80B6477B525">       <defs id="_A2997838-9EEB-4FA2-A8B4-A80B6477B525__A2997838-9EEB-4FA2-A8B4-A80B6477B525_5"> 		<radialGradient id="_A2997838-9EEB-4FA2-A8B4-A80B6477B525background" cx="10%" cy="10%" r="100%" fx="10%" fy="10%"> 			<stop offset="0%" stop-color="#ffffff" stop-opacity="1" id="_A2997838-9EEB-4FA2-A8B4-A80B6477B525__A2997838-9EEB-4FA2-A8B4-A80B6477B525_6"/> 			<stop id="_A2997838-9EEB-4FA2-A8B4-A80B6477B525fill_el" offset="100%" stop-color="#ff6347" stop-opacity="1"/> 		</radialGradient> 		<radialGradient id="_A2997838-9EEB-4FA2-A8B4-A80B6477B525borderbackground" cx="10%" cy="10%" r="100%" fx="10%" fy="10%"> 			<stop offset="0%" stop-color="#ffffff" stop-opacity="1" id="_A2997838-9EEB-4FA2-A8B4-A80B6477B525__A2997838-9EEB-4FA2-A8B4-A80B6477B525_7"/> 			<stop id="_A2997838-9EEB-4FA2-A8B4-A80B6477B525fill_border" offset="100%" stop-color="#000000" stop-opacity="1" stroke="#000000"/> 		</radialGradient> 	</defs> 	     <circle id="_A2997838-9EEB-4FA2-A8B4-A80B6477B525bg_frame" cx="14" cy="14" r="14" stroke="#000000" fill="url(#_A2997838-9EEB-4FA2-A8B4-A80B6477B525background) white" stroke-width="3"/>          <circle id="_A2997838-9EEB-4FA2-A8B4-A80B6477B525frame" cx="14" cy="14" r="9" stroke="#000000" fill="url(#_A2997838-9EEB-4FA2-A8B4-A80B6477B525borderbackground)" stroke-width="1"/> 	<text font-size="11" id="_A2997838-9EEB-4FA2-A8B4-A80B6477B525text_name" x="14" y="30" oryx:align="top center" stroke="black" stroke-width="0pt" letter-spacing="-0.01px" fill="#000000" text-anchor="middle" transform="rotate(0 14 30)" visibility="inherit" oryx:fontSize="11"><tspan x="14" y="30" dy="11" id="ext-gen665">End</tspan></text>   </g></g><g class="children" style="overflow:hidden"/><g class="edge"/></g><g class="controls"><g class="dockers"/><g class="magnets" transform="translate(362, 126)"><g pointer-events="all" display="none" transform="translate(6, 6)"><circle cx="8" cy="8" r="4" stroke="none" fill="red" fill-opacity="0.3"/></g></g></g></g><g id="_5AC01B42-F0B6-46F8-9D8B-FF11C5B72BF4" bpmn2nodeid="_C74D5F8E-3CF6-428E-BE12-A50D04F1792E"><g class="stencils" transform="translate(153, 208)"><g class="me"><g pointer-events="fill" oryx:minimumSize="50 40" id="_5AC01B42-F0B6-46F8-9D8B-FF11C5B72BF4">   	<defs id="_5AC01B42-F0B6-46F8-9D8B-FF11C5B72BF4__5AC01B42-F0B6-46F8-9D8B-FF11C5B72BF4_17"> 		<radialGradient id="_5AC01B42-F0B6-46F8-9D8B-FF11C5B72BF4background" cx="10%" cy="10%" r="100%" fx="10%" fy="10%"> 			<stop offset="0%" stop-color="#ffffff" stop-opacity="1" id="_5AC01B42-F0B6-46F8-9D8B-FF11C5B72BF4__5AC01B42-F0B6-46F8-9D8B-FF11C5B72BF4_18"/> 			<stop id="_5AC01B42-F0B6-46F8-9D8B-FF11C5B72BF4fill_el" offset="100%" stop-color="#fafad2" stop-opacity="1"/> 		</radialGradient> 		<radialGradient id="_5AC01B42-F0B6-46F8-9D8B-FF11C5B72BF4borderbackground" cx="10%" cy="10%" r="100%" fx="10%" fy="10%"> 			<stop offset="0%" stop-color="#ffffff" stop-opacity="1" id="_5AC01B42-F0B6-46F8-9D8B-FF11C5B72BF4__5AC01B42-F0B6-46F8-9D8B-FF11C5B72BF4_19"/> 			<stop id="_5AC01B42-F0B6-46F8-9D8B-FF11C5B72BF4fill_border" offset="100%" stop-color="#000000" stop-opacity="1" stroke="#000000"/> 		</radialGradient> 	</defs> 	 	<rect id="_5AC01B42-F0B6-46F8-9D8B-FF11C5B72BF4text_frame" oryx:anchors="bottom top right left" x="1" y="1" width="74" height="47" rx="10" ry="10" stroke="none" stroke-width="0" fill="none"/> 	<rect id="_5AC01B42-F0B6-46F8-9D8B-FF11C5B72BF4bg_frame" oryx:resize="vertical horizontal" x="0" y="0" width="80" height="48" rx="10" ry="10" stroke="#000000" stroke-width="1" fill="url(#_5AC01B42-F0B6-46F8-9D8B-FF11C5B72BF4background) #ffffcc"/> 		<text font-size="12" id="_5AC01B42-F0B6-46F8-9D8B-FF11C5B72BF4text_name" x="40" y="24" oryx:align="middle center" oryx:fittoelem="text_frame" stroke="black" text-anchor="middle" stroke-width="0pt" letter-spacing="-0.01px" fill="#000000" transform="rotate(0 40 24)" visibility="inherit" oryx:fontSize="12"><tspan x="40" y="24" dy="-7" id="ext-gen660">RuleS_FPLL</tspan><tspan x="40" y="24" dy="5" id="ext-gen661">evelDetermi</tspan><tspan x="40" y="24" dy="17" id="ext-gen662">nation</tspan></text>     <g id="_5AC01B42-F0B6-46F8-9D8B-FF11C5B72BF4manualTask" transform="scale(0.7,0.7) translate(8,8)" display="none">     	<path oryx:anchors="top left" id="_5AC01B42-F0B6-46F8-9D8B-FF11C5B72BF4frame" style="opacity:1;fill:none;fill-opacity:1;stroke-width:1" d="M0.5,3.751l4.083-3.25c0,0,11.166,0.083,12.083,0.083s-2.417,2.917-1.5,2.917     s11.667,0,12.584,0c1.166,1.708-0.168,3.167-0.834,3.667s0.875,1.917-1,4.417c-0.75,0.25,0.75,1.875-1.333,3.333     c-1.167,0.583,0.583,1.542-1.25,2.833c-1.167,0-20.833,0.083-20.833,0.083l-2-1.333V3.751z" stroke="#000000"/> 		<path id="_5AC01B42-F0B6-46F8-9D8B-FF11C5B72BF4frame2" oryx:anchors="top left" style="opacity:1;fill:none;stroke-width:2" d="M 13.5 7 L 27 7" stroke="#000000"/> 		<path id="_5AC01B42-F0B6-46F8-9D8B-FF11C5B72BF4frame3" oryx:anchors="top left" style="opacity:1;fill:none;stroke-width:2" d="M 13.5 11 L 26 11" stroke="#000000"/> 		<path id="_5AC01B42-F0B6-46F8-9D8B-FF11C5B72BF4frame4" oryx:anchors="top left" style="opacity:1;fill:none;stroke-width:1.5" d="M 14 14.5 L 25 14.5" stroke="#000000"/> 		<path id="_5AC01B42-F0B6-46F8-9D8B-FF11C5B72BF4frame5" oryx:anchors="top left" style="opacity:1;fill:none;stroke-width:1.5" d="M 8.2 3.1 L 15 3.1" stroke="#000000"/> 	</g> 	 	<g id="_5AC01B42-F0B6-46F8-9D8B-FF11C5B72BF4businessRuleTask" transform="scale(0.7,0.7) translate(8,8)" display="none"> 		<rect id="_5AC01B42-F0B6-46F8-9D8B-FF11C5B72BF4frame6" oryx:anchors="top left" x="0" y="0" width="22" height="4" style="opacity:1;fill:#B3B1B3;fill-opacity:1;" stroke="#000000"/> 		<rect id="_5AC01B42-F0B6-46F8-9D8B-FF11C5B72BF4frame7" oryx:anchors="top left" x="0" y="4" style="opacity:1;fill:none;" width="22" height="12" stroke="#000000"/> 		<path id="_5AC01B42-F0B6-46F8-9D8B-FF11C5B72BF4frame8" oryx:anchors="top left" style="opacity:1;fill:none;" d="M 0 10 L 22 10" stroke="#000000"/> 		<path id="_5AC01B42-F0B6-46F8-9D8B-FF11C5B72BF4frame9" oryx:anchors="top left" style="opacity:1; fill:none;" d="M 7 4 L 7 16" stroke="#000000"/> 	</g> 	 	<g id="_5AC01B42-F0B6-46F8-9D8B-FF11C5B72BF4scriptTask" transform="scale(0.7,0.7) translate(8,8)" display="inherit"> 		<path oryx:anchors="top left" id="_5AC01B42-F0B6-46F8-9D8B-FF11C5B72BF4frame10" style="opacity:1;fill:none;" stroke="#000000" d="M6.402,0.5h14.5c0,0-5.833,2.833-5.833,5.583s4.417,6,4.417,9.167    s-4.167,5.083-4.167,5.083H0.235c0,0,5-2.667,5-5s-4.583-6.75-4.583-9.25S6.402,0.5,6.402,0.5z"/> 		<path oryx:anchors="top left" id="_5AC01B42-F0B6-46F8-9D8B-FF11C5B72BF4frame11" style="opacity:1;fill:none;stroke-width:1.5" d="M 3.5 4.5 L 13.5 4.5" stroke="#000000"/> 		<path oryx:anchors="top left" id="_5AC01B42-F0B6-46F8-9D8B-FF11C5B72BF4frame12" style="opacity:1;fill:none;stroke-width:1.5" d="M 3.8 8.5 L 13.8 8.5" stroke="#000000"/> 		<path oryx:anchors="top left" id="_5AC01B42-F0B6-46F8-9D8B-FF11C5B72BF4frame13" style="opacity:1;fill:none;stroke-width:1.5" d="M 6.3 12.5 L 16.3 12.5" stroke="#000000"/> 		<path oryx:anchors="top left" id="_5AC01B42-F0B6-46F8-9D8B-FF11C5B72BF4frame14" style="opacity:1;fill:none;stroke-width:1.5" d="M 6.5 16.5 L 16.5 16.5" stroke="#000000"/> 	</g> 	 	<g id="_5AC01B42-F0B6-46F8-9D8B-FF11C5B72BF4userTask" transform="scale(0.7,0.7) translate(8,8)" display="none"> 		<path id="_5AC01B42-F0B6-46F8-9D8B-FF11C5B72BF4frame15" oryx:anchors="top left" style="opacity:1;fill:#F4F6F7" stroke="#000000" d="M0.585,24.167h24.083v-7.833c0,0-2.333-3.917-7.083-5.167h-9.25    c-4.417,1.333-7.833,5.75-7.833,5.75L0.585,24.167z"/> 		<path id="_5AC01B42-F0B6-46F8-9D8B-FF11C5B72BF4frame16" oryx:anchors="top left" style="opacity:1;fill:none" d="M 6 20 L 6 24" stroke="#000000"/> 		<path id="_5AC01B42-F0B6-46F8-9D8B-FF11C5B72BF4frame17" oryx:anchors="top left" style="opacity:1;fill:none" d="M 20 20 L 20 24" stroke="#000000"/> 		<circle id="_5AC01B42-F0B6-46F8-9D8B-FF11C5B72BF4frame18" oryx:anchors="top left" fill="black" cx="13.002" cy="5.916" r="5.417" stroke="#000000"/> 		<path id="_5AC01B42-F0B6-46F8-9D8B-FF11C5B72BF4frame19" oryx:anchors="top left" style="opacity:1;fill:#F0EFF0;" stroke="#000000" d="M8.043,7.083c0,0,2.814-2.426,5.376-1.807s4.624-0.693,4.624-0.693    c0.25,1.688,0.042,3.75-1.458,5.584c0,0,1.083,0.75,1.083,1.5s0.125,1.875-1,3s-5.5,1.25-6.75,0S8.668,12.834,8.668,12    s0.583-1.25,1.25-1.917C8.835,9.5,7.419,7.708,8.043,7.083z"/> 	</g> 	 	<g id="_5AC01B42-F0B6-46F8-9D8B-FF11C5B72BF4serviceTask" transform="scale(0.7,0.7) translate(8,8)" display="none"> 		<polygon oryx:anchors="top left" id="_5AC01B42-F0B6-46F8-9D8B-FF11C5B72BF4frame20" style="opacity:1;fill:#ffffff" stroke="#000000" points="15.392,5.064 17.954,2.502 20.347,4.895 17.786,7.455     18.729,9.732 22.353,9.732 22.353,13.115 18.731,13.115 17.788,15.392 20.351,17.955 17.958,20.347 15.397,17.786 13.12,18.729     13.12,22.353 9.737,22.353 9.737,18.731 7.46,17.788 4.897,20.35 2.506,17.958 5.066,15.397 4.124,13.12 0.5,13.12 0.5,9.737     4.121,9.737 5.065,7.461 2.503,4.898 4.895,2.506 7.455,5.066 9.732,4.125 9.732,0.5 13.116,0.5 13.116,4.121 "/> 		<circle oryx:anchors="top left" id="_5AC01B42-F0B6-46F8-9D8B-FF11C5B72BF4frame21" style="opacity:1;fill:none" stroke="#000000" cx="11.427" cy="11.426" r="3.714"/> 		<polygon oryx:anchors="top left" id="_5AC01B42-F0B6-46F8-9D8B-FF11C5B72BF4frame22" style="opacity:1;fill:#ffffff" stroke="#000000" points="21.392,11.064 23.954,8.502 26.347,10.895 23.786,13.455     24.729,15.732 28.353,15.732 28.353,19.115 24.731,19.115 23.788,21.392 26.351,23.955 23.958,26.347 21.397,23.786 19.12,24.729     19.12,28.353 15.737,28.353 15.737,24.731 13.46,23.788 10.897,26.35 8.506,23.958 11.066,21.397 10.124,19.12 6.5,19.12     6.5,15.737 10.121,15.737 11.065,13.461 8.503,10.898 10.895,8.506 13.455,11.066 15.732,10.125 15.732,6.5 19.116,6.5     19.116,10.121 "/> 		<circle oryx:anchors="top left" id="_5AC01B42-F0B6-46F8-9D8B-FF11C5B72BF4frame23" style="opacity:1;fill:none;" stroke="#000000" cx="17.427" cy="17.426" r="3.714"/> 	</g> 	 	<g id="_5AC01B42-F0B6-46F8-9D8B-FF11C5B72BF4sendTask" display="none"> 		<path id="_5AC01B42-F0B6-46F8-9D8B-FF11C5B72BF4stframe24" oryx:anchors="left top" stroke="#FFFFFF" fill="black" stroke-width="1" d="M8,11 L8,21 L24,21 L24,11 L16,17z"/> 		<path id="_5AC01B42-F0B6-46F8-9D8B-FF11C5B72BF4stframe25" oryx:anchors="left top" stroke="#FFFFFF" fill="black" stroke-width="1" d="M7,10 L16,17 L25 10z"/> 	</g> 	 	<g id="_5AC01B42-F0B6-46F8-9D8B-FF11C5B72BF4receiveTask" display="none"> 		<path id="_5AC01B42-F0B6-46F8-9D8B-FF11C5B72BF4frame26" oryx:anchors="left top" stroke="#000000" fill="none" stroke-width="1" d="M8,11 L8,21 L24,21 L24,11z M8,11 L16,17 L24,11"/> 	</g> 	 	<g id="_5AC01B42-F0B6-46F8-9D8B-FF11C5B72BF4none" display="inherit"/>  	<g id="_5AC01B42-F0B6-46F8-9D8B-FF11C5B72BF4sequential" display="none">         <path oryx:anchors="bottom" fill="none" stroke="#000000" stroke-width="2" d=" M35.800000000000004 44  h10  M35.800000000000004 40  h10  M35.800000000000004 36  h10 " id="_5AC01B42-F0B6-46F8-9D8B-FF11C5B72BF4__5AC01B42-F0B6-46F8-9D8B-FF11C5B72BF4_20"/>     </g>   </g></g><g class="children" style="overflow:hidden"/><g class="edge"/></g><g class="controls"><g class="dockers"/><g class="magnets" transform="translate(153, 208)"><g pointer-events="all" display="none" transform="translate(-7, 4)"><circle cx="8" cy="8" r="4" stroke="none" fill="red" fill-opacity="0.3"/></g><g pointer-events="all" display="none" transform="translate(-7, 16)"><circle cx="8" cy="8" r="4" stroke="none" fill="red" fill-opacity="0.3"/></g><g pointer-events="all" display="none" transform="translate(-7, 28)"><circle cx="8" cy="8" r="4" stroke="none" fill="red" fill-opacity="0.3"/></g><g pointer-events="all" display="none" transform="translate(12, 39)"><circle cx="8" cy="8" r="4" stroke="none" fill="red" fill-opacity="0.3"/></g><g pointer-events="all" display="none" transform="translate(32, 39)"><circle cx="8" cy="8" r="4" stroke="none" fill="red" fill-opacity="0.3"/></g><g pointer-events="all" display="none" transform="translate(52, 39)"><circle cx="8" cy="8" r="4" stroke="none" fill="red" fill-opacity="0.3"/></g><g pointer-events="all" display="none" transform="translate(71, 4)"><circle cx="8" cy="8" r="4" stroke="none" fill="red" fill-opacity="0.3"/></g><g pointer-events="all" display="none" transform="translate(71, 16)"><circle cx="8" cy="8" r="4" stroke="none" fill="red" fill-opacity="0.3"/></g><g pointer-events="all" display="none" transform="translate(71, 28)"><circle cx="8" cy="8" r="4" stroke="none" fill="red" fill-opacity="0.3"/></g><g pointer-events="all" display="none" transform="translate(12, -7)"><circle cx="8" cy="8" r="4" stroke="none" fill="red" fill-opacity="0.3"/></g><g pointer-events="all" display="none" transform="translate(32, -7)"><circle cx="8" cy="8" r="4" stroke="none" fill="red" fill-opacity="0.3"/></g><g pointer-events="all" display="none" transform="translate(52, -7)"><circle cx="8" cy="8" r="4" stroke="none" fill="red" fill-opacity="0.3"/></g><g pointer-events="all" display="none" transform="translate(32, 16)"><circle cx="8" cy="8" r="4" stroke="none" fill="red" fill-opacity="0.3"/></g></g></g></g></g><g class="edge"><g id="_F212B415-79AF-4EDE-97AC-3FB70CA448C8" bpmn2nodeid="_F3DABFAB-A145-4537-BE1C-EBDE9008D24D"><g class="stencils"><g class="me"><g pointer-events="painted" bpmn2nodeid="_6C9707C3-76BF-4BEF-88C9-4887381754F7"><path id="_F212B415-79AF-4EDE-97AC-3FB70CA448C8_1" d="M233.53125 232L262.46875 232 " stroke="#000000" fill="none" stroke-width="2" stroke-linecap="round" stroke-linejoin="round" marker-start="url(#_F212B415-79AF-4EDE-97AC-3FB70CA448C8start)" marker-end="url(#_F212B415-79AF-4EDE-97AC-3FB70CA448C8end)"/></g><text id="_F212B415-79AF-4EDE-97AC-3FB70CA448C8text_name" font-size="12" x="247.53125" y="218" oryx:edgePosition="startTop" stroke-width="0pt" letter-spacing="-0.01px" fill="#000000" text-anchor="start" transform="rotate(360 233.53125 232)" visibility="inherit" oryx:fontSize="12"/></g><g class="children" style="overflow:hidden"/><g class="edge"/></g><g class="controls"><g class="dockers"/><g class="magnets"/></g></g><g id="_C66973FA-200E-46D8-8B01-2F0120334EC9" bpmn2nodeid="_4AB4BB07-3AA9-44F2-AC63-35E8A14A9490"><g class="stencils"><g class="me"><g pointer-events="painted" bpmn2nodeid="_C2175F81-4997-48EC-9627-F2870CF3E134"><path id="_C66973FA-200E-46D8-8B01-2F0120334EC9_1" d="M322.4418874332667 207.49789528958172L366.8237375667333 151.56460471041828 " stroke="#000000" fill="none" stroke-width="2" stroke-linecap="round" stroke-linejoin="round" marker-start="url(#_C66973FA-200E-46D8-8B01-2F0120334EC9start)" marker-end="url(#_C66973FA-200E-46D8-8B01-2F0120334EC9end)"/></g><text id="_C66973FA-200E-46D8-8B01-2F0120334EC9text_name" font-size="12" x="336.4418874332667" y="193.49789528958172" oryx:edgePosition="startTop" stroke-width="0pt" letter-spacing="-0.01px" fill="#000000" text-anchor="start" transform="rotate(308.4312358781789 322.4418874332667 207.49789528958172)" visibility="inherit" oryx:fontSize="12"/></g><g class="children" style="overflow:hidden"/><g class="edge"/></g><g class="controls"><g class="dockers"/><g class="magnets"/></g></g><g id="_51D6B55F-2C16-4ABB-88D9-2690B5B1029E" bpmn2nodeid="_EC70C098-76A8-4E47-B0C8-595DBAE2B251"><g class="stencils"><g class="me"><g pointer-events="painted" bpmn2nodeid="_2A038340-C2F0-457E-9C28-5894F3B3EB4F"><path id="_51D6B55F-2C16-4ABB-88D9-2690B5B1029E_1" d="M110.86394197298281 146.33120829440142L169.78449552701719 207.78597920559858 " stroke="#000000" fill="none" stroke-width="2" stroke-linecap="round" stroke-linejoin="round" marker-start="url(#_51D6B55F-2C16-4ABB-88D9-2690B5B1029Estart)" marker-end="url(#_51D6B55F-2C16-4ABB-88D9-2690B5B1029Eend)"/></g><text id="_51D6B55F-2C16-4ABB-88D9-2690B5B1029Etext_name" font-size="12" x="124.86394197298281" y="132.33120829440142" oryx:edgePosition="startTop" stroke-width="0pt" letter-spacing="-0.01px" fill="#000000" text-anchor="start" transform="rotate(46.20604877921994 110.86394197298281 146.33120829440142)" visibility="inherit" oryx:fontSize="12"/></g><g class="children" style="overflow:hidden"/><g class="edge"/></g><g class="controls"><g class="dockers"/><g class="magnets"/></g></g></g><text id="_82F5E250-4FA6-4D7B-B751-DC4224740665" style="stroke-width:1;fill:rgb(177,194,214);font-family:arial;font-weight:bold" font-size="12" onclick="ORYX.Plugins.CanvasTitle.openTextualAnalysis()" onmouseover="ORYX.Plugins.CanvasTitle.addToolTip('_82F5E250-4FA6-4D7B-B751-DC4224740665')" transform="translate(10, 20)">MI_MainSub_FPLLevelDetermination v.1.0 (MI_MainSub_FPLLevelDetermination)</text></g></g></svg>